SplineFontDB: 3.2
FontName: GotoMono
FullName: Goto Mono
FamilyName: Goto Mono
Weight: Book
Copyright: Copyright 2015 Google LLC. All Rights Reserved.
Version: 2.006
ItalicAngle: 0
UnderlinePosition: -125
UnderlineWidth: 50
Ascent: 800
Descent: 200
InvalidEm: 0
sfntRevision: 0x00020189
LayerCount: 2
Layer: 0 1 "Back" 1
Layer: 1 1 "Fore" 0
XUID: [1021 328 1927437058 9118928]
StyleMap: 0x0040
FSType: 0
OS2Version: 3
OS2_WeightWidthSlopeOnly: 0
OS2_UseTypoMetrics: 0
CreationTime: 1604030168
ModificationTime: 1609767109
PfmFamily: 17
TTFWeight: 400
TTFWidth: 5
LineGap: 0
VLineGap: 0
Panose: 2 11 5 9 4 5 4 2 2 4
OS2TypoAscent: 1069
OS2TypoAOffset: 0
OS2TypoDescent: -293
OS2TypoDOffset: 0
OS2TypoLinegap: 0
OS2WinAscent: 1069
OS2WinAOffset: 0
OS2WinDescent: 293
OS2WinDOffset: 0
HheadAscent: 1069
HheadAOffset: 0
HheadDescent: -293
HheadDOffset: 0
OS2SubXSize: 650
OS2SubYSize: 600
OS2SubXOff: 0
OS2SubYOff: 75
OS2SupXSize: 650
OS2SupYSize: 600
OS2SupXOff: 0
OS2SupYOff: 350
OS2StrikeYSize: 50
OS2StrikeYPos: 322
OS2CapHeight: 714
OS2XHeight: 536
OS2Vendor: 'GOOG'
OS2CodePages: 0000019f.dfd70000
OS2UnicodeRanges: e00002ff.0200fcff.08000039.00100000
Lookup: 1 0 0 "'aalt' Access All Alternates lookup 0" { "'aalt' Access All Alternates lookup 0 subtable"  } ['aalt' ('DFLT' <'dflt' > 'cyrl' <'MKD ' 'SRB ' 'dflt' > 'grek' <'dflt' > 'latn' <'APPH' 'CAT ' 'IPPH' 'MAH ' 'MOL ' 'NAV ' 'ROM ' 'dflt' > ) ]
Lookup: 3 0 0 "'aalt' Access All Alternates lookup 1" { "'aalt' Access All Alternates lookup 1 subtable"  } ['aalt' ('DFLT' <'dflt' > 'cyrl' <'MKD ' 'SRB ' 'dflt' > 'grek' <'dflt' > 'latn' <'APPH' 'CAT ' 'IPPH' 'MAH ' 'MOL ' 'NAV ' 'ROM ' 'dflt' > ) ]
Lookup: 4 0 0 "'ccmp' Glyph Composition/Decomposition lookup 2" { "'ccmp' Glyph Composition/Decomposition lookup 2 subtable"  } ['ccmp' ('DFLT' <'dflt' > 'cyrl' <'MKD ' 'SRB ' 'dflt' > 'grek' <'dflt' > 'latn' <'APPH' 'CAT ' 'IPPH' 'MAH ' 'MOL ' 'NAV ' 'ROM ' 'dflt' > ) ]

StartChar: .notdef
Encoding: 1114112 -1 0
Width: 530
Flags: W
LayerCount: 2
Fore
SplineSet
60 0 m 1,0,-1
 60 714 l 1,1,-1
 471 714 l 1,2,-1
 471 0 l 1,3,-1
 60 0 l 1,0,-1
111 51 m 1,4,-1
 420 51 l 1,5,-1
 420 663 l 1,6,-1
 111 663 l 1,7,-1
 111 51 l 1,4,-1
EndSplineSet
Validated: 1
EndChar

StartChar: exclam
Encoding: 33 33 4
Width: 530
Flags: W
LayerCount: 2
Fore
SplineSet
235 201 m 1,0,-1
 217 714 l 1,1,-1
 321 714 l 1,2,-1
 305 201 l 1,3,-1
 235 201 l 1,0,-1
269 -11 m 0,4,5
 243 -11 243 -11 226.5 5 c 128,-1,6
 210 21 210 21 210 56 c 256,7,8
 210 91 210 91 226.5 106.5 c 128,-1,9
 243 122 243 122 269 122 c 0,10,11
 294 122 294 122 311 107 c 128,-1,12
 328 92 328 92 328 56 c 0,13,14
 328 21 328 21 311 5 c 128,-1,15
 294 -11 294 -11 269 -11 c 0,4,5
EndSplineSet
Validated: 1
Substitution2: "'smcp' Lowercase to Small Capitals lookup 35 subtable" exclam.sc
Substitution2: "'c2sc' Capitals to Small Capitals lookup 34 subtable" exclam.sc
Substitution2: "'aalt' Access All Alternates lookup 0 subtable" exclam.sc
EndChar

StartChar: quotedbl
Encoding: 34 34 5
Width: 530
Flags: W
LayerCount: 2
Fore
SplineSet
323 456 m 1,0,-1
 305 714 l 1,1,-1
 399 714 l 1,2,-1
 382 456 l 1,3,-1
 323 456 l 1,0,-1
149 456 m 1,4,-1
 131 714 l 1,5,-1
 225 714 l 1,6,-1
 208 456 l 1,7,-1
 149 456 l 1,4,-1
EndSplineSet
Validated: 1
EndChar

StartChar: numbersign
Encoding: 35 35 6
Width: 530
Flags: W
LayerCount: 2
Fore
SplineSet
97 0 m 1,0,-1
 126 215 l 1,1,-1
 33 215 l 1,2,-1
 33 280 l 1,3,-1
 136 280 l 1,4,-1
 160 445 l 1,5,-1
 60 445 l 1,6,-1
 60 510 l 1,7,-1
 169 510 l 1,8,-1
 198 714 l 1,9,-1
 263 714 l 1,10,-1
 234 510 l 1,11,-1
 340 510 l 1,12,-1
 370 714 l 1,13,-1
 433 714 l 1,14,-1
 404 510 l 1,15,-1
 497 510 l 1,16,-1
 497 445 l 1,17,-1
 395 445 l 1,18,-1
 372 280 l 1,19,-1
 471 280 l 1,20,-1
 471 215 l 1,21,-1
 362 215 l 1,22,-1
 331 0 l 1,23,-1
 265 0 l 1,24,-1
 297 215 l 1,25,-1
 190 215 l 1,26,-1
 161 0 l 1,27,-1
 97 0 l 1,0,-1
201 280 m 1,28,-1
 306 280 l 1,29,-1
 330 445 l 1,30,-1
 224 445 l 1,31,-1
 201 280 l 1,28,-1
EndSplineSet
Validated: 1
EndChar

StartChar: dollar
Encoding: 36 36 7
Width: 530
Flags: W
LayerCount: 2
Fore
SplineSet
241 36 m 1,0,1
 195 37 195 37 154.5 46 c 128,-1,2
 114 55 114 55 85 69 c 1,3,-1
 85 149 l 1,4,5
 115 132 115 132 156 120 c 128,-1,6
 197 108 197 108 241 107 c 1,7,-1
 241 333 l 1,8,9
 154 365 154 365 114 406 c 128,-1,10
 74 447 74 447 74 519 c 0,11,12
 74 590 74 590 120 634.5 c 128,-1,13
 166 679 166 679 241 685 c 1,14,-1
 241 760 l 1,15,-1
 295 760 l 1,16,-1
 295 687 l 1,17,18
 337 685 337 685 372.5 676 c 128,-1,19
 408 667 408 667 441 651 c 1,20,-1
 417 584 l 1,21,22
 361 610 361 610 295 615 c 1,23,-1
 295 393 l 1,24,25
 380 361 380 361 422.5 322.5 c 128,-1,26
 465 284 465 284 465 212 c 0,27,28
 465 144 465 144 420.5 98 c 128,-1,29
 376 52 376 52 295 40 c 1,30,-1
 295 -58 l 1,31,-1
 241 -58 l 1,32,-1
 241 36 l 1,0,1
241 614 m 1,33,34
 197 609 197 609 174 583.5 c 128,-1,35
 151 558 151 558 151 521 c 0,36,37
 151 479 151 479 171 456.5 c 128,-1,38
 191 434 191 434 241 414 c 1,39,-1
 241 614 l 1,33,34
295 111 m 1,40,41
 343 119 343 119 366.5 145.5 c 128,-1,42
 390 172 390 172 390 209 c 0,43,44
 390 248 390 248 368.5 271 c 128,-1,45
 347 294 347 294 295 313 c 1,46,-1
 295 111 l 1,40,41
EndSplineSet
Validated: 1
EndChar

StartChar: percent
Encoding: 37 37 8
Width: 530
Flags: W
LayerCount: 2
Fore
SplineSet
139 383 m 0,0,1
 79 383 79 383 39.5 427.5 c 128,-1,2
 0 472 0 472 0 553 c 256,3,4
 0 634 0 634 37.5 678 c 128,-1,5
 75 722 75 722 141 722 c 0,6,7
 200 722 200 722 239.5 678 c 128,-1,8
 279 634 279 634 279 553 c 256,9,10
 279 472 279 472 241 427.5 c 128,-1,11
 203 383 203 383 139 383 c 0,0,1
140 438 m 0,12,13
 208 438 208 438 208 553 c 0,14,15
 208 612 208 612 191 639.5 c 128,-1,16
 174 667 174 667 140 667 c 0,17,18
 104 667 104 667 87.5 639.5 c 128,-1,19
 71 612 71 612 71 553 c 0,20,21
 71 438 71 438 140 438 c 0,12,13
35 118 m 1,22,-1
 415 596 l 1,23,-1
 493 596 l 1,24,-1
 113 118 l 1,25,-1
 35 118 l 1,22,-1
390 -9 m 0,26,27
 330 -9 330 -9 290.5 35.5 c 128,-1,28
 251 80 251 80 251 161 c 256,29,30
 251 242 251 242 288.5 286 c 128,-1,31
 326 330 326 330 392 330 c 0,32,33
 451 330 451 330 490.5 286 c 128,-1,34
 530 242 530 242 530 161 c 256,35,36
 530 80 530 80 492 35.5 c 128,-1,37
 454 -9 454 -9 390 -9 c 0,26,27
391 46 m 0,38,39
 459 46 459 46 459 161 c 0,40,41
 459 220 459 220 442 247.5 c 128,-1,42
 425 275 425 275 391 275 c 0,43,44
 355 275 355 275 338.5 247.5 c 128,-1,45
 322 220 322 220 322 161 c 0,46,47
 322 46 322 46 391 46 c 0,38,39
EndSplineSet
Validated: 1
EndChar

StartChar: ampersand
Encoding: 38 38 9
Width: 530
Flags: W
LayerCount: 2
Fore
SplineSet
208 -10 m 0,0,1
 151 -10 151 -10 114 14.5 c 128,-1,2
 77 39 77 39 59 79.5 c 128,-1,3
 41 120 41 120 41 168 c 0,4,5
 41 242 41 242 76.5 294 c 128,-1,6
 112 346 112 346 163 390 c 1,7,8
 135 435 135 435 115.5 482.5 c 128,-1,9
 96 530 96 530 96 579 c 0,10,11
 96 644 96 644 131.5 684 c 128,-1,12
 167 724 167 724 228 724 c 256,13,14
 289 724 289 724 323.5 684 c 128,-1,15
 358 644 358 644 358 579 c 0,16,17
 358 516 358 516 328.5 466 c 128,-1,18
 299 416 299 416 259 377 c 1,19,-1
 376 208 l 1,20,21
 390 242 390 242 399 277 c 128,-1,22
 408 312 408 312 410 343 c 1,23,-1
 489 343 l 1,24,25
 483 290 483 290 467.5 236 c 128,-1,26
 452 182 452 182 426 135 c 1,27,-1
 519 0 l 1,28,-1
 423 0 l 1,29,-1
 377 68 l 1,30,31
 345 32 345 32 302.5 11 c 128,-1,32
 260 -10 260 -10 208 -10 c 0,0,1
173 580 m 0,33,34
 173 542 173 542 187 504.5 c 128,-1,35
 201 467 201 467 219 438 c 1,36,37
 242 461 242 461 263 496.5 c 128,-1,38
 284 532 284 532 284 581 c 0,39,40
 284 619 284 619 269 638 c 128,-1,41
 254 657 254 657 229 657 c 0,42,43
 202 657 202 657 187.5 637 c 128,-1,44
 173 617 173 617 173 580 c 0,33,34
123 169 m 0,45,46
 123 120 123 120 147.5 91 c 128,-1,47
 172 62 172 62 215 62 c 0,48,49
 251 62 251 62 280.5 82 c 128,-1,50
 310 102 310 102 334 133 c 1,51,-1
 204 327 l 1,52,53
 172 296 172 296 147.5 258 c 128,-1,54
 123 220 123 220 123 169 c 0,45,46
EndSplineSet
Validated: 1
Substitution2: "'smcp' Lowercase to Small Capitals lookup 35 subtable" ampersand.sc
Substitution2: "'c2sc' Capitals to Small Capitals lookup 34 subtable" ampersand.sc
Substitution2: "'aalt' Access All Alternates lookup 0 subtable" ampersand.sc
EndChar

StartChar: quotesingle
Encoding: 39 39 10
Width: 530
Flags: W
LayerCount: 2
Fore
SplineSet
236 456 m 1,0,-1
 218 714 l 1,1,-1
 312 714 l 1,2,-1
 295 456 l 1,3,-1
 236 456 l 1,0,-1
EndSplineSet
Validated: 1
EndChar

StartChar: parenleft
Encoding: 40 40 11
Width: 530
Flags: W
LayerCount: 2
Fore
SplineSet
315 -162 m 1,0,1
 243 -76 243 -76 207 36 c 128,-1,2
 171 148 171 148 171 272 c 0,3,4
 171 397 171 397 207.5 511.5 c 128,-1,5
 244 626 244 626 315 714 c 1,6,-1
 389 714 l 1,7,8
 323 617 323 617 289 504 c 128,-1,9
 255 391 255 391 255 273 c 0,10,11
 255 156 255 156 289.5 43.5 c 128,-1,12
 324 -69 324 -69 388 -162 c 1,13,-1
 315 -162 l 1,0,1
EndSplineSet
Validated: 1
Substitution2: "'smcp' Lowercase to Small Capitals lookup 35 subtable" parenleft.sc
Substitution2: "'c2sc' Capitals to Small Capitals lookup 34 subtable" parenleft.sc
Substitution2: "'sups' Superscript lookup 23 subtable" uni207D
Substitution2: "'subs' Subscript lookup 22 subtable" uni208D
AlternateSubs2: "'aalt' Access All Alternates lookup 1 subtable" uni208D uni207D parenleft.sc
EndChar

StartChar: asterisk
Encoding: 42 42 13
Width: 530
Flags: W
LayerCount: 2
Fore
SplineSet
331 400 m 1,0,-1
 265 532 l 1,1,-1
 198 400 l 1,2,-1
 129 443 l 1,3,-1
 218 561 l 1,4,-1
 88 573 l 1,5,-1
 103 650 l 1,6,-1
 238 612 l 1,7,-1
 224 757 l 1,8,-1
 306 757 l 1,9,-1
 292 612 l 1,10,-1
 427 652 l 1,11,-1
 442 573 l 1,12,-1
 311 560 l 1,13,-1
 402 443 l 1,14,-1
 331 400 l 1,0,-1
EndSplineSet
Validated: 1
EndChar

StartChar: plus
Encoding: 43 43 14
Width: 530
Flags: W
LayerCount: 2
Fore
SplineSet
231 120 m 1,0,-1
 231 318 l 1,1,-1
 70 318 l 1,2,-1
 70 387 l 1,3,-1
 231 387 l 1,4,-1
 231 587 l 1,5,-1
 301 587 l 1,6,-1
 301 387 l 1,7,-1
 460 387 l 1,8,-1
 460 318 l 1,9,-1
 301 318 l 1,10,-1
 301 120 l 1,11,-1
 231 120 l 1,0,-1
EndSplineSet
Validated: 1
Substitution2: "'sups' Superscript lookup 23 subtable" uni207A
Substitution2: "'subs' Subscript lookup 22 subtable" uni208A
AlternateSubs2: "'aalt' Access All Alternates lookup 1 subtable" uni208A uni207A
EndChar

StartChar: comma
Encoding: 44 44 15
Width: 530
Flags: W
LayerCount: 2
Fore
SplineSet
175 -134 m 1,0,1
 190 -73 190 -73 203.5 -4 c 128,-1,2
 217 65 217 65 224 119 c 1,3,-1
 319 119 l 1,4,-1
 326 108 l 1,5,6
 312 50 312 50 289 -14 c 128,-1,7
 266 -78 266 -78 241 -134 c 1,8,-1
 175 -134 l 1,0,1
EndSplineSet
Validated: 1
EndChar

StartChar: hyphen
Encoding: 45 45 16
Width: 530
Flags: W
LayerCount: 2
Fore
SplineSet
132 231 m 1,0,-1
 132 310 l 1,1,-1
 398 310 l 1,2,-1
 398 231 l 1,3,-1
 132 231 l 1,0,-1
EndSplineSet
Validated: 1
EndChar

StartChar: period
Encoding: 46 46 17
Width: 530
Flags: W
LayerCount: 2
Fore
SplineSet
264 -11 m 256,0,1
 239 -11 239 -11 222.5 5 c 128,-1,2
 206 21 206 21 206 56 c 256,3,4
 206 91 206 91 222.5 106.5 c 128,-1,5
 239 122 239 122 264 122 c 0,6,7
 290 122 290 122 307 107 c 128,-1,8
 324 92 324 92 324 56 c 0,9,10
 324 21 324 21 306.5 5 c 128,-1,11
 289 -11 289 -11 264 -11 c 256,0,1
EndSplineSet
Validated: 1
EndChar

StartChar: slash
Encoding: 47 47 18
Width: 530
Flags: W
LayerCount: 2
Fore
SplineSet
49 -2 m 1,0,-1
 316 716 l 1,1,-1
 395 716 l 1,2,-1
 129 -2 l 1,3,-1
 49 -2 l 1,0,-1
EndSplineSet
Validated: 1
Substitution2: "'frac' Diagonal Fractions lookup 26 subtable" fraction
Substitution2: "'aalt' Access All Alternates lookup 0 subtable" fraction
EndChar

StartChar: zero
Encoding: 48 48 19
Width: 530
Flags: W
LayerCount: 2
Fore
SplineSet
264 -10 m 0,0,1
 184 -10 184 -10 135 34 c 128,-1,2
 86 78 86 78 63 160.5 c 128,-1,3
 40 243 40 243 40 358 c 0,4,5
 40 474 40 474 62 556 c 128,-1,6
 84 638 84 638 133 681.5 c 128,-1,7
 182 725 182 725 264 725 c 0,8,9
 384 725 384 725 437 628.5 c 128,-1,10
 490 532 490 532 490 358 c 0,11,12
 490 243 490 243 468 160.5 c 128,-1,13
 446 78 446 78 396.5 34 c 128,-1,14
 347 -10 347 -10 264 -10 c 0,0,1
127 358 m 0,15,16
 127 319 127 319 129 284.5 c 128,-1,17
 131 250 131 250 136 220 c 1,18,-1
 360 603 l 1,19,20
 326 651 326 651 264 651 c 0,21,22
 190 651 190 651 158.5 577.5 c 128,-1,23
 127 504 127 504 127 358 c 0,15,16
264 64 m 0,24,25
 339 64 339 64 372.5 137 c 128,-1,26
 406 210 406 210 406 358 c 0,27,28
 406 404 406 404 403 443 c 128,-1,29
 400 482 400 482 394 514 c 1,30,-1
 165 126 l 1,31,32
 199 64 199 64 264 64 c 0,24,25
EndSplineSet
Validated: 1
Substitution2: "'zero' Slashed Zero lookup 37 subtable" zero.slash
Substitution2: "'onum' Oldstyle Figures lookup 33 subtable" zero.osf
Substitution2: "'frac' Diagonal Fractions lookup 27 subtable" zero.numr
Substitution2: "'dnom' Denominators lookup 25 subtable" zero.dnom
Substitution2: "'numr' Numerators lookup 24 subtable" zero.numr
Substitution2: "'sups' Superscript lookup 23 subtable" uni2070
Substitution2: "'subs' Subscript lookup 22 subtable" uni2080
AlternateSubs2: "'aalt' Access All Alternates lookup 1 subtable" uni2070 zero.osf zero.dnom zero.numr uni2080
EndChar

StartChar: one
Encoding: 49 49 20
Width: 530
Flags: W
LayerCount: 2
Fore
SplineSet
111 0 m 1,0,-1
 111 59 l 1,1,-1
 247 69 l 1,2,-1
 247 447 l 2,3,4
 247 489 247 489 248 540 c 128,-1,5
 249 591 249 591 251 624 c 1,6,7
 236 612 236 612 224.5 604.5 c 128,-1,8
 213 597 213 597 192 586 c 2,9,-1
 116 542 l 1,10,-1
 76 606 l 1,11,-1
 262 714 l 1,12,-1
 332 714 l 1,13,-1
 332 69 l 1,14,-1
 333 69 l 1,15,-1
 461 59 l 1,16,-1
 461 0 l 1,17,-1
 111 0 l 1,0,-1
EndSplineSet
Validated: 1
Substitution2: "'onum' Oldstyle Figures lookup 33 subtable" one.osf
Substitution2: "'frac' Diagonal Fractions lookup 27 subtable" one.numr
Substitution2: "'dnom' Denominators lookup 25 subtable" one.dnom
Substitution2: "'numr' Numerators lookup 24 subtable" one.numr
Substitution2: "'sups' Superscript lookup 23 subtable" uni00B9
Substitution2: "'subs' Subscript lookup 22 subtable" uni2081
AlternateSubs2: "'aalt' Access All Alternates lookup 1 subtable" uni00B9 one.osf one.dnom one.numr uni2081
EndChar

StartChar: two
Encoding: 50 50 21
Width: 530
Flags: W
LayerCount: 2
Fore
SplineSet
62 0 m 1,0,-1
 62 75 l 1,1,-1
 219 263 l 2,2,3
 259 311 259 311 291.5 352.5 c 128,-1,4
 324 394 324 394 343 436 c 128,-1,5
 362 478 362 478 362 527 c 0,6,7
 362 588 362 588 331 618.5 c 128,-1,8
 300 649 300 649 252 649 c 0,9,10
 210 649 210 649 172.5 629.5 c 128,-1,11
 135 610 135 610 107 584 c 1,12,-1
 60 642 l 1,13,14
 99 678 99 678 147.5 701 c 128,-1,15
 196 724 196 724 258 724 c 0,16,17
 346 724 346 724 397 673.5 c 128,-1,18
 448 623 448 623 448 533 c 0,19,20
 448 477 448 477 428 429 c 128,-1,21
 408 381 408 381 373.5 333 c 128,-1,22
 339 285 339 285 294 230 c 2,23,-1
 173 84 l 1,24,-1
 173 79 l 1,25,-1
 475 79 l 1,26,-1
 475 0 l 1,27,-1
 62 0 l 1,0,-1
EndSplineSet
Validated: 1
Substitution2: "'onum' Oldstyle Figures lookup 33 subtable" two.osf
Substitution2: "'frac' Diagonal Fractions lookup 27 subtable" two.numr
Substitution2: "'dnom' Denominators lookup 25 subtable" two.dnom
Substitution2: "'numr' Numerators lookup 24 subtable" two.numr
Substitution2: "'sups' Superscript lookup 23 subtable" uni00B2
Substitution2: "'subs' Subscript lookup 22 subtable" uni2082
AlternateSubs2: "'aalt' Access All Alternates lookup 1 subtable" uni00B2 two.osf two.dnom two.numr uni2082
EndChar

StartChar: three
Encoding: 51 51 22
Width: 530
Flags: W
LayerCount: 2
Fore
SplineSet
224 -10 m 0,0,1
 184 -10 184 -10 140.5 -1.5 c 128,-1,2
 97 7 97 7 59 29 c 1,3,-1
 59 111 l 1,4,5
 97 89 97 89 141 77 c 128,-1,6
 185 65 185 65 227 65 c 0,7,8
 304 65 304 65 339.5 103 c 128,-1,9
 375 141 375 141 375 203 c 0,10,11
 375 271 375 271 334 301.5 c 128,-1,12
 293 332 293 332 214 332 c 2,13,-1
 155 332 l 1,14,-1
 155 406 l 1,15,-1
 215 406 l 2,16,17
 284 406 284 406 321 443.5 c 128,-1,18
 358 481 358 481 358 541 c 0,19,20
 358 592 358 592 330 620.5 c 128,-1,21
 302 649 302 649 247 649 c 0,22,23
 208 649 208 649 172 635 c 128,-1,24
 136 621 136 621 106 598 c 1,25,-1
 64 659 l 1,26,27
 100 688 100 688 148 706 c 128,-1,28
 196 724 196 724 252 724 c 0,29,30
 346 724 346 724 396.5 674 c 128,-1,31
 447 624 447 624 447 545 c 0,32,33
 447 478 447 478 411.5 432.5 c 128,-1,34
 376 387 376 387 312 376 c 1,35,-1
 312 373 l 1,36,37
 388 362 388 362 427 318 c 128,-1,38
 466 274 466 274 466 200 c 0,39,40
 466 109 466 109 405.5 49.5 c 128,-1,41
 345 -10 345 -10 224 -10 c 0,0,1
EndSplineSet
Validated: 1
Substitution2: "'onum' Oldstyle Figures lookup 33 subtable" three.osf
Substitution2: "'frac' Diagonal Fractions lookup 27 subtable" three.numr
Substitution2: "'dnom' Denominators lookup 25 subtable" three.dnom
Substitution2: "'numr' Numerators lookup 24 subtable" three.numr
Substitution2: "'sups' Superscript lookup 23 subtable" uni00B3
Substitution2: "'subs' Subscript lookup 22 subtable" uni2083
AlternateSubs2: "'aalt' Access All Alternates lookup 1 subtable" uni00B3 three.osf three.dnom three.numr uni2083
EndChar

StartChar: four
Encoding: 52 52 23
Width: 530
Flags: W
LayerCount: 2
Fore
SplineSet
312 0 m 1,0,-1
 312 161 l 1,1,-1
 43 161 l 1,2,-1
 43 236 l 1,3,-1
 296 718 l 1,4,-1
 398 718 l 1,5,-1
 398 239 l 1,6,-1
 487 239 l 1,7,-1
 487 161 l 1,8,-1
 398 161 l 1,9,-1
 398 0 l 1,10,-1
 312 0 l 1,0,-1
127 239 m 1,11,-1
 312 239 l 1,12,-1
 312 411 l 2,13,14
 312 448 312 448 313 488.5 c 128,-1,15
 314 529 314 529 315.5 564.5 c 128,-1,16
 317 600 317 600 318 623 c 1,17,-1
 314 623 l 1,18,19
 307 599 307 599 294 567 c 128,-1,20
 281 535 281 535 270 514 c 2,21,-1
 127 239 l 1,11,-1
EndSplineSet
Validated: 1
Substitution2: "'onum' Oldstyle Figures lookup 33 subtable" four.osf
Substitution2: "'frac' Diagonal Fractions lookup 27 subtable" four.numr
Substitution2: "'dnom' Denominators lookup 25 subtable" four.dnom
Substitution2: "'numr' Numerators lookup 24 subtable" four.numr
Substitution2: "'sups' Superscript lookup 23 subtable" uni2074
Substitution2: "'subs' Subscript lookup 22 subtable" uni2084
AlternateSubs2: "'aalt' Access All Alternates lookup 1 subtable" uni2074 four.osf four.dnom four.numr uni2084
EndChar

StartChar: five
Encoding: 53 53 24
Width: 530
Flags: W
LayerCount: 2
Fore
SplineSet
225 -10 m 0,0,1
 180 -10 180 -10 139 0 c 128,-1,2
 98 10 98 10 68 29 c 1,3,-1
 68 112 l 1,4,5
 101 89 101 89 142 77.5 c 128,-1,6
 183 66 183 66 222 66 c 0,7,8
 293 66 293 66 331.5 103 c 128,-1,9
 370 140 370 140 370 218 c 0,10,11
 370 289 370 289 332 326.5 c 128,-1,12
 294 364 294 364 227 364 c 0,13,14
 201 364 201 364 172 359.5 c 128,-1,15
 143 355 143 355 123 351 c 1,16,-1
 82 379 l 1,17,-1
 106 714 l 1,18,-1
 419 714 l 1,19,-1
 419 635 l 1,20,-1
 182 635 l 1,21,-1
 165 427 l 1,22,23
 185 431 185 431 208 434 c 128,-1,24
 231 437 231 437 254 437 c 0,25,26
 314 437 314 437 360.5 413.5 c 128,-1,27
 407 390 407 390 433.5 343 c 128,-1,28
 460 296 460 296 460 226 c 0,29,30
 460 117 460 117 398.5 53.5 c 128,-1,31
 337 -10 337 -10 225 -10 c 0,0,1
EndSplineSet
Validated: 1
Substitution2: "'onum' Oldstyle Figures lookup 33 subtable" five.osf
Substitution2: "'frac' Diagonal Fractions lookup 27 subtable" five.numr
Substitution2: "'dnom' Denominators lookup 25 subtable" five.dnom
Substitution2: "'numr' Numerators lookup 24 subtable" five.numr
Substitution2: "'sups' Superscript lookup 23 subtable" uni2075
Substitution2: "'subs' Subscript lookup 22 subtable" uni2085
AlternateSubs2: "'aalt' Access All Alternates lookup 1 subtable" uni2075 five.osf five.dnom five.numr uni2085
EndChar

StartChar: six
Encoding: 54 54 25
Width: 530
Flags: W
LayerCount: 2
Fore
SplineSet
272 -10 m 0,0,1
 174 -10 174 -10 115 67.5 c 128,-1,2
 56 145 56 145 56 311 c 0,3,4
 56 391 56 391 70.5 465 c 128,-1,5
 85 539 85 539 118.5 597.5 c 128,-1,6
 152 656 152 656 208.5 690 c 128,-1,7
 265 724 265 724 348 724 c 0,8,9
 367 724 367 724 388.5 722 c 128,-1,10
 410 720 410 720 424 715 c 1,11,-1
 424 640 l 1,12,13
 392 652 392 652 350 652 c 0,14,15
 291 652 291 652 252 629 c 128,-1,16
 213 606 213 606 189.5 566 c 128,-1,17
 166 526 166 526 155 474 c 128,-1,18
 144 422 144 422 142 363 c 1,19,-1
 147 363 l 1,20,21
 167 400 167 400 201.5 424.5 c 128,-1,22
 236 449 236 449 291 449 c 0,23,24
 375 449 375 449 424 391 c 128,-1,25
 473 333 473 333 473 229 c 0,26,27
 473 118 473 118 419 54 c 128,-1,28
 365 -10 365 -10 272 -10 c 0,0,1
273 64 m 0,29,30
 323 64 323 64 355.5 104 c 128,-1,31
 388 144 388 144 388 227 c 0,32,33
 388 300 388 300 359.5 339.5 c 128,-1,34
 331 379 331 379 275 379 c 0,35,36
 237 379 237 379 207.5 360 c 128,-1,37
 178 341 178 341 161 309.5 c 128,-1,38
 144 278 144 278 144 241 c 0,39,40
 144 200 144 200 157 159.5 c 128,-1,41
 170 119 170 119 198.5 91.5 c 128,-1,42
 227 64 227 64 273 64 c 0,29,30
EndSplineSet
Validated: 1
Substitution2: "'onum' Oldstyle Figures lookup 33 subtable" six.osf
Substitution2: "'frac' Diagonal Fractions lookup 27 subtable" six.numr
Substitution2: "'dnom' Denominators lookup 25 subtable" six.dnom
Substitution2: "'numr' Numerators lookup 24 subtable" six.numr
Substitution2: "'sups' Superscript lookup 23 subtable" uni2076
Substitution2: "'subs' Subscript lookup 22 subtable" uni2086
AlternateSubs2: "'aalt' Access All Alternates lookup 1 subtable" uni2076 six.osf six.dnom six.numr uni2086
EndChar

StartChar: seven
Encoding: 55 55 26
Width: 530
Flags: W
LayerCount: 2
Fore
SplineSet
140 0 m 1,0,-1
 383 635 l 1,1,-1
 53 635 l 1,2,-1
 53 714 l 1,3,-1
 475 714 l 1,4,-1
 475 644 l 1,5,-1
 234 0 l 1,6,-1
 140 0 l 1,0,-1
EndSplineSet
Validated: 1
Substitution2: "'onum' Oldstyle Figures lookup 33 subtable" seven.osf
Substitution2: "'frac' Diagonal Fractions lookup 27 subtable" seven.numr
Substitution2: "'dnom' Denominators lookup 25 subtable" seven.dnom
Substitution2: "'numr' Numerators lookup 24 subtable" seven.numr
Substitution2: "'sups' Superscript lookup 23 subtable" uni2077
Substitution2: "'subs' Subscript lookup 22 subtable" uni2087
AlternateSubs2: "'aalt' Access All Alternates lookup 1 subtable" uni2077 seven.osf seven.dnom seven.numr uni2087
EndChar

StartChar: eight
Encoding: 56 56 27
Width: 530
Flags: W
LayerCount: 2
Fore
SplineSet
259 -10 m 0,0,1
 171 -10 171 -10 115 38.5 c 128,-1,2
 59 87 59 87 59 182 c 0,3,4
 59 255 59 255 93.5 300.5 c 128,-1,5
 128 346 128 346 185 374 c 1,6,7
 139 403 139 403 109 446 c 128,-1,8
 79 489 79 489 79 551 c 0,9,10
 79 610 79 610 105 648.5 c 128,-1,11
 131 687 131 687 173.5 706 c 128,-1,12
 216 725 216 725 265 725 c 0,13,14
 315 725 315 725 357 706 c 128,-1,15
 399 687 399 687 424 648.5 c 128,-1,16
 449 610 449 610 449 552 c 0,17,18
 449 488 449 488 417.5 446 c 128,-1,19
 386 404 386 404 333 378 c 1,20,21
 393 347 393 347 431 301.5 c 128,-1,22
 469 256 469 256 469 185 c 0,23,24
 469 126 469 126 443 82 c 128,-1,25
 417 38 417 38 369.5 14 c 128,-1,26
 322 -10 322 -10 259 -10 c 0,0,1
265 413 m 1,27,28
 311 435 311 435 337.5 466.5 c 128,-1,29
 364 498 364 498 364 548 c 0,30,31
 364 599 364 599 337 625 c 128,-1,32
 310 651 310 651 264 651 c 0,33,34
 219 651 219 651 191.5 625 c 128,-1,35
 164 599 164 599 164 548 c 0,36,37
 164 493 164 493 193.5 464.5 c 128,-1,38
 223 436 223 436 265 413 c 1,27,28
263 63 m 0,39,40
 323 63 323 63 354 96.5 c 128,-1,41
 385 130 385 130 385 187 c 0,42,43
 385 238 385 238 355.5 270.5 c 128,-1,44
 326 303 326 303 255 341 c 1,45,46
 201 312 201 312 172.5 274 c 128,-1,47
 144 236 144 236 144 182 c 256,48,49
 144 128 144 128 173 95.5 c 128,-1,50
 202 63 202 63 263 63 c 0,39,40
EndSplineSet
Validated: 1
Substitution2: "'onum' Oldstyle Figures lookup 33 subtable" eight.osf
Substitution2: "'frac' Diagonal Fractions lookup 27 subtable" eight.numr
Substitution2: "'dnom' Denominators lookup 25 subtable" eight.dnom
Substitution2: "'numr' Numerators lookup 24 subtable" eight.numr
Substitution2: "'sups' Superscript lookup 23 subtable" uni2078
Substitution2: "'subs' Subscript lookup 22 subtable" uni2088
AlternateSubs2: "'aalt' Access All Alternates lookup 1 subtable" uni2078 eight.osf eight.dnom eight.numr uni2088
EndChar

StartChar: nine
Encoding: 57 57 28
Width: 530
Flags: W
LayerCount: 2
Fore
SplineSet
182 -10 m 0,0,1
 162 -10 162 -10 141.5 -7.5 c 128,-1,2
 121 -5 121 -5 107 -1 c 1,3,-1
 107 75 l 1,4,5
 122 69 122 69 141 66 c 128,-1,6
 160 63 160 63 179 63 c 0,7,8
 252 63 252 63 296.5 102.5 c 128,-1,9
 341 142 341 142 362 207.5 c 128,-1,10
 383 273 383 273 386 351 c 1,11,-1
 381 351 l 1,12,13
 359 313 359 313 324.5 289.5 c 128,-1,14
 290 266 290 266 237 266 c 0,15,16
 153 266 153 266 104.5 323 c 128,-1,17
 56 380 56 380 56 486 c 0,18,19
 56 596 56 596 110 660 c 128,-1,20
 164 724 164 724 258 724 c 0,21,22
 355 724 355 724 413.5 646.5 c 128,-1,23
 472 569 472 569 472 404 c 0,24,25
 472 330 472 330 457.5 256.5 c 128,-1,26
 443 183 443 183 410 122.5 c 128,-1,27
 377 62 377 62 321 26 c 128,-1,28
 265 -10 265 -10 182 -10 c 0,0,1
252 335 m 0,29,30
 287 335 287 335 317 351.5 c 128,-1,31
 347 368 347 368 366 400.5 c 128,-1,32
 385 433 385 433 385 480 c 0,33,34
 385 506 385 506 377.5 535.5 c 128,-1,35
 370 565 370 565 355 591 c 128,-1,36
 340 617 340 617 315.5 633.5 c 128,-1,37
 291 650 291 650 257 650 c 0,38,39
 204 650 204 650 172 609 c 128,-1,40
 140 568 140 568 140 488 c 0,41,42
 140 413 140 413 169.5 374 c 128,-1,43
 199 335 199 335 252 335 c 0,29,30
EndSplineSet
Validated: 1
Substitution2: "'onum' Oldstyle Figures lookup 33 subtable" nine.osf
Substitution2: "'frac' Diagonal Fractions lookup 27 subtable" nine.numr
Substitution2: "'dnom' Denominators lookup 25 subtable" nine.dnom
Substitution2: "'numr' Numerators lookup 24 subtable" nine.numr
Substitution2: "'sups' Superscript lookup 23 subtable" uni2079
Substitution2: "'subs' Subscript lookup 22 subtable" uni2089
AlternateSubs2: "'aalt' Access All Alternates lookup 1 subtable" uni2079 nine.osf nine.dnom nine.numr uni2089
EndChar

StartChar: colon
Encoding: 58 58 29
Width: 530
Flags: W
LayerCount: 2
Fore
SplineSet
265 412 m 0,0,1
 239 412 239 412 222.5 428 c 128,-1,2
 206 444 206 444 206 479 c 256,3,4
 206 514 206 514 222.5 529.5 c 128,-1,5
 239 545 239 545 265 545 c 256,6,7
 291 545 291 545 307.5 529.5 c 128,-1,8
 324 514 324 514 324 479 c 256,9,10
 324 444 324 444 307 428 c 128,-1,11
 290 412 290 412 265 412 c 0,0,1
265 -11 m 0,12,13
 239 -11 239 -11 222.5 5 c 128,-1,14
 206 21 206 21 206 56 c 256,15,16
 206 91 206 91 222.5 106.5 c 128,-1,17
 239 122 239 122 265 122 c 0,18,19
 290 122 290 122 307 107 c 128,-1,20
 324 92 324 92 324 56 c 0,21,22
 324 21 324 21 306.5 5 c 128,-1,23
 289 -11 289 -11 265 -11 c 0,12,13
EndSplineSet
Validated: 1
EndChar

StartChar: semicolon
Encoding: 59 59 30
Width: 530
Flags: W
LayerCount: 2
Fore
SplineSet
267 412 m 0,0,1
 241 412 241 412 224.5 428 c 128,-1,2
 208 444 208 444 208 479 c 256,3,4
 208 514 208 514 224.5 529.5 c 128,-1,5
 241 545 241 545 267 545 c 256,6,7
 293 545 293 545 309.5 529.5 c 128,-1,8
 326 514 326 514 326 479 c 256,9,10
 326 444 326 444 309 428 c 128,-1,11
 292 412 292 412 267 412 c 0,0,1
171 -134 m 1,12,13
 186 -73 186 -73 200 -4 c 128,-1,14
 214 65 214 65 221 119 c 1,15,-1
 316 119 l 1,16,-1
 323 108 l 1,17,18
 309 50 309 50 286 -14 c 128,-1,19
 263 -78 263 -78 238 -134 c 1,20,-1
 171 -134 l 1,12,13
EndSplineSet
Validated: 1
EndChar

StartChar: equal
Encoding: 61 61 32
Width: 530
Flags: W
LayerCount: 2
Fore
SplineSet
56 413 m 1,0,-1
 56 491 l 1,1,-1
 474 491 l 1,2,-1
 474 413 l 1,3,-1
 56 413 l 1,0,-1
56 213 m 1,4,-1
 56 291 l 1,5,-1
 474 291 l 1,6,-1
 474 213 l 1,7,-1
 56 213 l 1,4,-1
EndSplineSet
Validated: 1
Substitution2: "'sups' Superscript lookup 23 subtable" uni207C
Substitution2: "'subs' Subscript lookup 22 subtable" uni208C
AlternateSubs2: "'aalt' Access All Alternates lookup 1 subtable" uni208C uni207C
EndChar

StartChar: greater
Encoding: 62 62 33
Width: 530
Flags: W
LayerCount: 2
Fore
SplineSet
72 127 m 1,0,-1
 72 205 l 1,1,-1
 365 354 l 1,2,-1
 72 509 l 1,3,-1
 72 587 l 1,4,-1
 458 378 l 1,5,-1
 458 329 l 1,6,-1
 72 127 l 1,0,-1
EndSplineSet
Validated: 1
EndChar

StartChar: question
Encoding: 63 63 34
Width: 530
Flags: W
LayerCount: 2
Fore
SplineSet
199 226 m 2,0,1
 199 281 199 281 216 318 c 128,-1,2
 233 355 233 355 278 395 c 0,3,4
 310 424 310 424 328.5 447 c 128,-1,5
 347 470 347 470 355 493.5 c 128,-1,6
 363 517 363 517 363 549 c 0,7,8
 363 595 363 595 335.5 621.5 c 128,-1,9
 308 648 308 648 257 648 c 0,10,11
 214 648 214 648 180.5 636.5 c 128,-1,12
 147 625 147 625 114 608 c 1,13,-1
 82 677 l 1,14,15
 120 698 120 698 163 711 c 128,-1,16
 206 724 206 724 259 724 c 0,17,18
 348 724 348 724 397.5 678.5 c 128,-1,19
 447 633 447 633 447 553 c 0,20,21
 447 508 447 508 435.5 476 c 128,-1,22
 424 444 424 444 401 416 c 128,-1,23
 378 388 378 388 343 356 c 0,24,25
 313 328 313 328 297 307 c 128,-1,26
 281 286 281 286 275.5 265.5 c 128,-1,27
 270 245 270 245 270 217 c 2,28,-1
 270 201 l 1,29,-1
 199 201 l 1,30,-1
 199 226 l 2,0,1
238 -11 m 0,31,32
 212 -11 212 -11 195.5 5 c 128,-1,33
 179 21 179 21 179 56 c 256,34,35
 179 91 179 91 195 106.5 c 128,-1,36
 211 122 211 122 238 122 c 0,37,38
 263 122 263 122 280 107 c 128,-1,39
 297 92 297 92 297 56 c 0,40,41
 297 21 297 21 279.5 5 c 128,-1,42
 262 -11 262 -11 238 -11 c 0,31,32
EndSplineSet
Validated: 1
Substitution2: "'smcp' Lowercase to Small Capitals lookup 35 subtable" question.sc
Substitution2: "'c2sc' Capitals to Small Capitals lookup 34 subtable" question.sc
Substitution2: "'aalt' Access All Alternates lookup 0 subtable" question.sc
EndChar

StartChar: at
Encoding: 64 64 35
Width: 530
Flags: W
LayerCount: 2
Fore
SplineSet
287 -89 m 0,0,1
 147 -89 147 -89 76 13 c 128,-1,2
 5 115 5 115 5 294 c 0,3,4
 5 422 5 422 37.5 516 c 128,-1,5
 70 610 70 610 132 662 c 128,-1,6
 194 714 194 714 283 714 c 0,7,8
 359 714 359 714 413.5 670.5 c 128,-1,9
 468 627 468 627 497 547 c 128,-1,10
 526 467 526 467 526 357 c 0,11,12
 526 311 526 311 520 266.5 c 128,-1,13
 514 222 514 222 501.5 186.5 c 128,-1,14
 489 151 489 151 468 129.5 c 128,-1,15
 447 108 447 108 417 108 c 0,16,17
 388 108 388 108 369 131.5 c 128,-1,18
 350 155 350 155 346 190 c 1,19,-1
 344 191 l 1,20,21
 330 153 330 153 304 130.5 c 128,-1,22
 278 108 278 108 243 108 c 0,23,24
 189 108 189 108 158 159 c 128,-1,25
 127 210 127 210 127 296 c 0,26,27
 127 363 127 363 147.5 413.5 c 128,-1,28
 168 464 168 464 205 492 c 128,-1,29
 242 520 242 520 292 520 c 0,30,31
 323 520 323 520 352.5 512.5 c 128,-1,32
 382 505 382 505 398 497 c 1,33,-1
 389 293 l 2,34,35
 388 285 388 285 388 274.5 c 128,-1,36
 388 264 388 264 388 256 c 0,37,38
 388 208 388 208 396 186 c 128,-1,39
 404 164 404 164 419 164 c 0,40,41
 443 164 443 164 453.5 216 c 128,-1,42
 464 268 464 268 464 358 c 0,43,44
 464 496 464 496 416.5 575.5 c 128,-1,45
 369 655 369 655 282 655 c 0,46,47
 177 655 177 655 122.5 559 c 128,-1,48
 68 463 68 463 68 297 c 0,49,50
 68 142 68 142 122.5 56.5 c 128,-1,51
 177 -29 177 -29 290 -29 c 0,52,53
 332 -29 332 -29 370 -19 c 128,-1,54
 408 -9 408 -9 444 8 c 1,55,-1
 444 -49 l 1,56,57
 408 -69 408 -69 370.5 -79 c 128,-1,58
 333 -89 333 -89 287 -89 c 0,0,1
258 164 m 0,59,60
 288 164 288 164 302.5 205 c 128,-1,61
 317 246 317 246 321 323 c 2,62,-1
 328 454 l 1,63,64
 311 464 311 464 290 464 c 0,65,66
 245 464 245 464 222.5 416 c 128,-1,67
 200 368 200 368 200 294 c 0,68,69
 200 164 200 164 258 164 c 0,59,60
EndSplineSet
Validated: 1
EndChar

StartChar: A
Encoding: 65 65 36
Width: 530
GlyphClass: 2
Flags: W
AnchorPoint: "Anchor-2" 510 714 basechar 0
AnchorPoint: "Anchor-1" 265 714 basechar 0
AnchorPoint: "Anchor-0" 265 0 basechar 0
LayerCount: 2
Fore
SplineSet
20 0 m 1,0,-1
 212 715 l 1,1,-1
 316 715 l 1,2,-1
 510 0 l 1,3,-1
 423 0 l 1,4,-1
 366 224 l 1,5,-1
 163 224 l 1,6,-1
 108 0 l 1,7,-1
 20 0 l 1,0,-1
239 529 m 2,8,-1
 182 300 l 1,9,-1
 346 300 l 1,10,-1
 288 529 l 2,11,12
 283 553 283 553 275.5 583.5 c 128,-1,13
 268 614 268 614 263 640 c 1,14,15
 259 614 259 614 252 583 c 128,-1,16
 245 552 245 552 239 529 c 2,8,-1
EndSplineSet
Validated: 1048577
Substitution2: "'c2sc' Capitals to Small Capitals lookup 34 subtable" a.sc
Substitution2: "Single Substitution lookup 32 subtable" ordfeminine
AlternateSubs2: "'aalt' Access All Alternates lookup 1 subtable" ordfeminine a.sc
EndChar

StartChar: B
Encoding: 66 66 37
Width: 530
GlyphClass: 2
Flags: W
AnchorPoint: "Anchor-2" 510 714 basechar 0
AnchorPoint: "Anchor-1" 265 714 basechar 0
AnchorPoint: "Anchor-0" 265 0 basechar 0
LayerCount: 2
Fore
SplineSet
74 0 m 1,0,-1
 74 714 l 1,1,-1
 240 714 l 2,2,3
 345 714 345 714 404 673.5 c 128,-1,4
 463 633 463 633 463 540 c 0,5,6
 463 473 463 473 432.5 431.5 c 128,-1,7
 402 390 402 390 345 379 c 1,8,-1
 345 374 l 1,9,10
 405 362 405 362 443.5 324 c 128,-1,11
 482 286 482 286 482 206 c 0,12,13
 482 109 482 109 424 54.5 c 128,-1,14
 366 0 366 0 265 0 c 2,15,-1
 74 0 l 1,0,-1
239 411 m 2,16,17
 312 411 312 411 344 440 c 128,-1,18
 376 469 376 469 376 526 c 0,19,20
 376 585 376 585 342 611.5 c 128,-1,21
 308 638 308 638 230 638 c 2,22,-1
 156 638 l 1,23,-1
 156 411 l 1,24,-1
 239 411 l 2,16,17
251 76 m 2,25,26
 327 76 327 76 360.5 111 c 128,-1,27
 394 146 394 146 394 207 c 0,28,29
 394 267 394 267 359.5 301 c 128,-1,30
 325 335 325 335 243 335 c 2,31,-1
 156 335 l 1,32,-1
 156 76 l 1,33,-1
 251 76 l 2,25,26
EndSplineSet
Validated: 1048577
Substitution2: "'c2sc' Capitals to Small Capitals lookup 34 subtable" b.sc
Substitution2: "'aalt' Access All Alternates lookup 0 subtable" b.sc
EndChar

StartChar: C
Encoding: 67 67 38
Width: 530
GlyphClass: 2
Flags: W
AnchorPoint: "Anchor-2" 510 714 basechar 0
AnchorPoint: "Anchor-1" 323 714 basechar 0
AnchorPoint: "Anchor-0" 306 0 basechar 0
LayerCount: 2
Fore
SplineSet
324 -10 m 0,0,1
 233 -10 233 -10 171.5 35 c 128,-1,2
 110 80 110 80 79 163 c 128,-1,3
 48 246 48 246 48 358 c 0,4,5
 48 465 48 465 80.5 548 c 128,-1,6
 113 631 113 631 176 678 c 128,-1,7
 239 725 239 725 332 725 c 0,8,9
 378 725 378 725 419.5 715 c 128,-1,10
 461 705 461 705 498 686 c 1,11,-1
 464 615 l 1,12,13
 437 631 437 631 403 640 c 128,-1,14
 369 649 369 649 333 649 c 0,15,16
 266 649 266 649 222.5 611.5 c 128,-1,17
 179 574 179 574 157 508.5 c 128,-1,18
 135 443 135 443 135 357 c 0,19,20
 135 224 135 224 183.5 145.5 c 128,-1,21
 232 67 232 67 333 67 c 0,22,23
 369 67 369 67 403.5 74.5 c 128,-1,24
 438 82 438 82 472 95 c 1,25,-1
 472 17 l 1,26,27
 437 2 437 2 402.5 -4 c 128,-1,28
 368 -10 368 -10 324 -10 c 0,0,1
EndSplineSet
Validated: 1048577
Substitution2: "'c2sc' Capitals to Small Capitals lookup 34 subtable" c.sc
Substitution2: "'aalt' Access All Alternates lookup 0 subtable" c.sc
EndChar

StartChar: D
Encoding: 68 68 39
Width: 530
GlyphClass: 2
Flags: W
AnchorPoint: "Anchor-3" 272 357 basechar 0
AnchorPoint: "Anchor-2" 530 714 basechar 0
AnchorPoint: "Anchor-1" 247 714 basechar 0
AnchorPoint: "Anchor-0" 233 0 basechar 0
LayerCount: 2
Fore
SplineSet
53 0 m 1,0,-1
 53 714 l 1,1,-1
 237 714 l 2,2,3
 360 714 360 714 429.5 625 c 128,-1,4
 499 536 499 536 499 365 c 0,5,6
 499 185 499 185 427.5 92.5 c 128,-1,7
 356 0 356 0 220 0 c 2,8,-1
 53 0 l 1,0,-1
215 78 m 2,9,10
 316 78 316 78 363.5 150.5 c 128,-1,11
 411 223 411 223 411 365 c 0,12,13
 411 509 411 509 364.5 572.5 c 128,-1,14
 318 636 318 636 220 636 c 2,15,-1
 137 636 l 1,16,-1
 137 78 l 1,17,-1
 215 78 l 2,9,10
EndSplineSet
Validated: 1
Substitution2: "'c2sc' Capitals to Small Capitals lookup 34 subtable" d.sc
Substitution2: "'aalt' Access All Alternates lookup 0 subtable" d.sc
EndChar

StartChar: E
Encoding: 69 69 40
Width: 530
GlyphClass: 2
Flags: W
AnchorPoint: "Anchor-2" 510 714 basechar 0
AnchorPoint: "Anchor-1" 266 714 basechar 0
AnchorPoint: "Anchor-0" 269 0 basechar 0
LayerCount: 2
Fore
SplineSet
74 0 m 1,0,-1
 74 714 l 1,1,-1
 463 714 l 1,2,-1
 463 635 l 1,3,-1
 160 635 l 1,4,-1
 160 410 l 1,5,-1
 444 410 l 1,6,-1
 444 332 l 1,7,-1
 160 332 l 1,8,-1
 160 79 l 1,9,-1
 463 79 l 1,10,-1
 463 0 l 1,11,-1
 74 0 l 1,0,-1
EndSplineSet
Validated: 1048577
Substitution2: "'c2sc' Capitals to Small Capitals lookup 34 subtable" e.sc
Substitution2: "'aalt' Access All Alternates lookup 0 subtable" e.sc
EndChar

StartChar: F
Encoding: 70 70 41
Width: 530
GlyphClass: 2
Flags: W
AnchorPoint: "Anchor-2" 510 714 basechar 0
AnchorPoint: "Anchor-1" 276 714 basechar 0
AnchorPoint: "Anchor-0" 276 0 basechar 0
LayerCount: 2
Fore
SplineSet
74 0 m 1,0,-1
 74 714 l 1,1,-1
 463 714 l 1,2,-1
 463 635 l 1,3,-1
 160 635 l 1,4,-1
 160 383 l 1,5,-1
 448 383 l 1,6,-1
 448 304 l 1,7,-1
 160 304 l 1,8,-1
 160 0 l 1,9,-1
 74 0 l 1,0,-1
EndSplineSet
Validated: 1048577
Substitution2: "'c2sc' Capitals to Small Capitals lookup 34 subtable" f.sc
Substitution2: "'aalt' Access All Alternates lookup 0 subtable" f.sc
EndChar

StartChar: G
Encoding: 71 71 42
Width: 530
GlyphClass: 2
Flags: W
AnchorPoint: "Anchor-2" 510 714 basechar 0
AnchorPoint: "Anchor-1" 287 714 basechar 0
AnchorPoint: "Anchor-0" 296 0 basechar 0
LayerCount: 2
Fore
SplineSet
299 -10 m 0,0,1
 206 -10 206 -10 147 36 c 128,-1,2
 88 82 88 82 59.5 164 c 128,-1,3
 31 246 31 246 31 355 c 0,4,5
 31 466 31 466 61.5 549 c 128,-1,6
 92 632 92 632 153 678.5 c 128,-1,7
 214 725 214 725 307 725 c 0,8,9
 402 725 402 725 475 682 c 1,10,-1
 442 611 l 1,11,12
 411 631 411 631 379.5 640 c 128,-1,13
 348 649 348 649 309 649 c 0,14,15
 215 649 215 649 166.5 572.5 c 128,-1,16
 118 496 118 496 118 355 c 0,17,18
 118 274 118 274 136.5 208.5 c 128,-1,19
 155 143 155 143 195 105 c 128,-1,20
 235 67 235 67 300 67 c 0,21,22
 328 67 328 67 349.5 71 c 128,-1,23
 371 75 371 75 392 82 c 1,24,-1
 392 298 l 1,25,-1
 282 298 l 1,26,-1
 282 377 l 1,27,-1
 475 377 l 1,28,-1
 475 26 l 1,29,30
 433 9 433 9 390.5 -0.5 c 128,-1,31
 348 -10 348 -10 299 -10 c 0,0,1
EndSplineSet
Validated: 1048577
Substitution2: "'c2sc' Capitals to Small Capitals lookup 34 subtable" g.sc
Substitution2: "'aalt' Access All Alternates lookup 0 subtable" g.sc
EndChar

StartChar: H
Encoding: 72 72 43
Width: 530
GlyphClass: 2
Flags: W
AnchorPoint: "Anchor-3" 265 372 basechar 0
AnchorPoint: "Anchor-2" 530 714 basechar 0
AnchorPoint: "Anchor-1" 265 714 basechar 0
AnchorPoint: "Anchor-0" 265 0 basechar 0
LayerCount: 2
Fore
SplineSet
53 0 m 1,0,-1
 53 714 l 1,1,-1
 138 714 l 1,2,-1
 138 410 l 1,3,-1
 392 410 l 1,4,-1
 392 714 l 1,5,-1
 478 714 l 1,6,-1
 478 0 l 1,7,-1
 392 0 l 1,8,-1
 392 331 l 1,9,-1
 138 331 l 1,10,-1
 138 0 l 1,11,-1
 53 0 l 1,0,-1
EndSplineSet
Validated: 1
Substitution2: "'c2sc' Capitals to Small Capitals lookup 34 subtable" h.sc
Substitution2: "'aalt' Access All Alternates lookup 0 subtable" h.sc
EndChar

StartChar: I
Encoding: 73 73 44
Width: 530
GlyphClass: 2
Flags: W
AnchorPoint: "Anchor-2" 510 714 basechar 0
AnchorPoint: "Anchor-1" 265 714 basechar 0
AnchorPoint: "Anchor-0" 265 0 basechar 0
LayerCount: 2
Fore
SplineSet
86 0 m 1,0,-1
 86 60 l 1,1,-1
 222 71 l 1,2,-1
 222 643 l 1,3,-1
 86 654 l 1,4,-1
 86 714 l 1,5,-1
 445 714 l 1,6,-1
 445 654 l 1,7,-1
 306 643 l 1,8,-1
 306 71 l 1,9,-1
 445 60 l 1,10,-1
 445 0 l 1,11,-1
 86 0 l 1,0,-1
EndSplineSet
Validated: 1048577
Substitution2: "'c2sc' Capitals to Small Capitals lookup 34 subtable" i.sc
Substitution2: "'aalt' Access All Alternates lookup 0 subtable" i.sc
EndChar

StartChar: J
Encoding: 74 74 45
Width: 530
GlyphClass: 2
Flags: W
AnchorPoint: "Anchor-2" 510 714 basechar 0
AnchorPoint: "Anchor-1" 370 714 basechar 0
AnchorPoint: "Anchor-0" 265 0 basechar 0
LayerCount: 2
Fore
SplineSet
200 -10 m 0,0,1
 162 -10 162 -10 126 -2 c 128,-1,2
 90 6 90 6 65 19 c 1,3,-1
 65 98 l 1,4,5
 91 85 91 85 125.5 76 c 128,-1,6
 160 67 160 67 193 67 c 0,7,8
 258 67 258 67 293 106 c 128,-1,9
 328 145 328 145 328 221 c 2,10,-1
 328 714 l 1,11,-1
 413 714 l 1,12,-1
 413 207 l 2,13,14
 413 109 413 109 359 49.5 c 128,-1,15
 305 -10 305 -10 200 -10 c 0,0,1
EndSplineSet
Validated: 1048577
Substitution2: "'c2sc' Capitals to Small Capitals lookup 34 subtable" j.sc
Substitution2: "'aalt' Access All Alternates lookup 0 subtable" j.sc
EndChar

StartChar: K
Encoding: 75 75 46
Width: 530
GlyphClass: 2
Flags: W
AnchorPoint: "Anchor-2" 510 714 basechar 0
AnchorPoint: "Anchor-1" 265 714 basechar 0
AnchorPoint: "Anchor-0" 274 0 basechar 0
LayerCount: 2
Fore
SplineSet
53 0 m 1,0,-1
 53 714 l 1,1,-1
 137 714 l 1,2,-1
 137 347 l 1,3,4
 155 372 155 372 174 400.5 c 128,-1,5
 193 429 193 429 217 464 c 2,6,-1
 390 714 l 1,7,-1
 488 714 l 1,8,-1
 267 393 l 1,9,-1
 498 0 l 1,10,-1
 401 0 l 1,11,-1
 209 333 l 1,12,-1
 137 256 l 1,13,-1
 137 0 l 1,14,-1
 53 0 l 1,0,-1
EndSplineSet
Validated: 1048577
Substitution2: "'c2sc' Capitals to Small Capitals lookup 34 subtable" k.sc
Substitution2: "'aalt' Access All Alternates lookup 0 subtable" k.sc
EndChar

StartChar: L
Encoding: 76 76 47
Width: 530
GlyphClass: 2
Flags: W
AnchorPoint: "Anchor-3" 265 357 basechar 0
AnchorPoint: "Anchor-2" 388 714 basechar 0
AnchorPoint: "Anchor-1" 132 714 basechar 0
AnchorPoint: "Anchor-0" 288 0 basechar 0
LayerCount: 2
Fore
SplineSet
87 0 m 1,0,-1
 87 714 l 1,1,-1
 173 714 l 1,2,-1
 173 81 l 1,3,-1
 463 81 l 1,4,-1
 463 0 l 1,5,-1
 87 0 l 1,0,-1
EndSplineSet
Validated: 1
Substitution2: "'c2sc' Capitals to Small Capitals lookup 34 subtable" l.sc
Substitution2: "'aalt' Access All Alternates lookup 0 subtable" l.sc
EndChar

StartChar: M
Encoding: 77 77 48
Width: 530
GlyphClass: 2
Flags: W
AnchorPoint: "Anchor-2" 530 714 basechar 0
AnchorPoint: "Anchor-1" 269 714 basechar 0
AnchorPoint: "Anchor-0" 265 0 basechar 0
LayerCount: 2
Fore
SplineSet
36 0 m 1,0,-1
 36 714 l 1,1,-1
 159 714 l 1,2,-1
 262 294 l 1,3,-1
 265 294 l 1,4,-1
 370 714 l 1,5,-1
 494 714 l 1,6,-1
 494 0 l 1,7,-1
 414 0 l 1,8,-1
 414 388 l 2,9,10
 414 450 414 450 417 515.5 c 128,-1,11
 420 581 420 581 425 639 c 1,12,-1
 421 639 l 1,13,-1
 305 196 l 1,14,-1
 221 196 l 1,15,-1
 107 639 l 1,16,-1
 102 639 l 1,17,18
 106 609 106 609 109 567 c 128,-1,19
 112 525 112 525 114 478.5 c 128,-1,20
 116 432 116 432 116 387 c 2,21,-1
 116 0 l 1,22,-1
 36 0 l 1,0,-1
EndSplineSet
Validated: 1048577
Substitution2: "'c2sc' Capitals to Small Capitals lookup 34 subtable" m.sc
Substitution2: "'aalt' Access All Alternates lookup 0 subtable" m.sc
EndChar

StartChar: N
Encoding: 78 78 49
Width: 530
GlyphClass: 2
Flags: W
AnchorPoint: "Anchor-2" 530 714 basechar 0
AnchorPoint: "Anchor-1" 270 714 basechar 0
AnchorPoint: "Anchor-0" 265 0 basechar 0
LayerCount: 2
Fore
SplineSet
53 0 m 1,0,-1
 53 714 l 1,1,-1
 170 714 l 1,2,-1
 404 96 l 1,3,-1
 408 96 l 1,4,5
 406 126 406 126 402 176.5 c 128,-1,6
 398 227 398 227 398 280 c 2,7,-1
 398 714 l 1,8,-1
 478 714 l 1,9,-1
 478 0 l 1,10,-1
 367 0 l 1,11,-1
 126 628 l 1,12,-1
 121 628 l 1,13,14
 125 578 125 578 128.5 529 c 128,-1,15
 132 480 132 480 132 425 c 2,16,-1
 132 0 l 1,17,-1
 53 0 l 1,0,-1
EndSplineSet
Validated: 1048577
Substitution2: "'c2sc' Capitals to Small Capitals lookup 34 subtable" n.sc
Substitution2: "'aalt' Access All Alternates lookup 0 subtable" n.sc
EndChar

StartChar: O
Encoding: 79 79 50
Width: 530
GlyphClass: 2
Flags: W
AnchorPoint: "Anchor-3" 265 357 basechar 0
AnchorPoint: "Anchor-2" 530 714 basechar 0
AnchorPoint: "Anchor-1" 265 714 basechar 0
AnchorPoint: "Anchor-0" 265 0 basechar 0
LayerCount: 2
Fore
SplineSet
265 -10 m 256,0,1
 179 -10 179 -10 127.5 39 c 128,-1,2
 76 88 76 88 53.5 171.5 c 128,-1,3
 31 255 31 255 31 358 c 0,4,5
 31 533 31 533 88 629.5 c 128,-1,6
 145 726 145 726 265 726 c 0,7,8
 349 726 349 726 400.5 677.5 c 128,-1,9
 452 629 452 629 475.5 546 c 128,-1,10
 499 463 499 463 499 358 c 256,11,12
 499 253 499 253 476 169.5 c 128,-1,13
 453 86 453 86 402 38 c 128,-1,14
 351 -10 351 -10 265 -10 c 256,0,1
266 67 m 256,15,16
 342 67 342 67 377 141.5 c 128,-1,17
 412 216 412 216 412 358 c 0,18,19
 412 499 412 499 376.5 574.5 c 128,-1,20
 341 650 341 650 266 650 c 0,21,22
 186 650 186 650 152 574 c 128,-1,23
 118 498 118 498 118 358 c 256,24,25
 118 218 118 218 154 142.5 c 128,-1,26
 190 67 190 67 266 67 c 256,15,16
EndSplineSet
Validated: 1
Substitution2: "'c2sc' Capitals to Small Capitals lookup 34 subtable" o.sc
Substitution2: "Single Substitution lookup 32 subtable" ordmasculine
AlternateSubs2: "'aalt' Access All Alternates lookup 1 subtable" ordmasculine o.sc
EndChar

StartChar: P
Encoding: 80 80 51
Width: 530
GlyphClass: 2
Flags: W
AnchorPoint: "Anchor-2" 530 714 basechar 0
AnchorPoint: "Anchor-1" 265 714 basechar 0
AnchorPoint: "Anchor-0" 265 0 basechar 0
LayerCount: 2
Fore
SplineSet
74 0 m 1,0,-1
 74 714 l 1,1,-1
 264 714 l 2,2,3
 377 714 377 714 429.5 659.5 c 128,-1,4
 482 605 482 605 482 505 c 0,5,6
 482 441 482 441 459.5 389.5 c 128,-1,7
 437 338 437 338 387 307.5 c 128,-1,8
 337 277 337 277 253 277 c 2,9,-1
 158 277 l 1,10,-1
 158 0 l 1,11,-1
 74 0 l 1,0,-1
245 354 m 2,12,13
 320 354 320 354 357 387.5 c 128,-1,14
 394 421 394 421 394 500 c 0,15,16
 394 571 394 571 361.5 604 c 128,-1,17
 329 637 329 637 260 637 c 2,18,-1
 158 637 l 1,19,-1
 158 354 l 1,20,-1
 245 354 l 2,12,13
EndSplineSet
Validated: 1048577
Substitution2: "'c2sc' Capitals to Small Capitals lookup 34 subtable" p.sc
Substitution2: "'aalt' Access All Alternates lookup 0 subtable" p.sc
EndChar

StartChar: Q
Encoding: 81 81 52
Width: 530
GlyphClass: 2
Flags: W
AnchorPoint: "Anchor-3" 265 357 basechar 0
AnchorPoint: "Anchor-2" 530 714 basechar 0
AnchorPoint: "Anchor-1" 265 714 basechar 0
AnchorPoint: "Anchor-0" 265 -220 basechar 0
LayerCount: 2
Fore
SplineSet
265 -10 m 0,0,1
 179 -10 179 -10 127.5 39 c 128,-1,2
 76 88 76 88 53.5 171.5 c 128,-1,3
 31 255 31 255 31 358 c 0,4,5
 31 533 31 533 88 629.5 c 128,-1,6
 145 726 145 726 265 726 c 0,7,8
 349 726 349 726 400.5 677.5 c 128,-1,9
 452 629 452 629 475.5 546 c 128,-1,10
 499 463 499 463 499 358 c 0,11,12
 499 248 499 248 474 161.5 c 128,-1,13
 449 75 449 75 391 30 c 1,14,-1
 491 -180 l 1,15,-1
 398 -180 l 1,16,-1
 318 -4 l 1,17,18
 293 -10 293 -10 265 -10 c 0,0,1
266 67 m 256,19,20
 342 67 342 67 377 141.5 c 128,-1,21
 412 216 412 216 412 358 c 0,22,23
 412 499 412 499 376.5 574.5 c 128,-1,24
 341 650 341 650 266 650 c 0,25,26
 186 650 186 650 152 574 c 128,-1,27
 118 498 118 498 118 358 c 256,28,29
 118 218 118 218 154 142.5 c 128,-1,30
 190 67 190 67 266 67 c 256,19,20
EndSplineSet
Validated: 1
Substitution2: "'c2sc' Capitals to Small Capitals lookup 34 subtable" q.sc
Substitution2: "'aalt' Access All Alternates lookup 0 subtable" q.sc
EndChar

StartChar: R
Encoding: 82 82 53
Width: 530
GlyphClass: 2
Flags: W
AnchorPoint: "Anchor-2" 510 714 basechar 0
AnchorPoint: "Anchor-1" 265 714 basechar 0
AnchorPoint: "Anchor-0" 282 0 basechar 0
LayerCount: 2
Fore
SplineSet
74 0 m 1,0,-1
 74 714 l 1,1,-1
 234 714 l 2,2,3
 459 714 459 714 459 512 c 0,4,5
 459 427 459 427 424.5 381.5 c 128,-1,6
 390 336 390 336 341 317 c 1,7,-1
 507 0 l 1,8,-1
 412 0 l 1,9,-1
 263 293 l 1,10,-1
 158 293 l 1,11,-1
 158 0 l 1,12,-1
 74 0 l 1,0,-1
232 369 m 2,13,14
 304 369 304 369 337 404 c 128,-1,15
 370 439 370 439 370 507 c 0,16,17
 370 577 370 577 335 607.5 c 128,-1,18
 300 638 300 638 229 638 c 2,19,-1
 158 638 l 1,20,-1
 158 369 l 1,21,-1
 232 369 l 2,13,14
EndSplineSet
Validated: 1048577
Substitution2: "'c2sc' Capitals to Small Capitals lookup 34 subtable" r.sc
Substitution2: "'aalt' Access All Alternates lookup 0 subtable" r.sc
EndChar

StartChar: S
Encoding: 83 83 54
Width: 530
GlyphClass: 2
Flags: W
AnchorPoint: "Anchor-2" 510 714 basechar 0
AnchorPoint: "Anchor-1" 278 714 basechar 0
AnchorPoint: "Anchor-0" 265 0 basechar 0
LayerCount: 2
Fore
SplineSet
238 -10 m 0,0,1
 191 -10 191 -10 145 -0.5 c 128,-1,2
 99 9 99 9 68 25 c 1,3,-1
 68 104 l 1,4,5
 105 87 105 87 149.5 76.5 c 128,-1,6
 194 66 194 66 237 66 c 0,7,8
 312 66 312 66 346 101 c 128,-1,9
 380 136 380 136 380 189 c 0,10,11
 380 226 380 226 364.5 248.5 c 128,-1,12
 349 271 349 271 317 290 c 128,-1,13
 285 309 285 309 236 333 c 0,14,15
 194 353 194 353 158 378.5 c 128,-1,16
 122 404 122 404 99.5 442 c 128,-1,17
 77 480 77 480 77 538 c 0,18,19
 77 633 77 633 134 679 c 128,-1,20
 191 725 191 725 284 725 c 0,21,22
 330 725 330 725 373.5 715 c 128,-1,23
 417 705 417 705 456 687 c 1,24,-1
 426 615 l 1,25,26
 394 630 394 630 357.5 639.5 c 128,-1,27
 321 649 321 649 285 649 c 0,28,29
 224 649 224 649 193.5 620.5 c 128,-1,30
 163 592 163 592 163 540 c 0,31,32
 163 503 163 503 178.5 479.5 c 128,-1,33
 194 456 194 456 224 438 c 128,-1,34
 254 420 254 420 298 398 c 0,35,36
 347 374 347 374 385 349.5 c 128,-1,37
 423 325 423 325 445 288.5 c 128,-1,38
 467 252 467 252 467 193 c 0,39,40
 467 95 467 95 406.5 42.5 c 128,-1,41
 346 -10 346 -10 238 -10 c 0,0,1
EndSplineSet
Validated: 1048577
Substitution2: "'c2sc' Capitals to Small Capitals lookup 34 subtable" s.sc
Substitution2: "'aalt' Access All Alternates lookup 0 subtable" s.sc
EndChar

StartChar: T
Encoding: 84 84 55
Width: 530
GlyphClass: 2
Flags: W
AnchorPoint: "Anchor-3" 265 357 basechar 0
AnchorPoint: "Anchor-2" 510 714 basechar 0
AnchorPoint: "Anchor-1" 265 714 basechar 0
AnchorPoint: "Anchor-0" 265 0 basechar 0
LayerCount: 2
Fore
SplineSet
221 0 m 1,0,-1
 221 635 l 1,1,-1
 38 635 l 1,2,-1
 38 714 l 1,3,-1
 492 714 l 1,4,-1
 492 635 l 1,5,-1
 307 635 l 1,6,-1
 307 0 l 1,7,-1
 221 0 l 1,0,-1
EndSplineSet
Validated: 1
Substitution2: "'c2sc' Capitals to Small Capitals lookup 34 subtable" t.sc
Substitution2: "'aalt' Access All Alternates lookup 0 subtable" t.sc
EndChar

StartChar: U
Encoding: 85 85 56
Width: 530
GlyphClass: 2
Flags: W
AnchorPoint: "Anchor-2" 510 714 basechar 0
AnchorPoint: "Anchor-1" 265 714 basechar 0
AnchorPoint: "Anchor-0" 265 0 basechar 0
LayerCount: 2
Fore
SplineSet
265 -10 m 0,0,1
 157 -10 157 -10 105 51 c 128,-1,2
 53 112 53 112 53 230 c 2,3,-1
 53 714 l 1,4,-1
 138 714 l 1,5,-1
 138 233 l 2,6,7
 138 149 138 149 169 108 c 128,-1,8
 200 67 200 67 266 67 c 0,9,10
 333 67 333 67 362.5 109 c 128,-1,11
 392 151 392 151 392 234 c 2,12,-1
 392 714 l 1,13,-1
 478 714 l 1,14,-1
 478 229 l 2,15,16
 478 113 478 113 426.5 51.5 c 128,-1,17
 375 -10 375 -10 265 -10 c 0,0,1
EndSplineSet
Validated: 1048577
Substitution2: "'c2sc' Capitals to Small Capitals lookup 34 subtable" u.sc
Substitution2: "'aalt' Access All Alternates lookup 0 subtable" u.sc
EndChar

StartChar: V
Encoding: 86 86 57
Width: 530
GlyphClass: 2
Flags: W
AnchorPoint: "Anchor-2" 510 714 basechar 0
AnchorPoint: "Anchor-1" 265 714 basechar 0
AnchorPoint: "Anchor-0" 265 0 basechar 0
LayerCount: 2
Fore
SplineSet
220 0 m 1,0,-1
 18 714 l 1,1,-1
 102 714 l 1,2,-1
 227 251 l 2,3,4
 238 206 238 206 248 162 c 128,-1,5
 258 118 258 118 264 83 c 1,6,-1
 266 83 l 1,7,8
 272 118 272 118 281.5 162.5 c 128,-1,9
 291 207 291 207 303 254 c 2,10,-1
 428 714 l 1,11,-1
 512 714 l 1,12,-1
 309 0 l 1,13,-1
 220 0 l 1,0,-1
EndSplineSet
Validated: 1048577
Substitution2: "'c2sc' Capitals to Small Capitals lookup 34 subtable" v.sc
Substitution2: "'aalt' Access All Alternates lookup 0 subtable" v.sc
EndChar

StartChar: W
Encoding: 87 87 58
Width: 530
GlyphClass: 2
Flags: W
AnchorPoint: "Anchor-2" 510 714 basechar 0
AnchorPoint: "Anchor-1" 265 714 basechar 0
AnchorPoint: "Anchor-0" 265 0 basechar 0
LayerCount: 2
Fore
SplineSet
85 0 m 1,0,-1
 18 714 l 1,1,-1
 91 714 l 1,2,3
 98 635 98 635 105.5 555.5 c 128,-1,4
 113 476 113 476 120 397 c 0,5,6
 122 369 122 369 125.5 324 c 128,-1,7
 129 279 129 279 132 230.5 c 128,-1,8
 135 182 135 182 137 142 c 128,-1,9
 139 102 139 102 139 85 c 1,10,-1
 142 85 l 1,11,12
 145 107 145 107 151 147 c 128,-1,13
 157 187 157 187 164 229.5 c 128,-1,14
 171 272 171 272 177 303 c 2,15,-1
 222 536 l 1,16,-1
 308 536 l 1,17,-1
 356 301 l 2,18,19
 363 267 363 267 370.5 225 c 128,-1,20
 378 183 378 183 383.5 145.5 c 128,-1,21
 389 108 389 108 392 85 c 1,22,-1
 396 85 l 1,23,24
 396 102 396 102 397.5 142 c 128,-1,25
 399 182 399 182 401 230.5 c 128,-1,26
 403 279 403 279 405 324.5 c 128,-1,27
 407 370 407 370 410 399 c 0,28,29
 416 478 416 478 422 556.5 c 128,-1,30
 428 635 428 635 435 714 c 1,31,-1
 512 714 l 1,32,-1
 450 0 l 1,33,-1
 351 0 l 1,34,-1
 289 327 l 2,35,36
 281 372 281 372 275.5 400 c 128,-1,37
 270 428 270 428 267 446 c 1,38,-1
 264 446 l 1,39,40
 261 428 261 428 256.5 400 c 128,-1,41
 252 372 252 372 243 327 c 2,42,-1
 183 0 l 1,43,-1
 85 0 l 1,0,-1
EndSplineSet
Validated: 1048577
Substitution2: "'c2sc' Capitals to Small Capitals lookup 34 subtable" w.sc
Substitution2: "'aalt' Access All Alternates lookup 0 subtable" w.sc
EndChar

StartChar: X
Encoding: 88 88 59
Width: 530
GlyphClass: 2
Flags: W
AnchorPoint: "Anchor-2" 510 714 basechar 0
AnchorPoint: "Anchor-1" 265 714 basechar 0
AnchorPoint: "Anchor-0" 265 0 basechar 0
LayerCount: 2
Fore
SplineSet
25 0 m 1,0,-1
 217 372 l 1,1,-1
 38 714 l 1,2,-1
 131 714 l 1,3,-1
 265 443 l 1,4,-1
 400 714 l 1,5,-1
 492 714 l 1,6,-1
 309 369 l 1,7,-1
 506 0 l 1,8,-1
 413 0 l 1,9,-1
 262 300 l 1,10,-1
 116 0 l 1,11,-1
 25 0 l 1,0,-1
EndSplineSet
Validated: 1048577
Substitution2: "'c2sc' Capitals to Small Capitals lookup 34 subtable" x.sc
Substitution2: "'aalt' Access All Alternates lookup 0 subtable" x.sc
EndChar

StartChar: Y
Encoding: 89 89 60
Width: 530
GlyphClass: 2
Flags: W
AnchorPoint: "Anchor-2" 510 714 basechar 0
AnchorPoint: "Anchor-1" 265 714 basechar 0
AnchorPoint: "Anchor-0" 265 0 basechar 0
LayerCount: 2
Fore
SplineSet
223 0 m 1,0,-1
 223 275 l 1,1,-1
 25 714 l 1,2,-1
 118 714 l 1,3,-1
 265 352 l 1,4,-1
 414 714 l 1,5,-1
 506 714 l 1,6,-1
 306 275 l 1,7,-1
 306 0 l 1,8,-1
 223 0 l 1,0,-1
EndSplineSet
Validated: 1048577
Substitution2: "'c2sc' Capitals to Small Capitals lookup 34 subtable" y.sc
Substitution2: "'aalt' Access All Alternates lookup 0 subtable" y.sc
EndChar

StartChar: Z
Encoding: 90 90 61
Width: 530
GlyphClass: 2
Flags: W
AnchorPoint: "Anchor-2" 510 714 basechar 0
AnchorPoint: "Anchor-1" 276 714 basechar 0
AnchorPoint: "Anchor-0" 283 0 basechar 0
LayerCount: 2
Fore
SplineSet
74 0 m 1,0,-1
 74 70 l 1,1,-1
 367 636 l 1,2,-1
 89 636 l 1,3,-1
 89 714 l 1,4,-1
 458 714 l 1,5,-1
 458 644 l 1,6,-1
 168 79 l 1,7,-1
 463 79 l 1,8,-1
 463 0 l 1,9,-1
 74 0 l 1,0,-1
EndSplineSet
Validated: 1048577
Substitution2: "'c2sc' Capitals to Small Capitals lookup 34 subtable" z.sc
Substitution2: "'aalt' Access All Alternates lookup 0 subtable" z.sc
EndChar

StartChar: bracketleft
Encoding: 91 91 62
Width: 530
Flags: W
LayerCount: 2
Fore
SplineSet
199 -160 m 1,0,-1
 199 718 l 1,1,-1
 413 718 l 1,2,-1
 413 649 l 1,3,-1
 278 649 l 1,4,-1
 278 -91 l 1,5,-1
 413 -91 l 1,6,-1
 413 -160 l 1,7,-1
 199 -160 l 1,0,-1
EndSplineSet
Validated: 1
Substitution2: "'smcp' Lowercase to Small Capitals lookup 35 subtable" bracketleft.sc
Substitution2: "'c2sc' Capitals to Small Capitals lookup 34 subtable" bracketleft.sc
Substitution2: "'aalt' Access All Alternates lookup 0 subtable" bracketleft.sc
EndChar

StartChar: asciicircum
Encoding: 94 94 65
Width: 530
Flags: W
LayerCount: 2
Fore
SplineSet
45 313 m 1,0,-1
 237 715 l 1,1,-1
 285 715 l 1,2,-1
 484 313 l 1,3,-1
 406 313 l 1,4,-1
 261 614 l 1,5,-1
 123 313 l 1,6,-1
 45 313 l 1,0,-1
EndSplineSet
Validated: 1
EndChar

StartChar: underscore
Encoding: 95 95 66
Width: 530
Flags: W
LayerCount: 2
Fore
SplineSet
0 -156 m 1,0,-1
 0 -77 l 1,1,-1
 530 -77 l 1,2,-1
 530 -156 l 1,3,-1
 0 -156 l 1,0,-1
EndSplineSet
Validated: 1
EndChar

StartChar: grave
Encoding: 96 96 67
Width: 530
Flags: W
LayerCount: 2
Fore
SplineSet
267 606 m 1,0,1
 246 623 246 623 219 651 c 128,-1,2
 192 679 192 679 167.5 707.5 c 128,-1,3
 143 736 143 736 131 757 c 1,4,-1
 131 766 l 1,5,-1
 230 766 l 1,6,7
 241 743 241 743 257 715.5 c 128,-1,8
 273 688 273 688 290 662 c 128,-1,9
 307 636 307 636 321 617 c 1,10,-1
 321 606 l 1,11,-1
 267 606 l 1,0,1
EndSplineSet
Validated: 1
EndChar

StartChar: a
Encoding: 97 97 68
Width: 530
GlyphClass: 2
Flags: W
AnchorPoint: "Anchor-2" 510 536 basechar 0
AnchorPoint: "Anchor-1" 277 536 basechar 0
AnchorPoint: "Anchor-0" 266 0 basechar 0
LayerCount: 2
Fore
SplineSet
220 -10 m 0,0,1
 152 -10 152 -10 107.5 29 c 128,-1,2
 63 68 63 68 63 149 c 0,3,4
 63 234 63 234 118 275.5 c 128,-1,5
 173 317 173 317 279 320 c 2,6,-1
 380 323 l 1,7,-1
 380 354 l 2,8,9
 380 421 380 421 347.5 447.5 c 128,-1,10
 315 474 315 474 264 474 c 0,11,12
 226 474 226 474 190 462 c 128,-1,13
 154 450 154 450 123 432 c 1,14,-1
 93 499 l 1,15,16
 132 520 132 520 174 533.5 c 128,-1,17
 216 547 216 547 269 547 c 0,18,19
 361 547 361 547 411 502.5 c 128,-1,20
 461 458 461 458 461 365 c 2,21,-1
 461 0 l 1,22,-1
 396 0 l 1,23,-1
 380 75 l 1,24,-1
 377 75 l 1,25,26
 348 34 348 34 310 12 c 128,-1,27
 272 -10 272 -10 220 -10 c 0,0,1
240 63 m 0,28,29
 276 63 276 63 307.5 79 c 128,-1,30
 339 95 339 95 359 128.5 c 128,-1,31
 379 162 379 162 379 214 c 2,32,-1
 379 262 l 1,33,-1
 299 259 l 2,34,35
 220 256 220 256 184.5 229 c 128,-1,36
 149 202 149 202 149 151 c 0,37,38
 149 104 149 104 175 83.5 c 128,-1,39
 201 63 201 63 240 63 c 0,28,29
EndSplineSet
Validated: 1048577
Substitution2: "'smcp' Lowercase to Small Capitals lookup 35 subtable" a.sc
Substitution2: "Single Substitution lookup 32 subtable" ordfeminine
AlternateSubs2: "'aalt' Access All Alternates lookup 1 subtable" ordfeminine a.sc
EndChar

StartChar: b
Encoding: 98 98 69
Width: 530
GlyphClass: 2
Flags: W
AnchorPoint: "Anchor-2" 510 760 basechar 0
AnchorPoint: "Anchor-1" 265 760 basechar 0
AnchorPoint: "Anchor-0" 265 0 basechar 0
LayerCount: 2
Fore
SplineSet
296 -10 m 0,0,1
 246 -10 246 -10 210 11.5 c 128,-1,2
 174 33 174 33 149 68 c 1,3,-1
 143 68 l 1,4,-1
 130 0 l 1,5,-1
 66 0 l 1,6,-1
 66 760 l 1,7,-1
 150 760 l 1,8,-1
 150 576 l 2,9,10
 150 548 150 548 149.5 520.5 c 128,-1,11
 149 493 149 493 146 465 c 1,12,-1
 150 465 l 1,13,14
 172 499 172 499 207.5 523 c 128,-1,15
 243 547 243 547 297 547 c 0,16,17
 384 547 384 547 435 476.5 c 128,-1,18
 486 406 486 406 486 269 c 256,19,20
 486 132 486 132 434.5 61 c 128,-1,21
 383 -10 383 -10 296 -10 c 0,0,1
274 63 m 0,22,23
 336 63 336 63 367 115.5 c 128,-1,24
 398 168 398 168 398 268 c 0,25,26
 398 474 398 474 273 474 c 0,27,28
 213 474 213 474 181.5 423.5 c 128,-1,29
 150 373 150 373 150 273 c 0,30,31
 150 63 150 63 274 63 c 0,22,23
EndSplineSet
Validated: 1048577
Substitution2: "'smcp' Lowercase to Small Capitals lookup 35 subtable" b.sc
Substitution2: "'aalt' Access All Alternates lookup 0 subtable" b.sc
EndChar

StartChar: c
Encoding: 99 99 70
Width: 530
GlyphClass: 2
Flags: W
AnchorPoint: "Anchor-2" 510 536 basechar 0
AnchorPoint: "Anchor-1" 298 536 basechar 0
AnchorPoint: "Anchor-0" 303 0 basechar 0
LayerCount: 2
Fore
SplineSet
311 -10 m 0,0,1
 203 -10 203 -10 139 54.5 c 128,-1,2
 75 119 75 119 75 265 c 0,3,4
 75 367 75 367 106 429 c 128,-1,5
 137 491 137 491 191.5 519 c 128,-1,6
 246 547 246 547 315 547 c 0,7,8
 394 547 394 547 460 515 c 1,9,-1
 433 444 l 1,10,11
 404 460 404 460 377.5 466 c 128,-1,12
 351 472 351 472 320 472 c 0,13,14
 240 472 240 472 201 421.5 c 128,-1,15
 162 371 162 371 162 266 c 0,16,17
 162 160 162 160 201.5 112 c 128,-1,18
 241 64 241 64 317 64 c 0,19,20
 354 64 354 64 388 73 c 128,-1,21
 422 82 422 82 451 96 c 1,22,-1
 451 20 l 1,23,24
 422 6 422 6 386 -2 c 128,-1,25
 350 -10 350 -10 311 -10 c 0,0,1
EndSplineSet
Validated: 1048577
Substitution2: "'smcp' Lowercase to Small Capitals lookup 35 subtable" c.sc
Substitution2: "'aalt' Access All Alternates lookup 0 subtable" c.sc
EndChar

StartChar: d
Encoding: 100 100 71
Width: 530
GlyphClass: 2
Flags: W
AnchorPoint: "Anchor-3" 265 268 basechar 0
AnchorPoint: "Anchor-2" 510 760 basechar 0
AnchorPoint: "Anchor-1" 265 760 basechar 0
AnchorPoint: "Anchor-0" 265 0 basechar 0
LayerCount: 2
Fore
SplineSet
237 -10 m 0,0,1
 149 -10 149 -10 97 60 c 128,-1,2
 45 130 45 130 45 268 c 0,3,4
 45 404 45 404 96.5 475.5 c 128,-1,5
 148 547 148 547 241 547 c 0,6,7
 292 547 292 547 326.5 524 c 128,-1,8
 361 501 361 501 381 467 c 1,9,-1
 386 467 l 1,10,11
 380 508 380 508 380 547 c 2,12,-1
 380 760 l 1,13,-1
 464 760 l 1,14,-1
 464 0 l 1,15,-1
 398 0 l 1,16,-1
 384 72 l 1,17,-1
 380 72 l 1,18,19
 360 38 360 38 325.5 14 c 128,-1,20
 291 -10 291 -10 237 -10 c 0,0,1
260 63 m 0,21,22
 326 63 326 63 353.5 112.5 c 128,-1,23
 381 162 381 162 381 247 c 2,24,-1
 381 267 l 2,25,26
 381 362 381 362 356 418 c 128,-1,27
 331 474 331 474 263 474 c 0,28,29
 132 474 132 474 132 260 c 0,30,31
 132 162 132 162 161.5 112.5 c 128,-1,32
 191 63 191 63 260 63 c 0,21,22
EndSplineSet
Validated: 1
Substitution2: "'smcp' Lowercase to Small Capitals lookup 35 subtable" d.sc
Substitution2: "'aalt' Access All Alternates lookup 0 subtable" d.sc
EndChar

StartChar: e
Encoding: 101 101 72
Width: 530
GlyphClass: 2
Flags: W
AnchorPoint: "Anchor-2" 510 536 basechar 0
AnchorPoint: "Anchor-1" 269 536 basechar 0
AnchorPoint: "Anchor-0" 275 0 basechar 0
LayerCount: 2
Fore
SplineSet
301 -10 m 0,0,1
 184 -10 184 -10 117 61 c 128,-1,2
 50 132 50 132 50 265 c 0,3,4
 50 397 50 397 110 472 c 128,-1,5
 170 547 170 547 273 547 c 0,6,7
 339 547 339 547 385 516 c 128,-1,8
 431 485 431 485 456 429.5 c 128,-1,9
 481 374 481 374 481 300 c 2,10,-1
 481 250 l 1,11,-1
 136 250 l 1,12,13
 139 153 139 153 182 108 c 128,-1,14
 225 63 225 63 304 63 c 0,15,16
 345 63 345 63 382 74.5 c 128,-1,17
 419 86 419 86 459 105 c 1,18,-1
 459 27 l 1,19,20
 383 -10 383 -10 301 -10 c 0,0,1
396 321 m 1,21,22
 395 389 395 389 363.5 431.5 c 128,-1,23
 332 474 332 474 272 474 c 0,24,25
 214 474 214 474 179.5 433.5 c 128,-1,26
 145 393 145 393 138 321 c 1,27,-1
 396 321 l 1,21,22
EndSplineSet
Validated: 1048577
Substitution2: "'smcp' Lowercase to Small Capitals lookup 35 subtable" e.sc
Substitution2: "'aalt' Access All Alternates lookup 0 subtable" e.sc
EndChar

StartChar: f
Encoding: 102 102 73
Width: 530
GlyphClass: 2
Flags: W
AnchorPoint: "Anchor-2" 537 765 basechar 0
AnchorPoint: "Anchor-1" 348 764 basechar 0
AnchorPoint: "Anchor-0" 265 0 basechar 0
LayerCount: 2
Fore
SplineSet
205 0 m 1,0,-1
 205 463 l 1,1,-1
 55 463 l 1,2,-1
 55 523 l 1,3,-1
 205 538 l 1,4,-1
 205 589 l 2,5,6
 205 657 205 657 224.5 695 c 128,-1,7
 244 733 244 733 282 749 c 128,-1,8
 320 765 320 765 374 765 c 0,9,10
 409 765 409 765 439.5 760 c 128,-1,11
 470 755 470 755 493 747 c 1,12,-1
 473 679 l 1,13,14
 452 686 452 686 428.5 689.5 c 128,-1,15
 405 693 405 693 383 693 c 0,16,17
 337 693 337 693 313 671.5 c 128,-1,18
 289 650 289 650 289 586 c 2,19,-1
 289 536 l 1,20,-1
 470 536 l 1,21,-1
 470 463 l 1,22,-1
 289 463 l 1,23,-1
 289 0 l 1,24,-1
 205 0 l 1,0,-1
EndSplineSet
Validated: 1048577
Substitution2: "'smcp' Lowercase to Small Capitals lookup 35 subtable" f.sc
Substitution2: "'aalt' Access All Alternates lookup 0 subtable" f.sc
EndChar

StartChar: g
Encoding: 103 103 74
Width: 530
GlyphClass: 2
Flags: W
AnchorPoint: "Anchor-2" 510 536 basechar 0
AnchorPoint: "Anchor-1" 265 536 basechar 0
AnchorPoint: "Anchor-0" 265 -245 basechar 0
LayerCount: 2
Fore
SplineSet
244 -245 m 0,0,1
 152 -245 152 -245 78 -210 c 1,2,-1
 78 -130 l 1,3,4
 115 -150 115 -150 161 -161 c 128,-1,5
 207 -172 207 -172 244 -172 c 0,6,7
 317 -172 317 -172 349 -130.5 c 128,-1,8
 381 -89 381 -89 381 -19 c 2,9,-1
 381 5 l 2,10,11
 381 17 381 17 382 36 c 128,-1,12
 383 55 383 55 384 68 c 1,13,-1
 381 68 l 1,14,15
 357 27 357 27 321.5 9 c 128,-1,16
 286 -9 286 -9 241 -9 c 0,17,18
 149 -9 149 -9 97 63 c 128,-1,19
 45 135 45 135 45 266 c 0,20,21
 45 396 45 396 96.5 471.5 c 128,-1,22
 148 547 148 547 239 547 c 0,23,24
 332 547 332 547 381 467 c 1,25,-1
 386 467 l 1,26,-1
 396 536 l 1,27,-1
 464 536 l 1,28,-1
 464 -14 l 2,29,30
 464 -245 464 -245 244 -245 c 0,0,1
265 63 m 0,31,32
 324 63 324 63 354.5 107 c 128,-1,33
 385 151 385 151 385 246 c 2,34,-1
 385 267 l 2,35,36
 385 375 385 375 354 424.5 c 128,-1,37
 323 474 323 474 262 474 c 0,38,39
 196 474 196 474 164 420 c 128,-1,40
 132 366 132 366 132 267 c 0,41,42
 132 167 132 167 165 115 c 128,-1,43
 198 63 198 63 265 63 c 0,31,32
EndSplineSet
Validated: 1048577
Substitution2: "'smcp' Lowercase to Small Capitals lookup 35 subtable" g.sc
Substitution2: "'aalt' Access All Alternates lookup 0 subtable" g.sc
EndChar

StartChar: h
Encoding: 104 104 75
Width: 530
GlyphClass: 2
Flags: W
AnchorPoint: "Anchor-3" 265 268 basechar 0
AnchorPoint: "Anchor-2" 510 760 basechar 0
AnchorPoint: "Anchor-1" 108 760 basechar 0
AnchorPoint: "Anchor-0" 265 0 basechar 0
LayerCount: 2
Fore
SplineSet
66 0 m 1,0,-1
 66 760 l 1,1,-1
 150 760 l 1,2,-1
 150 536 l 2,3,4
 150 518 150 518 148.5 497 c 128,-1,5
 147 476 147 476 146 459 c 1,6,-1
 151 459 l 1,7,8
 173 500 173 500 209 523.5 c 128,-1,9
 245 547 245 547 298 547 c 0,10,11
 373 547 373 547 421 500 c 128,-1,12
 469 453 469 453 469 350 c 2,13,-1
 469 0 l 1,14,-1
 385 0 l 1,15,-1
 385 333 l 2,16,17
 385 474 385 474 278 474 c 0,18,19
 215 474 215 474 182.5 422.5 c 128,-1,20
 150 371 150 371 150 279 c 2,21,-1
 150 0 l 1,22,-1
 66 0 l 1,0,-1
EndSplineSet
Validated: 1
Substitution2: "'smcp' Lowercase to Small Capitals lookup 35 subtable" h.sc
Substitution2: "'subs' Subscript lookup 22 subtable" uni2095
AlternateSubs2: "'aalt' Access All Alternates lookup 1 subtable" h.sc uni2095
EndChar

StartChar: i
Encoding: 105 105 76
Width: 530
GlyphClass: 2
Flags: W
AnchorPoint: "Anchor-3" 275 286 basechar 0
AnchorPoint: "Anchor-2" 436 764 basechar 0
AnchorPoint: "Anchor-1" 269 764 basechar 0
AnchorPoint: "Anchor-0" 279 0 basechar 0
LayerCount: 2
Fore
SplineSet
269 633 m 0,0,1
 242 633 242 633 226 649 c 128,-1,2
 210 665 210 665 210 697 c 0,3,4
 210 731 210 731 226.5 747.5 c 128,-1,5
 243 764 243 764 269 764 c 0,6,7
 294 764 294 764 310.5 747.5 c 128,-1,8
 327 731 327 731 327 697 c 0,9,10
 327 665 327 665 310.5 649 c 128,-1,11
 294 633 294 633 269 633 c 0,0,1
77 0 m 1,12,-1
 77 59 l 1,13,-1
 233 71 l 1,14,-1
 233 462 l 1,15,-1
 85 476 l 1,16,-1
 85 536 l 1,17,-1
 317 536 l 1,18,-1
 317 71 l 1,19,-1
 460 59 l 1,20,-1
 460 0 l 1,21,-1
 77 0 l 1,12,-1
EndSplineSet
Validated: 1
Substitution2: "'smcp' Lowercase to Small Capitals lookup 35 subtable" i.sc
Substitution2: "Single Substitution lookup 5 subtable" dotlessi
Substitution2: "Single Substitution lookup 4 subtable" dotlessi
AlternateSubs2: "'aalt' Access All Alternates lookup 1 subtable" dotlessi i.sc
EndChar

StartChar: j
Encoding: 106 106 77
Width: 530
GlyphClass: 2
Flags: W
AnchorPoint: "Anchor-2" 457 764 basechar 0
AnchorPoint: "Anchor-1" 302 764 basechar 0
AnchorPoint: "Anchor-0" 193 -245 basechar 0
LayerCount: 2
Fore
SplineSet
303 633 m 0,0,1
 277 633 277 633 261 649 c 128,-1,2
 245 665 245 665 245 698 c 256,3,4
 245 731 245 731 261 747.5 c 128,-1,5
 277 764 277 764 303 764 c 0,6,7
 328 764 328 764 345 748 c 128,-1,8
 362 732 362 732 362 698 c 0,9,10
 362 665 362 665 345 649 c 128,-1,11
 328 633 328 633 303 633 c 0,0,1
170 -245 m 0,12,13
 139 -245 139 -245 106.5 -240 c 128,-1,14
 74 -235 74 -235 50 -228 c 1,15,-1
 50 -152 l 1,16,17
 74 -160 74 -160 105.5 -165.5 c 128,-1,18
 137 -171 137 -171 163 -171 c 0,19,20
 271 -171 271 -171 271 -59 c 2,21,-1
 271 462 l 1,22,-1
 97 476 l 1,23,-1
 97 536 l 1,24,-1
 355 536 l 1,25,-1
 355 -59 l 2,26,27
 355 -152 355 -152 306.5 -198.5 c 128,-1,28
 258 -245 258 -245 170 -245 c 0,12,13
EndSplineSet
Validated: 1048577
Substitution2: "'smcp' Lowercase to Small Capitals lookup 35 subtable" j.sc
Substitution2: "Single Substitution lookup 5 subtable" uni0237
Substitution2: "Single Substitution lookup 4 subtable" uni0237
AlternateSubs2: "'aalt' Access All Alternates lookup 1 subtable" uni0237 j.sc
EndChar

StartChar: k
Encoding: 107 107 78
Width: 530
GlyphClass: 2
Flags: W
AnchorPoint: "Anchor-2" 451 839 basechar 0
AnchorPoint: "Anchor-1" 298 760 basechar 0
AnchorPoint: "Anchor-0" 293 0 basechar 0
LayerCount: 2
Fore
SplineSet
77 0 m 1,0,-1
 77 760 l 1,1,-1
 161 760 l 1,2,-1
 161 405 l 2,3,4
 161 371 161 371 159.5 336.5 c 128,-1,5
 158 302 158 302 155 265 c 1,6,-1
 156 265 l 1,7,8
 171 286 171 286 184.5 303 c 128,-1,9
 198 320 198 320 215 339 c 2,10,-1
 388 536 l 1,11,-1
 492 536 l 1,12,-1
 284 304 l 1,13,-1
 505 0 l 1,14,-1
 404 0 l 1,15,-1
 226 245 l 1,16,-1
 161 191 l 1,17,-1
 161 0 l 1,18,-1
 77 0 l 1,0,-1
EndSplineSet
Validated: 1048577
Substitution2: "'smcp' Lowercase to Small Capitals lookup 35 subtable" k.sc
Substitution2: "'subs' Subscript lookup 22 subtable" uni2096
AlternateSubs2: "'aalt' Access All Alternates lookup 1 subtable" k.sc uni2096
EndChar

StartChar: l
Encoding: 108 108 79
Width: 530
GlyphClass: 2
Flags: W
AnchorPoint: "Anchor-3" 273 375 basechar 0
AnchorPoint: "Anchor-2" 436 760 basechar 0
AnchorPoint: "Anchor-1" 265 760 basechar 0
AnchorPoint: "Anchor-0" 273 0 basechar 0
LayerCount: 2
Fore
SplineSet
77 0 m 1,0,-1
 77 59 l 1,1,-1
 230 71 l 1,2,-1
 230 689 l 1,3,-1
 80 700 l 1,4,-1
 80 760 l 1,5,-1
 314 760 l 1,6,-1
 314 71 l 1,7,-1
 460 59 l 1,8,-1
 460 0 l 1,9,-1
 77 0 l 1,0,-1
EndSplineSet
Validated: 1
Substitution2: "'smcp' Lowercase to Small Capitals lookup 35 subtable" l.sc
Substitution2: "'subs' Subscript lookup 22 subtable" uni2097
AlternateSubs2: "'aalt' Access All Alternates lookup 1 subtable" l.sc uni2097
EndChar

StartChar: m
Encoding: 109 109 80
Width: 530
GlyphClass: 2
Flags: W
AnchorPoint: "Anchor-2" 510 536 basechar 0
AnchorPoint: "Anchor-1" 287 536 basechar 0
AnchorPoint: "Anchor-0" 269 0 basechar 0
LayerCount: 2
Fore
SplineSet
33 0 m 1,0,-1
 33 536 l 1,1,-1
 92 536 l 1,2,-1
 104 481 l 1,3,-1
 109 481 l 1,4,5
 124 516 124 516 147.5 531.5 c 128,-1,6
 171 547 171 547 202 547 c 0,7,8
 240 547 240 547 260 529 c 128,-1,9
 280 511 280 511 292 475 c 1,10,-1
 295 475 l 1,11,12
 311 512 311 512 335 529.5 c 128,-1,13
 359 547 359 547 395 547 c 0,14,15
 450 547 450 547 474 508.5 c 128,-1,16
 498 470 498 470 498 386 c 2,17,-1
 498 0 l 1,18,-1
 419 0 l 1,19,-1
 419 374 l 2,20,21
 419 421 419 421 410 446.5 c 128,-1,22
 401 472 401 472 371 472 c 0,23,24
 331 472 331 472 318 429 c 128,-1,25
 305 386 305 386 305 319 c 2,26,-1
 305 0 l 1,27,-1
 225 0 l 1,28,-1
 225 374 l 2,29,30
 225 422 225 422 215.5 447 c 128,-1,31
 206 472 206 472 177 472 c 0,32,33
 149 472 149 472 135 449.5 c 128,-1,34
 121 427 121 427 116 390.5 c 128,-1,35
 111 354 111 354 111 312 c 2,36,-1
 111 0 l 1,37,-1
 33 0 l 1,0,-1
EndSplineSet
Validated: 1048577
Substitution2: "'smcp' Lowercase to Small Capitals lookup 35 subtable" m.sc
Substitution2: "'subs' Subscript lookup 22 subtable" uni2098
AlternateSubs2: "'aalt' Access All Alternates lookup 1 subtable" m.sc uni2098
EndChar

StartChar: n
Encoding: 110 110 81
Width: 530
GlyphClass: 2
Flags: W
AnchorPoint: "Anchor-2" 510 536 basechar 0
AnchorPoint: "Anchor-1" 276 536 basechar 0
AnchorPoint: "Anchor-0" 270 0 basechar 0
LayerCount: 2
Fore
SplineSet
66 0 m 1,0,-1
 66 536 l 1,1,-1
 135 536 l 1,2,-1
 147 462 l 1,3,-1
 152 462 l 1,4,5
 173 505 173 505 213 526 c 128,-1,6
 253 547 253 547 304 547 c 0,7,8
 381 547 381 547 425 500 c 128,-1,9
 469 453 469 453 469 352 c 2,10,-1
 469 0 l 1,11,-1
 385 0 l 1,12,-1
 385 345 l 2,13,14
 385 409 385 409 360.5 441.5 c 128,-1,15
 336 474 336 474 284 474 c 0,16,17
 216 474 216 474 183 423 c 128,-1,18
 150 372 150 372 150 278 c 2,19,-1
 150 0 l 1,20,-1
 66 0 l 1,0,-1
EndSplineSet
Validated: 1048577
Substitution2: "'smcp' Lowercase to Small Capitals lookup 35 subtable" n.sc
Substitution2: "'sups' Superscript lookup 23 subtable" uni207F
Substitution2: "'subs' Subscript lookup 22 subtable" uni2099
AlternateSubs2: "'aalt' Access All Alternates lookup 1 subtable" uni207F n.sc uni2099
EndChar

StartChar: o
Encoding: 111 111 82
Width: 530
GlyphClass: 2
Flags: W
AnchorPoint: "Anchor-3" 265 268 basechar 0
AnchorPoint: "Anchor-2" 510 536 basechar 0
AnchorPoint: "Anchor-1" 265 536 basechar 0
AnchorPoint: "Anchor-0" 265 0 basechar 0
LayerCount: 2
Fore
SplineSet
266 -10 m 256,0,1
 166 -10 166 -10 105.5 62 c 128,-1,2
 45 134 45 134 45 270 c 0,3,4
 45 404 45 404 104 475.5 c 128,-1,5
 163 547 163 547 263 547 c 256,6,7
 363 547 363 547 424.5 475.5 c 128,-1,8
 486 404 486 404 486 267 c 0,9,10
 486 133 486 133 426 61.5 c 128,-1,11
 366 -10 366 -10 266 -10 c 256,0,1
265 62 m 256,12,13
 330 62 330 62 364 115 c 128,-1,14
 398 168 398 168 398 268 c 0,15,16
 398 369 398 369 363.5 422 c 128,-1,17
 329 475 329 475 264 475 c 256,18,19
 199 475 199 475 165 422.5 c 128,-1,20
 131 370 131 370 131 269 c 0,21,22
 131 169 131 169 165.5 115.5 c 128,-1,23
 200 62 200 62 265 62 c 256,12,13
EndSplineSet
Validated: 1
Substitution2: "'smcp' Lowercase to Small Capitals lookup 35 subtable" o.sc
Substitution2: "Single Substitution lookup 32 subtable" ordmasculine
AlternateSubs2: "'aalt' Access All Alternates lookup 1 subtable" ordmasculine o.sc
EndChar

StartChar: p
Encoding: 112 112 83
Width: 530
GlyphClass: 2
Flags: W
AnchorPoint: "Anchor-2" 510 536 basechar 0
AnchorPoint: "Anchor-1" 289 536 basechar 0
AnchorPoint: "Anchor-0" 289 -240 basechar 0
LayerCount: 2
Fore
SplineSet
66 -240 m 1,0,-1
 66 536 l 1,1,-1
 134 536 l 1,2,-1
 147 464 l 1,3,-1
 151 464 l 1,4,5
 172 499 172 499 207.5 523 c 128,-1,6
 243 547 243 547 296 547 c 0,7,8
 384 547 384 547 435 476.5 c 128,-1,9
 486 406 486 406 486 269 c 256,10,11
 486 132 486 132 433.5 61 c 128,-1,12
 381 -10 381 -10 295 -10 c 0,13,14
 243 -10 243 -10 208 13.5 c 128,-1,15
 173 37 173 37 150 68 c 1,16,-1
 145 68 l 1,17,18
 147 53 147 53 148.5 30.5 c 128,-1,19
 150 8 150 8 150 -11 c 2,20,-1
 150 -240 l 1,21,-1
 66 -240 l 1,0,-1
276 63 m 0,22,23
 337 63 337 63 367.5 116 c 128,-1,24
 398 169 398 169 398 270 c 0,25,26
 398 474 398 474 275 474 c 0,27,28
 208 474 208 474 179 425.5 c 128,-1,29
 150 377 150 377 150 289 c 2,30,-1
 150 269 l 2,31,32
 150 172 150 172 179 117.5 c 128,-1,33
 208 63 208 63 276 63 c 0,22,23
EndSplineSet
Validated: 1048577
Substitution2: "'smcp' Lowercase to Small Capitals lookup 35 subtable" p.sc
Substitution2: "'subs' Subscript lookup 22 subtable" uni209A
AlternateSubs2: "'aalt' Access All Alternates lookup 1 subtable" p.sc uni209A
EndChar

StartChar: q
Encoding: 113 113 84
Width: 530
GlyphClass: 2
Flags: W
AnchorPoint: "Anchor-2" 510 536 basechar 0
AnchorPoint: "Anchor-1" 252 536 basechar 0
AnchorPoint: "Anchor-0" 252 -240 basechar 0
LayerCount: 2
Fore
SplineSet
380 -11 m 2,0,1
 380 30 380 30 384 72 c 1,2,-1
 380 72 l 1,3,4
 360 38 360 38 326.5 14 c 128,-1,5
 293 -10 293 -10 243 -10 c 0,6,7
 152 -10 152 -10 98.5 60.5 c 128,-1,8
 45 131 45 131 45 267 c 0,9,10
 45 404 45 404 99 475.5 c 128,-1,11
 153 547 153 547 244 547 c 0,12,13
 295 547 295 547 327 522.5 c 128,-1,14
 359 498 359 498 381 464 c 1,15,-1
 385 464 l 1,16,-1
 396 536 l 1,17,-1
 464 536 l 1,18,-1
 464 -240 l 1,19,-1
 380 -240 l 1,20,-1
 380 -11 l 2,0,1
261 63 m 0,21,22
 324 63 324 63 353 113.5 c 128,-1,23
 382 164 382 164 382 247 c 2,24,-1
 382 267 l 2,25,26
 382 362 382 362 354 418 c 128,-1,27
 326 474 326 474 262 474 c 256,28,29
 198 474 198 474 165 420.5 c 128,-1,30
 132 367 132 367 132 266 c 0,31,32
 132 167 132 167 165.5 115 c 128,-1,33
 199 63 199 63 261 63 c 0,21,22
EndSplineSet
Validated: 1048577
Substitution2: "'smcp' Lowercase to Small Capitals lookup 35 subtable" q.sc
Substitution2: "'aalt' Access All Alternates lookup 0 subtable" q.sc
EndChar

StartChar: r
Encoding: 114 114 85
Width: 530
GlyphClass: 2
Flags: W
AnchorPoint: "Anchor-2" 510 536 basechar 0
AnchorPoint: "Anchor-1" 284 536 basechar 0
AnchorPoint: "Anchor-0" 223 0 basechar 0
LayerCount: 2
Fore
SplineSet
45 0 m 1,0,-1
 45 59 l 1,1,-1
 179 71 l 1,2,-1
 179 462 l 1,3,-1
 54 476 l 1,4,-1
 54 536 l 1,5,-1
 248 536 l 1,6,-1
 257 440 l 1,7,-1
 261 440 l 1,8,9
 284 490 284 490 320 518.5 c 128,-1,10
 356 547 356 547 411 547 c 0,11,12
 457 547 457 547 501 528 c 1,13,-1
 477 447 l 1,14,15
 461 456 461 456 441 460 c 128,-1,16
 421 464 421 464 404 464 c 0,17,18
 361 464 361 464 329.5 437.5 c 128,-1,19
 298 411 298 411 281 366.5 c 128,-1,20
 264 322 264 322 264 268 c 2,21,-1
 264 71 l 1,22,-1
 399 59 l 1,23,-1
 399 0 l 1,24,-1
 45 0 l 1,0,-1
EndSplineSet
Validated: 1048577
Substitution2: "'smcp' Lowercase to Small Capitals lookup 35 subtable" r.sc
Substitution2: "'aalt' Access All Alternates lookup 0 subtable" r.sc
EndChar

StartChar: s
Encoding: 115 115 86
Width: 530
GlyphClass: 2
Flags: W
AnchorPoint: "Anchor-2" 510 536 basechar 0
AnchorPoint: "Anchor-1" 271 536 basechar 0
AnchorPoint: "Anchor-0" 271 0 basechar 0
LayerCount: 2
Fore
SplineSet
246 -10 m 0,0,1
 148 -10 148 -10 87 24 c 1,2,-1
 87 104 l 1,3,4
 120 87 120 87 161 74.5 c 128,-1,5
 202 62 202 62 252 62 c 0,6,7
 316 62 316 62 340 83.5 c 128,-1,8
 364 105 364 105 364 141 c 0,9,10
 364 162 364 162 355 176 c 128,-1,11
 346 190 346 190 319.5 205 c 128,-1,12
 293 220 293 220 244 244 c 0,13,14
 199 266 199 266 165.5 286.5 c 128,-1,15
 132 307 132 307 113 334.5 c 128,-1,16
 94 362 94 362 94 404 c 0,17,18
 94 475 94 475 144.5 511 c 128,-1,19
 195 547 195 547 286 547 c 0,20,21
 327 547 327 547 363 539 c 128,-1,22
 399 531 399 531 438 513 c 1,23,-1
 410 445 l 1,24,25
 373 462 373 462 343.5 468.5 c 128,-1,26
 314 475 314 475 284 475 c 0,27,28
 178 475 178 475 178 407 c 0,29,30
 178 386 178 386 190.5 371 c 128,-1,31
 203 356 203 356 230.5 340.5 c 128,-1,32
 258 325 258 325 303 304 c 256,33,34
 348 283 348 283 380.5 263 c 128,-1,35
 413 243 413 243 431 215.5 c 128,-1,36
 449 188 449 188 449 143 c 0,37,38
 449 68 449 68 398 29 c 128,-1,39
 347 -10 347 -10 246 -10 c 0,0,1
EndSplineSet
Validated: 1048577
Substitution2: "'smcp' Lowercase to Small Capitals lookup 35 subtable" s.sc
Substitution2: "'subs' Subscript lookup 22 subtable" uni209B
AlternateSubs2: "'aalt' Access All Alternates lookup 1 subtable" s.sc uni209B
EndChar

StartChar: t
Encoding: 116 116 87
Width: 530
GlyphClass: 2
Flags: W
AnchorPoint: "Anchor-3" 236 283 basechar 0
AnchorPoint: "Anchor-2" 441 839 basechar 0
AnchorPoint: "Anchor-1" 247 679 basechar 0
AnchorPoint: "Anchor-0" 338 0 basechar 0
LayerCount: 2
Fore
SplineSet
360 -10 m 0,0,1
 311 -10 311 -10 272.5 4.5 c 128,-1,2
 234 19 234 19 212 53.5 c 128,-1,3
 190 88 190 88 190 149 c 2,4,-1
 190 463 l 1,5,-1
 52 463 l 1,6,-1
 52 517 l 1,7,-1
 192 539 l 1,8,-1
 217 679 l 1,9,-1
 276 679 l 1,10,-1
 276 536 l 1,11,-1
 462 536 l 1,12,-1
 462 463 l 1,13,-1
 275 463 l 1,14,-1
 275 164 l 2,15,16
 275 112 275 112 298.5 87.5 c 128,-1,17
 322 63 322 63 372 63 c 0,18,19
 414 63 414 63 464 77 c 1,20,-1
 464 5 l 1,21,22
 441 -2 441 -2 414 -6 c 128,-1,23
 387 -10 387 -10 360 -10 c 0,0,1
EndSplineSet
Validated: 1
Substitution2: "'smcp' Lowercase to Small Capitals lookup 35 subtable" t.sc
Substitution2: "'subs' Subscript lookup 22 subtable" uni209C
AlternateSubs2: "'aalt' Access All Alternates lookup 1 subtable" t.sc uni209C
EndChar

StartChar: u
Encoding: 117 117 88
Width: 530
GlyphClass: 2
Flags: W
AnchorPoint: "Anchor-2" 510 536 basechar 0
AnchorPoint: "Anchor-1" 265 536 basechar 0
AnchorPoint: "Anchor-0" 265 0 basechar 0
LayerCount: 2
Fore
SplineSet
227 -10 m 0,0,1
 146 -10 146 -10 103.5 36 c 128,-1,2
 61 82 61 82 61 176 c 2,3,-1
 61 536 l 1,4,-1
 145 536 l 1,5,-1
 145 191 l 2,6,7
 145 121 145 121 171 91.5 c 128,-1,8
 197 62 197 62 253 62 c 0,9,10
 319 62 319 62 349.5 113 c 128,-1,11
 380 164 380 164 380 258 c 2,12,-1
 380 536 l 1,13,-1
 464 536 l 1,14,-1
 464 0 l 1,15,-1
 394 0 l 1,16,-1
 381 72 l 1,17,-1
 376 72 l 1,18,19
 354 29 354 29 315.5 9.5 c 128,-1,20
 277 -10 277 -10 227 -10 c 0,0,1
EndSplineSet
Validated: 1048577
Substitution2: "'smcp' Lowercase to Small Capitals lookup 35 subtable" u.sc
Substitution2: "'aalt' Access All Alternates lookup 0 subtable" u.sc
EndChar

StartChar: v
Encoding: 118 118 89
Width: 530
GlyphClass: 2
Flags: W
AnchorPoint: "Anchor-2" 510 536 basechar 0
AnchorPoint: "Anchor-1" 265 536 basechar 0
AnchorPoint: "Anchor-0" 265 0 basechar 0
LayerCount: 2
Fore
SplineSet
213 0 m 1,0,-1
 35 536 l 1,1,-1
 117 536 l 1,2,-1
 218 222 l 2,3,4
 228 189 228 189 241 148 c 128,-1,5
 254 107 254 107 264 71 c 1,6,-1
 267 71 l 1,7,8
 276 107 276 107 289.5 148 c 128,-1,9
 303 189 303 189 313 222 c 2,10,-1
 410 536 l 1,11,-1
 495 536 l 1,12,-1
 315 0 l 1,13,-1
 213 0 l 1,0,-1
EndSplineSet
Validated: 1048577
Substitution2: "'smcp' Lowercase to Small Capitals lookup 35 subtable" v.sc
Substitution2: "'aalt' Access All Alternates lookup 0 subtable" v.sc
EndChar

StartChar: w
Encoding: 119 119 90
Width: 530
GlyphClass: 2
Flags: W
AnchorPoint: "Anchor-2" 510 536 basechar 0
AnchorPoint: "Anchor-1" 267 536 basechar 0
AnchorPoint: "Anchor-0" 267 0 basechar 0
LayerCount: 2
Fore
SplineSet
86 0 m 1,0,-1
 12 536 l 1,1,-1
 89 536 l 1,2,-1
 123 264 l 2,3,4
 129 217 129 217 132.5 163 c 128,-1,5
 136 109 136 109 139 71 c 1,6,-1
 141 71 l 1,7,8
 143 89 143 89 148 122 c 128,-1,9
 153 155 153 155 159.5 189 c 128,-1,10
 166 223 166 223 171 247 c 2,11,-1
 218 443 l 1,12,-1
 311 443 l 1,13,-1
 356 247 l 2,14,15
 361 223 361 223 367.5 189 c 128,-1,16
 374 155 374 155 379.5 122.5 c 128,-1,17
 385 90 385 90 388 71 c 1,18,-1
 390 71 l 1,19,20
 393 106 393 106 397 160 c 128,-1,21
 401 214 401 214 408 264 c 2,22,-1
 444 536 l 1,23,-1
 519 536 l 1,24,-1
 442 0 l 1,25,-1
 337 0 l 1,26,-1
 296 199 l 2,27,28
 288 239 288 239 279.5 281 c 128,-1,29
 271 323 271 323 265 364 c 1,30,-1
 262 364 l 1,31,32
 256 323 256 323 247.5 280.5 c 128,-1,33
 239 238 239 238 231 197 c 2,34,-1
 189 0 l 1,35,-1
 86 0 l 1,0,-1
EndSplineSet
Validated: 1048577
Substitution2: "'smcp' Lowercase to Small Capitals lookup 35 subtable" w.sc
Substitution2: "'aalt' Access All Alternates lookup 0 subtable" w.sc
EndChar

StartChar: x
Encoding: 120 120 91
Width: 530
GlyphClass: 2
Flags: W
AnchorPoint: "Anchor-2" 510 536 basechar 0
AnchorPoint: "Anchor-1" 265 536 basechar 0
AnchorPoint: "Anchor-0" 265 0 basechar 0
LayerCount: 2
Fore
SplineSet
35 0 m 1,0,-1
 214 275 l 1,1,-1
 44 536 l 1,2,-1
 141 536 l 1,3,-1
 264 336 l 1,4,-1
 391 536 l 1,5,-1
 487 536 l 1,6,-1
 313 273 l 1,7,-1
 495 0 l 1,8,-1
 397 0 l 1,9,-1
 265 213 l 1,10,-1
 132 0 l 1,11,-1
 35 0 l 1,0,-1
EndSplineSet
Validated: 1048577
Substitution2: "'smcp' Lowercase to Small Capitals lookup 35 subtable" x.sc
Substitution2: "'aalt' Access All Alternates lookup 0 subtable" x.sc
EndChar

StartChar: y
Encoding: 121 121 92
Width: 530
GlyphClass: 2
Flags: W
AnchorPoint: "Anchor-2" 510 536 basechar 0
AnchorPoint: "Anchor-1" 265 536 basechar 0
AnchorPoint: "Anchor-0" 265 -245 basechar 0
LayerCount: 2
Fore
SplineSet
116 -245 m 0,0,1
 99 -245 99 -245 82.5 -242.5 c 128,-1,2
 66 -240 66 -240 51 -237 c 1,3,-1
 51 -167 l 1,4,5
 63 -170 63 -170 78 -172 c 128,-1,6
 93 -174 93 -174 108 -174 c 0,7,8
 146 -174 146 -174 167.5 -152 c 128,-1,9
 189 -130 189 -130 207 -79 c 2,10,-1
 234 -6 l 1,11,-1
 35 536 l 1,12,-1
 120 536 l 1,13,-1
 231 224 l 2,14,15
 244 187 244 187 254.5 149.5 c 128,-1,16
 265 112 265 112 273 78 c 1,17,-1
 276 78 l 1,18,19
 282 111 282 111 293 152 c 128,-1,20
 304 193 304 193 314 225 c 2,21,-1
 407 536 l 1,22,-1
 495 536 l 1,23,-1
 293 -70 l 2,24,25
 267 -148 267 -148 227.5 -196.5 c 128,-1,26
 188 -245 188 -245 116 -245 c 0,0,1
EndSplineSet
Validated: 1048577
Substitution2: "'smcp' Lowercase to Small Capitals lookup 35 subtable" y.sc
Substitution2: "'aalt' Access All Alternates lookup 0 subtable" y.sc
EndChar

StartChar: z
Encoding: 122 122 93
Width: 530
GlyphClass: 2
Flags: W
AnchorPoint: "Anchor-2" 510 536 basechar 0
AnchorPoint: "Anchor-1" 272 536 basechar 0
AnchorPoint: "Anchor-0" 272 0 basechar 0
LayerCount: 2
Fore
SplineSet
73 0 m 1,0,-1
 73 60 l 1,1,-1
 359 465 l 1,2,-1
 87 465 l 1,3,-1
 87 536 l 1,4,-1
 451 536 l 1,5,-1
 451 466 l 1,6,-1
 170 73 l 1,7,-1
 458 73 l 1,8,-1
 458 0 l 1,9,-1
 73 0 l 1,0,-1
EndSplineSet
Validated: 1048577
Substitution2: "'smcp' Lowercase to Small Capitals lookup 35 subtable" z.sc
Substitution2: "'aalt' Access All Alternates lookup 0 subtable" z.sc
EndChar

StartChar: braceleft
Encoding: 123 123 94
Width: 530
Flags: W
LayerCount: 2
Fore
SplineSet
411 -160 m 1,0,1
 320 -159 320 -159 273.5 -120 c 128,-1,2
 227 -81 227 -81 227 0 c 2,3,-1
 227 149 l 2,4,5
 227 199 227 199 202.5 222.5 c 128,-1,6
 178 246 178 246 120 246 c 1,7,-1
 120 311 l 1,8,9
 174 311 174 311 200.5 332 c 128,-1,10
 227 353 227 353 227 407 c 2,11,-1
 227 557 l 2,12,13
 227 714 227 714 411 716 c 1,14,-1
 411 648 l 1,15,16
 361 647 361 647 334.5 625.5 c 128,-1,17
 308 604 308 604 308 553 c 2,18,-1
 308 405 l 2,19,20
 308 351 308 351 285.5 320.5 c 128,-1,21
 263 290 263 290 211 281 c 1,22,-1
 211 276 l 1,23,24
 264 266 264 266 286 235 c 128,-1,25
 308 204 308 204 308 152 c 2,26,-1
 308 3 l 2,27,28
 308 -46 308 -46 333 -69 c 128,-1,29
 358 -92 358 -92 411 -92 c 1,30,-1
 411 -160 l 1,0,1
EndSplineSet
Validated: 1
Substitution2: "'smcp' Lowercase to Small Capitals lookup 35 subtable" braceleft.sc
Substitution2: "'c2sc' Capitals to Small Capitals lookup 34 subtable" braceleft.sc
Substitution2: "'aalt' Access All Alternates lookup 0 subtable" braceleft.sc
EndChar

StartChar: bar
Encoding: 124 124 95
Width: 530
Flags: W
LayerCount: 2
Fore
SplineSet
228 -240 m 1,0,-1
 228 760 l 1,1,-1
 302 760 l 1,2,-1
 302 -240 l 1,3,-1
 228 -240 l 1,0,-1
EndSplineSet
Validated: 1
EndChar

StartChar: asciitilde
Encoding: 126 126 97
Width: 530
Flags: W
LayerCount: 2
Fore
SplineSet
69 289 m 1,0,1
 72 330 72 330 82 370 c 128,-1,2
 92 410 92 410 114 436.5 c 128,-1,3
 136 463 136 463 176 463 c 0,4,5
 207 463 207 463 231 446.5 c 128,-1,6
 255 430 255 430 284 397 c 0,7,8
 304 374 304 374 320 359.5 c 128,-1,9
 336 345 336 345 354 345 c 0,10,11
 378 345 378 345 389.5 374.5 c 128,-1,12
 401 404 401 404 406 463 c 1,13,-1
 462 463 l 1,14,15
 458 424 458 424 448 384 c 128,-1,16
 438 344 438 344 416.5 316.5 c 128,-1,17
 395 289 395 289 356 289 c 0,18,19
 329 289 329 289 305.5 302 c 128,-1,20
 282 315 282 315 250 354 c 0,21,22
 228 379 228 379 212.5 393 c 128,-1,23
 197 407 197 407 179 407 c 0,24,25
 153 407 153 407 141 378 c 128,-1,26
 129 349 129 349 124 289 c 1,27,-1
 69 289 l 1,0,1
EndSplineSet
Validated: 1
EndChar

StartChar: cent
Encoding: 162 162 100
Width: 530
Flags: W
LayerCount: 2
Fore
SplineSet
276 90 m 1,0,1
 86 113 86 113 86 363 c 0,2,3
 86 486 86 486 135 557 c 128,-1,4
 184 628 184 628 276 641 c 1,5,-1
 276 724 l 1,6,-1
 334 724 l 1,7,-1
 334 644 l 1,8,9
 365 642 365 642 395 635.5 c 128,-1,10
 425 629 425 629 445 618 c 1,11,-1
 420 550 l 1,12,13
 371 572 371 572 323 572 c 0,14,15
 244 572 244 572 207 520 c 128,-1,16
 170 468 170 468 170 364 c 0,17,18
 170 259 170 259 207 210 c 128,-1,19
 244 161 244 161 321 161 c 0,20,21
 351 161 351 161 382 168 c 128,-1,22
 413 175 413 175 438 188 c 1,23,-1
 438 116 l 1,24,25
 400 94 400 94 333 88 c 1,26,-1
 333 -10 l 1,27,-1
 276 -10 l 1,28,-1
 276 90 l 1,0,1
EndSplineSet
Validated: 1
EndChar

StartChar: sterling
Encoding: 163 163 101
Width: 530
Flags: W
LayerCount: 2
Fore
SplineSet
79 71 m 1,0,1
 115 86 115 86 135 120 c 128,-1,2
 155 154 155 154 155 212 c 2,3,-1
 155 324 l 1,4,-1
 77 324 l 1,5,-1
 77 390 l 1,6,-1
 155 390 l 1,7,-1
 155 541 l 2,8,9
 155 629 155 629 201 676.5 c 128,-1,10
 247 724 247 724 334 724 c 0,11,12
 374 724 374 724 406 713.5 c 128,-1,13
 438 703 438 703 468 682 c 1,14,-1
 437 615 l 1,15,16
 386 649 386 649 340 649 c 0,17,18
 288 649 288 649 264 621.5 c 128,-1,19
 240 594 240 594 240 533 c 2,20,-1
 240 390 l 1,21,-1
 393 390 l 1,22,-1
 393 324 l 1,23,-1
 240 324 l 1,24,-1
 240 213 l 2,25,26
 240 167 240 167 223.5 131.5 c 128,-1,27
 207 96 207 96 178 77 c 1,28,-1
 473 77 l 1,29,-1
 473 0 l 1,30,-1
 79 0 l 1,31,-1
 79 71 l 1,0,1
EndSplineSet
Validated: 1
EndChar

StartChar: currency
Encoding: 164 164 102
Width: 530
Flags: W
LayerCount: 2
Fore
SplineSet
378 197 m 1,0,1
 353 179 353 179 325 169.5 c 128,-1,2
 297 160 297 160 265 160 c 0,3,4
 199 160 199 160 151 198 c 1,5,-1
 86 133 l 1,6,-1
 42 177 l 1,7,-1
 107 241 l 1,8,9
 70 292 70 292 70 355 c 0,10,11
 70 417 70 417 107 468 c 1,12,-1
 41 535 l 1,13,-1
 86 578 l 1,14,-1
 151 512 l 1,15,16
 201 550 201 550 265 550 c 0,17,18
 328 550 328 550 378 513 c 1,19,-1
 444 578 l 1,20,-1
 489 535 l 1,21,-1
 424 469 l 1,22,23
 441 445 441 445 450.5 416 c 128,-1,24
 460 387 460 387 460 355 c 256,25,26
 460 323 460 323 450.5 294 c 128,-1,27
 441 265 441 265 424 240 c 1,28,-1
 488 175 l 1,29,-1
 445 132 l 1,30,-1
 378 197 l 1,0,1
265 224 m 0,31,32
 324 224 324 224 359 262 c 128,-1,33
 394 300 394 300 394 356 c 0,34,35
 394 414 394 414 358 451 c 128,-1,36
 322 488 322 488 266 488 c 0,37,38
 209 488 209 488 172 449.5 c 128,-1,39
 135 411 135 411 135 354 c 0,40,41
 135 299 135 299 171 261.5 c 128,-1,42
 207 224 207 224 265 224 c 0,31,32
EndSplineSet
Validated: 1
EndChar

StartChar: yen
Encoding: 165 165 103
Width: 530
Flags: W
LayerCount: 2
Fore
SplineSet
222 0 m 1,0,-1
 222 130 l 1,1,-1
 102 130 l 1,2,-1
 102 190 l 1,3,-1
 222 190 l 1,4,-1
 222 275 l 1,5,-1
 102 275 l 1,6,-1
 102 336 l 1,7,-1
 202 336 l 1,8,-1
 51 714 l 1,9,-1
 139 714 l 1,10,-1
 265 374 l 1,11,-1
 391 714 l 1,12,-1
 479 714 l 1,13,-1
 326 336 l 1,14,-1
 430 336 l 1,15,-1
 430 275 l 1,16,-1
 307 275 l 1,17,-1
 307 190 l 1,18,-1
 430 190 l 1,19,-1
 430 130 l 1,20,-1
 307 130 l 1,21,-1
 307 0 l 1,22,-1
 222 0 l 1,0,-1
EndSplineSet
Validated: 1
EndChar

StartChar: brokenbar
Encoding: 166 166 104
Width: 530
Flags: W
LayerCount: 2
Fore
SplineSet
227 371 m 1,0,-1
 227 759 l 1,1,-1
 302 759 l 1,2,-1
 302 371 l 1,3,-1
 227 371 l 1,0,-1
227 -238 m 1,4,-1
 227 151 l 1,5,-1
 302 151 l 1,6,-1
 302 -238 l 1,7,-1
 227 -238 l 1,4,-1
EndSplineSet
Validated: 1
EndChar

StartChar: section
Encoding: 167 167 105
Width: 530
Flags: W
LayerCount: 2
Fore
SplineSet
233 -9 m 256,0,1
 145 -9 145 -9 91 23 c 1,2,-1
 91 95 l 1,3,4
 116 77 116 77 156 65 c 128,-1,5
 196 53 196 53 234 53 c 0,6,7
 284 53 284 53 315 72.5 c 128,-1,8
 346 92 346 92 346 130 c 0,9,10
 346 166 346 166 318.5 189 c 128,-1,11
 291 212 291 212 238 238 c 0,12,13
 167 275 167 275 133.5 307 c 128,-1,14
 100 339 100 339 100 391 c 0,15,16
 100 439 100 439 125.5 470 c 128,-1,17
 151 501 151 501 188 516 c 1,18,19
 157 538 157 538 139 566.5 c 128,-1,20
 121 595 121 595 121 635 c 0,21,22
 121 698 121 698 167 732 c 128,-1,23
 213 766 213 766 291 766 c 0,24,25
 330 766 330 766 360.5 758 c 128,-1,26
 391 750 391 750 422 734 c 1,27,-1
 396 675 l 1,28,29
 368 690 368 690 343.5 697 c 128,-1,30
 319 704 319 704 289 704 c 0,31,32
 243 704 243 704 220 686.5 c 128,-1,33
 197 669 197 669 197 639 c 0,34,35
 197 605 197 605 223 582 c 128,-1,36
 249 559 249 559 293 538 c 0,37,38
 330 519 330 519 363 499.5 c 128,-1,39
 396 480 396 480 417 452 c 128,-1,40
 438 424 438 424 438 381 c 0,41,42
 438 334 438 334 415 299 c 128,-1,43
 392 264 392 264 360 248 c 1,44,45
 392 222 392 222 407.5 195 c 128,-1,46
 423 168 423 168 423 133 c 0,47,48
 423 66 423 66 372 28.5 c 128,-1,49
 321 -9 321 -9 233 -9 c 256,0,1
308 279 m 1,50,51
 336 292 336 292 352 315.5 c 128,-1,52
 368 339 368 339 368 369 c 0,53,54
 368 393 368 393 356.5 411 c 128,-1,55
 345 429 345 429 317.5 446.5 c 128,-1,56
 290 464 290 464 241 486 c 1,57,58
 208 477 208 477 189 454 c 128,-1,59
 170 431 170 431 170 402 c 0,60,61
 170 375 170 375 184.5 357 c 128,-1,62
 199 339 199 339 223.5 325.5 c 128,-1,63
 248 312 248 312 277 298 c 2,64,-1
 308 279 l 1,50,51
EndSplineSet
Validated: 1
EndChar

StartChar: dieresis
Encoding: 168 168 106
Width: 530
GlyphClass: 2
Flags: W
AnchorPoint: "Anchor-1" 265 646 basechar 0
LayerCount: 2
Fore
SplineSet
365 624 m 0,0,1
 344 624 344 624 328.5 639 c 128,-1,2
 313 654 313 654 313 685 c 256,3,4
 313 716 313 716 328.5 730 c 128,-1,5
 344 744 344 744 365 744 c 0,6,7
 387 744 387 744 402.5 729.5 c 128,-1,8
 418 715 418 715 418 685 c 0,9,10
 418 654 418 654 402.5 639 c 128,-1,11
 387 624 387 624 365 624 c 0,0,1
164 624 m 0,12,13
 143 624 143 624 127.5 639 c 128,-1,14
 112 654 112 654 112 685 c 256,15,16
 112 716 112 716 127.5 730 c 128,-1,17
 143 744 143 744 164 744 c 0,18,19
 186 744 186 744 201 729.5 c 128,-1,20
 216 715 216 715 216 685 c 0,21,22
 216 654 216 654 201 639 c 128,-1,23
 186 624 186 624 164 624 c 0,12,13
EndSplineSet
Validated: 1048577
EndChar

StartChar: copyright
Encoding: 169 169 107
Width: 530
Flags: W
LayerCount: 2
Fore
SplineSet
265 123 m 0,0,1
 191 123 191 123 138 153 c 128,-1,2
 85 183 85 183 56.5 236.5 c 128,-1,3
 28 290 28 290 28 359 c 0,4,5
 28 430 28 430 57.5 483 c 128,-1,6
 87 536 87 536 140.5 566 c 128,-1,7
 194 596 194 596 266 596 c 0,8,9
 339 596 339 596 392 566 c 128,-1,10
 445 536 445 536 473.5 483 c 128,-1,11
 502 430 502 430 502 360 c 0,12,13
 502 289 502 289 472.5 235.5 c 128,-1,14
 443 182 443 182 389.5 152.5 c 128,-1,15
 336 123 336 123 265 123 c 0,0,1
265 166 m 0,16,17
 349 166 349 166 401.5 217 c 128,-1,18
 454 268 454 268 454 358 c 0,19,20
 454 447 454 447 401.5 499.5 c 128,-1,21
 349 552 349 552 264 552 c 0,22,23
 180 552 180 552 128 500.5 c 128,-1,24
 76 449 76 449 76 360 c 0,25,26
 76 272 76 272 128 219 c 128,-1,27
 180 166 180 166 265 166 c 0,16,17
276 211 m 0,28,29
 209 211 209 211 176.5 251.5 c 128,-1,30
 144 292 144 292 144 356 c 0,31,32
 144 423 144 423 178 465 c 128,-1,33
 212 507 212 507 275 507 c 0,34,35
 318 507 318 507 356 488 c 1,36,-1
 337 444 l 1,37,38
 321 452 321 452 306 456 c 128,-1,39
 291 460 291 460 277 460 c 0,40,41
 239 460 239 460 218 433.5 c 128,-1,42
 197 407 197 407 197 356 c 0,43,44
 197 309 197 309 216 283 c 128,-1,45
 235 257 235 257 275 257 c 0,46,47
 291 257 291 257 309.5 261 c 128,-1,48
 328 265 328 265 345 271 c 1,49,-1
 345 226 l 1,50,51
 329 219 329 219 312.5 215 c 128,-1,52
 296 211 296 211 276 211 c 0,28,29
EndSplineSet
Validated: 1
EndChar

StartChar: ordfeminine
Encoding: 170 170 108
Width: 530
GlyphClass: 2
Flags: W
AnchorPoint: "Anchor-1" 254 722 basechar 0
AnchorPoint: "Anchor-0" 250 388 basechar 0
LayerCount: 2
Fore
SplineSet
228 382 m 0,0,1
 183 382 183 382 154 407.5 c 128,-1,2
 125 433 125 433 125 480 c 0,3,4
 125 581 125 581 274 590 c 2,5,-1
 320 593 l 1,6,-1
 320 614 l 2,7,8
 320 645 320 645 303.5 658 c 128,-1,9
 287 671 287 671 255 671 c 0,10,11
 232 671 232 671 211.5 664.5 c 128,-1,12
 191 658 191 658 170 648 c 1,13,-1
 150 694 l 1,14,15
 175 708 175 708 202 715 c 128,-1,16
 229 722 229 722 261 722 c 0,17,18
 383 722 383 722 383 609 c 2,19,-1
 383 388 l 1,20,-1
 338 388 l 1,21,-1
 326 433 l 1,22,23
 308 407 308 407 284.5 394.5 c 128,-1,24
 261 382 261 382 228 382 c 0,0,1
244 435 m 0,25,26
 281 435 281 435 300.5 458 c 128,-1,27
 320 481 320 481 320 520 c 2,28,-1
 320 544 l 1,29,-1
 284 541 l 2,30,31
 235 537 235 537 212 525 c 128,-1,32
 189 513 189 513 189 483 c 0,33,34
 189 458 189 458 203.5 446.5 c 128,-1,35
 218 435 218 435 244 435 c 0,25,26
EndSplineSet
Validated: 1048577
EndChar

StartChar: guillemotleft
Encoding: 171 171 109
Width: 530
Flags: W
LayerCount: 2
Fore
SplineSet
408 60 m 1,0,-1
 256 257 l 1,1,-1
 256 271 l 1,2,-1
 408 468 l 1,3,-1
 465 435 l 1,4,-1
 351 264 l 1,5,-1
 465 94 l 1,6,-1
 408 60 l 1,0,-1
216 60 m 1,7,-1
 65 257 l 1,8,-1
 65 271 l 1,9,-1
 216 468 l 1,10,-1
 274 435 l 1,11,-1
 159 264 l 1,12,-1
 274 94 l 1,13,-1
 216 60 l 1,7,-1
EndSplineSet
Validated: 1
EndChar

StartChar: logicalnot
Encoding: 172 172 110
Width: 530
Flags: W
LayerCount: 2
Fore
SplineSet
387 122 m 1,0,-1
 387 318 l 1,1,-1
 72 318 l 1,2,-1
 72 387 l 1,3,-1
 456 387 l 1,4,-1
 456 122 l 1,5,-1
 387 122 l 1,0,-1
EndSplineSet
Validated: 1
EndChar

StartChar: registered
Encoding: 174 174 112
Width: 530
Flags: W
LayerCount: 2
Fore
SplineSet
265 123 m 0,0,1
 191 123 191 123 138 153 c 128,-1,2
 85 183 85 183 56.5 236.5 c 128,-1,3
 28 290 28 290 28 359 c 0,4,5
 28 430 28 430 57.5 483 c 128,-1,6
 87 536 87 536 140.5 566 c 128,-1,7
 194 596 194 596 266 596 c 0,8,9
 339 596 339 596 392 566 c 128,-1,10
 445 536 445 536 473.5 483 c 128,-1,11
 502 430 502 430 502 360 c 0,12,13
 502 289 502 289 472.5 235.5 c 128,-1,14
 443 182 443 182 389.5 152.5 c 128,-1,15
 336 123 336 123 265 123 c 0,0,1
265 166 m 0,16,17
 349 166 349 166 401.5 217 c 128,-1,18
 454 268 454 268 454 358 c 0,19,20
 454 447 454 447 401.5 499.5 c 128,-1,21
 349 552 349 552 264 552 c 0,22,23
 180 552 180 552 128 500.5 c 128,-1,24
 76 449 76 449 76 360 c 0,25,26
 76 272 76 272 128 219 c 128,-1,27
 180 166 180 166 265 166 c 0,16,17
173 216 m 1,28,-1
 173 507 l 1,29,-1
 255 507 l 2,30,31
 308 507 308 507 334 484 c 128,-1,32
 360 461 360 461 360 421 c 0,33,34
 360 385 360 385 343 366 c 128,-1,35
 326 347 326 347 308 339 c 1,36,-1
 384 216 l 1,37,-1
 326 216 l 1,38,-1
 261 326 l 1,39,-1
 221 326 l 1,40,-1
 221 216 l 1,41,-1
 173 216 l 1,28,-1
254 368 m 2,42,43
 279 368 279 368 295 380.5 c 128,-1,44
 311 393 311 393 311 417 c 0,45,46
 311 463 311 463 253 463 c 2,47,-1
 221 463 l 1,48,-1
 221 368 l 1,49,-1
 254 368 l 2,42,43
EndSplineSet
Validated: 1
EndChar

StartChar: overscore
Encoding: 175 175 113
Width: 530
Flags: W
LayerCount: 2
Fore
SplineSet
135 629 m 1,0,-1
 135 694 l 1,1,-1
 394 694 l 1,2,-1
 394 629 l 1,3,-1
 135 629 l 1,0,-1
EndSplineSet
Validated: 1
EndChar

StartChar: degree
Encoding: 176 176 114
Width: 530
Flags: W
LayerCount: 2
Fore
SplineSet
265 445 m 0,0,1
 204 445 204 445 164.5 483 c 128,-1,2
 125 521 125 521 125 584 c 256,3,4
 125 647 125 647 165.5 685 c 128,-1,5
 206 723 206 723 265 723 c 0,6,7
 303 723 303 723 335 705.5 c 128,-1,8
 367 688 367 688 385.5 656.5 c 128,-1,9
 404 625 404 625 404 583 c 0,10,11
 404 520 404 520 363.5 482.5 c 128,-1,12
 323 445 323 445 265 445 c 0,0,1
266 499 m 256,13,14
 300 499 300 499 324 521.5 c 128,-1,15
 348 544 348 544 348 584 c 256,16,17
 348 624 348 624 324 646.5 c 128,-1,18
 300 669 300 669 266 669 c 0,19,20
 228 669 228 669 205 645.5 c 128,-1,21
 182 622 182 622 182 583 c 0,22,23
 182 543 182 543 207 521 c 128,-1,24
 232 499 232 499 266 499 c 256,13,14
EndSplineSet
Validated: 1
EndChar

StartChar: plusminus
Encoding: 177 177 115
Width: 530
Flags: W
LayerCount: 2
Fore
SplineSet
229 133 m 1,0,-1
 229 332 l 1,1,-1
 68 332 l 1,2,-1
 68 401 l 1,3,-1
 229 401 l 1,4,-1
 229 601 l 1,5,-1
 299 601 l 1,6,-1
 299 401 l 1,7,-1
 459 401 l 1,8,-1
 459 332 l 1,9,-1
 299 332 l 1,10,-1
 299 133 l 1,11,-1
 229 133 l 1,0,-1
70 0 m 1,12,-1
 70 69 l 1,13,-1
 460 69 l 1,14,-1
 460 0 l 1,15,-1
 70 0 l 1,12,-1
EndSplineSet
Validated: 1
EndChar

StartChar: uni00B2
Encoding: 178 178 116
Width: 530
Flags: W
LayerCount: 2
Fore
SplineSet
135 415 m 1,0,-1
 135 471 l 1,1,-1
 233 580 l 2,2,3
 267 617 267 617 289 642 c 128,-1,4
 311 667 311 667 321.5 688 c 128,-1,5
 332 709 332 709 332 734 c 0,6,7
 332 762 332 762 313.5 778 c 128,-1,8
 295 794 295 794 262 794 c 0,9,10
 212 794 212 794 170 753 c 1,11,-1
 136 797 l 1,12,13
 160 823 160 823 193.5 838 c 128,-1,14
 227 853 227 853 267 853 c 0,15,16
 330 853 330 853 365 821.5 c 128,-1,17
 400 790 400 790 400 738 c 0,18,19
 400 703 400 703 386 675 c 128,-1,20
 372 647 372 647 344.5 616 c 128,-1,21
 317 585 317 585 275 540 c 2,22,-1
 214 474 l 1,23,-1
 410 474 l 1,24,-1
 410 415 l 1,25,-1
 135 415 l 1,0,-1
EndSplineSet
Validated: 1
EndChar

StartChar: uni00B3
Encoding: 179 179 117
Width: 530
Flags: W
LayerCount: 2
Fore
SplineSet
247 407 m 0,0,1
 188 407 188 407 138 433 c 1,2,-1
 138 497 l 1,3,4
 190 466 190 466 247 466 c 0,5,6
 293 466 293 466 314 485 c 128,-1,7
 335 504 335 504 335 536 c 0,8,9
 335 609 335 609 236 609 c 2,10,-1
 196 609 l 1,11,-1
 196 664 l 1,12,-1
 235 664 l 2,13,14
 279 664 279 664 301.5 683.5 c 128,-1,15
 324 703 324 703 324 734 c 0,16,17
 324 764 324 764 305 779.5 c 128,-1,18
 286 795 286 795 255 795 c 0,19,20
 231 795 231 795 210.5 785.5 c 128,-1,21
 190 776 190 776 169 759 c 1,22,-1
 135 805 l 1,23,24
 163 828 163 828 192.5 840.5 c 128,-1,25
 222 853 222 853 260 853 c 0,26,27
 320 853 320 853 355 823.5 c 128,-1,28
 390 794 390 794 390 743 c 0,29,30
 390 706 390 706 372 680 c 128,-1,31
 354 654 354 654 323 642 c 1,32,-1
 323 638 l 1,33,34
 361 628 361 628 382 601.5 c 128,-1,35
 403 575 403 575 403 534 c 0,36,37
 403 475 403 475 361 441 c 128,-1,38
 319 407 319 407 247 407 c 0,0,1
EndSplineSet
Validated: 1
EndChar

StartChar: acute
Encoding: 180 180 118
Width: 530
Flags: W
LayerCount: 2
Fore
SplineSet
226 617 m 1,0,1
 252 654 252 654 276 693 c 128,-1,2
 300 732 300 732 317 766 c 1,3,-1
 416 766 l 1,4,-1
 416 757 l 1,5,6
 404 736 404 736 379.5 707.5 c 128,-1,7
 355 679 355 679 328 651.5 c 128,-1,8
 301 624 301 624 280 606 c 1,9,-1
 226 606 l 1,10,-1
 226 617 l 1,0,1
EndSplineSet
Validated: 1
EndChar

StartChar: uni00B5
Encoding: 181 181 119
Width: 530
GlyphClass: 2
Flags: W
AnchorPoint: "Anchor-2" 510 536 basechar 0
AnchorPoint: "Anchor-1" 265 536 basechar 0
AnchorPoint: "Anchor-0" 265 0 basechar 0
LayerCount: 2
Fore
SplineSet
227 -10 m 0,0,1
 180 -10 180 -10 145 6 c 1,2,-1
 145 -240 l 1,3,-1
 61 -240 l 1,4,-1
 61 536 l 1,5,-1
 145 536 l 1,6,-1
 145 191 l 2,7,8
 145 121 145 121 171 91.5 c 128,-1,9
 197 62 197 62 253 62 c 0,10,11
 319 62 319 62 349.5 113 c 128,-1,12
 380 164 380 164 380 258 c 2,13,-1
 380 536 l 1,14,-1
 464 536 l 1,15,-1
 464 0 l 1,16,-1
 394 0 l 1,17,-1
 381 72 l 1,18,-1
 376 72 l 1,19,20
 354 29 354 29 315.5 9.5 c 128,-1,21
 277 -10 277 -10 227 -10 c 0,0,1
EndSplineSet
Validated: 1048577
EndChar

StartChar: paragraph
Encoding: 182 182 120
Width: 530
Flags: W
LayerCount: 2
Fore
SplineSet
250 273 m 1,0,1
 228 264 228 264 199 264 c 0,2,3
 130 264 130 264 94 322.5 c 128,-1,4
 58 381 58 381 58 509 c 0,5,6
 58 639 58 639 98 699.5 c 128,-1,7
 138 760 138 760 218 760 c 2,8,-1
 442 760 l 1,9,-1
 442 -127 l 1,10,-1
 384 -127 l 1,11,-1
 384 703 l 1,12,-1
 308 703 l 1,13,-1
 308 -127 l 1,14,-1
 250 -127 l 1,15,-1
 250 273 l 1,0,1
EndSplineSet
Validated: 1
EndChar

StartChar: cedilla
Encoding: 184 184 122
Width: 530
Flags: W
LayerCount: 2
Fore
SplineSet
226 -240 m 0,0,1
 211 -240 211 -240 197 -238.5 c 128,-1,2
 183 -237 183 -237 174 -234 c 1,3,-1
 174 -180 l 1,4,5
 193 -186 193 -186 219 -186 c 0,6,7
 286 -186 286 -186 286 -138 c 0,8,9
 286 -112 286 -112 265 -99.5 c 128,-1,10
 244 -87 244 -87 206 -81 c 1,11,-1
 242 2 l 1,12,-1
 294 2 l 1,13,-1
 271 -51 l 1,14,15
 311 -60 311 -60 333 -81.5 c 128,-1,16
 355 -103 355 -103 355 -141 c 0,17,18
 355 -188 355 -188 321.5 -214 c 128,-1,19
 288 -240 288 -240 226 -240 c 0,0,1
EndSplineSet
Validated: 1
EndChar

StartChar: uni00B9
Encoding: 185 185 123
Width: 530
Flags: W
LayerCount: 2
Fore
SplineSet
151 415 m 1,0,-1
 151 463 l 1,1,-1
 247 468 l 1,2,-1
 247 682 l 2,3,4
 247 705 247 705 248 726.5 c 128,-1,5
 249 748 249 748 251 771 c 1,6,7
 243 764 243 764 235.5 757.5 c 128,-1,8
 228 751 228 751 219 745 c 2,9,-1
 161 704 l 1,10,-1
 127 753 l 1,11,-1
 254 843 l 1,12,-1
 312 843 l 1,13,-1
 312 468 l 1,14,-1
 407 463 l 1,15,-1
 407 415 l 1,16,-1
 151 415 l 1,0,-1
EndSplineSet
Validated: 1
EndChar

StartChar: ordmasculine
Encoding: 186 186 124
Width: 530
GlyphClass: 2
Flags: W
AnchorPoint: "Anchor-1" 265 722 basechar 0
AnchorPoint: "Anchor-0" 264 381 basechar 0
LayerCount: 2
Fore
SplineSet
270 382 m 0,0,1
 204 382 204 382 168 426.5 c 128,-1,2
 132 471 132 471 132 553 c 0,3,4
 132 634 132 634 169 678 c 128,-1,5
 206 722 206 722 271 722 c 0,6,7
 334 722 334 722 370.5 679.5 c 128,-1,8
 407 637 407 637 407 553 c 0,9,10
 407 471 407 471 371 426.5 c 128,-1,11
 335 382 335 382 270 382 c 0,0,1
270 436 m 0,12,13
 309 436 309 436 326.5 464.5 c 128,-1,14
 344 493 344 493 344 553 c 0,15,16
 344 614 344 614 326 641.5 c 128,-1,17
 308 669 308 669 270 669 c 0,18,19
 196 669 196 669 196 553 c 0,20,21
 196 436 196 436 270 436 c 0,12,13
EndSplineSet
Validated: 1048577
EndChar

StartChar: onequarter
Encoding: 188 188 126
Width: 530
Flags: W
LayerCount: 2
Fore
SplineSet
67 0 m 1,0,-1
 400 714 l 1,1,-1
 472 714 l 1,2,-1
 140 0 l 1,3,-1
 67 0 l 1,0,-1
29 367 m 1,4,-1
 29 417 l 1,5,-1
 96 424 l 1,6,-1
 96 562 l 2,7,8
 96 588 96 588 96.5 607.5 c 128,-1,9
 97 627 97 627 98 648 c 1,10,11
 82 629 82 629 61 616 c 2,12,-1
 35 600 l 1,13,-1
 5 655 l 1,14,-1
 97 714 l 1,15,-1
 156 714 l 1,16,-1
 156 424 l 1,17,-1
 226 417 l 1,18,-1
 226 367 l 1,19,-1
 29 367 l 1,4,-1
402 0 m 1,20,-1
 402 79 l 1,21,-1
 264 79 l 1,22,-1
 264 130 l 1,23,-1
 399 349 l 1,24,-1
 460 349 l 1,25,-1
 460 134 l 1,26,-1
 506 134 l 1,27,-1
 506 79 l 1,28,-1
 460 79 l 1,29,-1
 460 0 l 1,30,-1
 402 0 l 1,20,-1
326 134 m 1,31,-1
 402 134 l 1,32,-1
 402 209 l 2,33,34
 402 228 402 228 402.5 241 c 128,-1,35
 403 254 403 254 404 272 c 1,36,37
 400 263 400 263 393.5 251 c 128,-1,38
 387 239 387 239 380 227 c 2,39,-1
 326 134 l 1,31,-1
EndSplineSet
Validated: 1
EndChar

StartChar: onehalf
Encoding: 189 189 127
Width: 530
Flags: W
LayerCount: 2
Fore
SplineSet
67 0 m 1,0,-1
 400 714 l 1,1,-1
 472 714 l 1,2,-1
 140 0 l 1,3,-1
 67 0 l 1,0,-1
29 367 m 1,4,-1
 29 417 l 1,5,-1
 96 424 l 1,6,-1
 96 562 l 2,7,8
 96 588 96 588 96.5 607.5 c 128,-1,9
 97 627 97 627 98 648 c 1,10,11
 82 629 82 629 61 616 c 2,12,-1
 35 600 l 1,13,-1
 5 655 l 1,14,-1
 97 714 l 1,15,-1
 156 714 l 1,16,-1
 156 424 l 1,17,-1
 226 417 l 1,18,-1
 226 367 l 1,19,-1
 29 367 l 1,4,-1
295 0 m 1,20,-1
 294 53 l 1,21,-1
 371 138 l 2,22,23
 398 167 398 167 412.5 185 c 128,-1,24
 427 203 427 203 432.5 217 c 128,-1,25
 438 231 438 231 438 248 c 0,26,27
 438 273 438 273 426 285.5 c 128,-1,28
 414 298 414 298 394 298 c 0,29,30
 375 298 375 298 360 288.5 c 128,-1,31
 345 279 345 279 329 264 c 1,32,-1
 297 309 l 1,33,34
 317 329 317 329 341.5 342 c 128,-1,35
 366 355 366 355 397 355 c 0,36,37
 445 355 445 355 472.5 327.5 c 128,-1,38
 500 300 500 300 500 252 c 0,39,40
 500 213 500 213 478.5 183.5 c 128,-1,41
 457 154 457 154 417 110 c 2,42,-1
 372 61 l 1,43,-1
 508 61 l 1,44,-1
 508 0 l 1,45,-1
 295 0 l 1,20,-1
EndSplineSet
Validated: 1
EndChar

StartChar: threequarters
Encoding: 190 190 128
Width: 530
Flags: W
LayerCount: 2
Fore
SplineSet
108 361 m 0,0,1
 85 361 85 361 64.5 365.5 c 128,-1,2
 44 370 44 370 26 380 c 1,3,-1
 26 442 l 1,4,5
 47 430 47 430 68 423.5 c 128,-1,6
 89 417 89 417 109 417 c 0,7,8
 139 417 139 417 153.5 431.5 c 128,-1,9
 168 446 168 446 168 471 c 0,10,11
 168 497 168 497 151 508 c 128,-1,12
 134 519 134 519 103 519 c 2,13,-1
 63 519 l 1,14,-1
 63 573 l 1,15,-1
 102 573 l 2,16,17
 132 573 132 573 146 586.5 c 128,-1,18
 160 600 160 600 160 622 c 0,19,20
 160 645 160 645 148 656 c 128,-1,21
 136 667 136 667 117 667 c 0,22,23
 100 667 100 667 84 658.5 c 128,-1,24
 68 650 68 650 51 638 c 1,25,-1
 19 683 l 1,26,27
 41 701 41 701 64.5 712 c 128,-1,28
 88 723 88 723 120 723 c 0,29,30
 171 723 171 723 197.5 696.5 c 128,-1,31
 224 670 224 670 224 627 c 0,32,33
 224 596 224 596 211.5 577 c 128,-1,34
 199 558 199 558 179 552 c 1,35,-1
 179 549 l 1,36,37
 232 532 232 532 232 471 c 0,38,39
 232 422 232 422 202 391.5 c 128,-1,40
 172 361 172 361 108 361 c 0,0,1
67 0 m 1,41,-1
 400 714 l 1,42,-1
 472 714 l 1,43,-1
 139 0 l 1,44,-1
 67 0 l 1,41,-1
401 0 m 1,45,-1
 401 79 l 1,46,-1
 264 79 l 1,47,-1
 264 130 l 1,48,-1
 398 349 l 1,49,-1
 460 349 l 1,50,-1
 460 134 l 1,51,-1
 506 134 l 1,52,-1
 506 79 l 1,53,-1
 460 79 l 1,54,-1
 460 0 l 1,55,-1
 401 0 l 1,45,-1
326 134 m 1,56,-1
 401 134 l 1,57,-1
 401 209 l 2,58,59
 401 228 401 228 402 241 c 128,-1,60
 403 254 403 254 403 272 c 1,61,62
 400 263 400 263 393 251 c 128,-1,63
 386 239 386 239 380 227 c 2,64,-1
 326 134 l 1,56,-1
EndSplineSet
Validated: 1
EndChar

StartChar: AE
Encoding: 198 198 136
Width: 530
GlyphClass: 2
Flags: W
AnchorPoint: "Anchor-1" 302 714 basechar 0
AnchorPoint: "Anchor-0" 265 0 basechar 0
LayerCount: 2
Fore
SplineSet
20 0 m 1,0,-1
 170 714 l 1,1,-1
 495 714 l 1,2,-1
 495 634 l 1,3,-1
 332 634 l 1,4,-1
 332 412 l 1,5,-1
 479 412 l 1,6,-1
 479 333 l 1,7,-1
 332 333 l 1,8,-1
 332 80 l 1,9,-1
 495 80 l 1,10,-1
 495 0 l 1,11,-1
 253 0 l 1,12,-1
 253 225 l 1,13,-1
 146 225 l 1,14,-1
 101 0 l 1,15,-1
 20 0 l 1,0,-1
229 634 m 1,16,-1
 162 302 l 1,17,-1
 253 302 l 1,18,-1
 253 634 l 1,19,-1
 229 634 l 1,16,-1
EndSplineSet
Validated: 1048577
Substitution2: "'c2sc' Capitals to Small Capitals lookup 34 subtable" ae.sc
Substitution2: "'aalt' Access All Alternates lookup 0 subtable" ae.sc
EndChar

StartChar: Eth
Encoding: 208 208 146
Width: 530
GlyphClass: 2
Flags: W
AnchorPoint: "Anchor-3" 282 357 basechar 0
AnchorPoint: "Anchor-2" 540 714 basechar 0
AnchorPoint: "Anchor-1" 265 714 basechar 0
AnchorPoint: "Anchor-0" 265 0 basechar 0
LayerCount: 2
Fore
SplineSet
63 0 m 1,0,-1
 63 326 l 1,1,-1
 0 326 l 1,2,-1
 0 400 l 1,3,-1
 63 400 l 1,4,-1
 63 714 l 1,5,-1
 247 714 l 2,6,7
 370 714 370 714 439.5 625 c 128,-1,8
 509 536 509 536 509 365 c 0,9,10
 509 185 509 185 437.5 92.5 c 128,-1,11
 366 0 366 0 230 0 c 2,12,-1
 63 0 l 1,0,-1
225 78 m 2,13,14
 326 78 326 78 373.5 150.5 c 128,-1,15
 421 223 421 223 421 365 c 0,16,17
 421 509 421 509 374 572.5 c 128,-1,18
 327 636 327 636 230 636 c 2,19,-1
 147 636 l 1,20,-1
 147 400 l 1,21,-1
 289 400 l 1,22,-1
 289 326 l 1,23,-1
 147 326 l 1,24,-1
 147 78 l 1,25,-1
 225 78 l 2,13,14
EndSplineSet
Validated: 1
Substitution2: "'c2sc' Capitals to Small Capitals lookup 34 subtable" eth.sc
Substitution2: "'aalt' Access All Alternates lookup 0 subtable" eth.sc
EndChar

StartChar: multiply
Encoding: 215 215 153
Width: 530
Flags: W
LayerCount: 2
Fore
SplineSet
120 160 m 1,0,-1
 73 208 l 1,1,-1
 216 353 l 1,2,-1
 72 497 l 1,3,-1
 120 545 l 1,4,-1
 264 401 l 1,5,-1
 410 546 l 1,6,-1
 459 499 l 1,7,-1
 313 353 l 1,8,-1
 456 208 l 1,9,-1
 409 161 l 1,10,-1
 264 305 l 1,11,-1
 120 160 l 1,0,-1
EndSplineSet
Validated: 1
EndChar

StartChar: Oslash
Encoding: 216 216 154
Width: 530
GlyphClass: 2
Flags: W
AnchorPoint: "Anchor-3" 265 357 basechar 0
AnchorPoint: "Anchor-2" 530 714 basechar 0
AnchorPoint: "Anchor-1" 265 714 basechar 0
AnchorPoint: "Anchor-0" 265 0 basechar 0
LayerCount: 2
Fore
SplineSet
69 -39 m 1,0,-1
 10 -6 l 1,1,-1
 77 108 l 1,2,3
 53 157 53 157 42 221 c 128,-1,4
 31 285 31 285 31 358 c 0,5,6
 31 533 31 533 88 629.5 c 128,-1,7
 145 726 145 726 265 726 c 0,8,9
 311 726 311 726 346.5 711 c 128,-1,10
 382 696 382 696 409 669 c 1,11,-1
 457 750 l 1,12,-1
 515 716 l 1,13,-1
 452 609 l 1,14,15
 476 560 476 560 487.5 496 c 128,-1,16
 499 432 499 432 499 358 c 0,17,18
 499 253 499 253 476 169.5 c 128,-1,19
 453 86 453 86 402 38 c 128,-1,20
 351 -10 351 -10 265 -10 c 0,21,22
 219 -10 219 -10 183 5 c 128,-1,23
 147 20 147 20 120 47 c 1,24,-1
 69 -39 l 1,0,-1
118 358 m 0,25,26
 118 266 118 266 133 202 c 1,27,-1
 365 595 l 1,28,29
 329 650 329 650 266 650 c 0,30,31
 186 650 186 650 152 574 c 128,-1,32
 118 498 118 498 118 358 c 0,25,26
266 67 m 0,33,34
 342 67 342 67 377 141.5 c 128,-1,35
 412 216 412 216 412 358 c 0,36,37
 412 452 412 452 397 516 c 1,38,-1
 165 123 l 1,39,40
 201 67 201 67 266 67 c 0,33,34
EndSplineSet
Validated: 1
Substitution2: "'c2sc' Capitals to Small Capitals lookup 34 subtable" oslash.sc
Substitution2: "'aalt' Access All Alternates lookup 0 subtable" oslash.sc
EndChar

StartChar: Thorn
Encoding: 222 222 160
Width: 530
GlyphClass: 2
Flags: W
AnchorPoint: "Anchor-1" 265 714 basechar 0
AnchorPoint: "Anchor-0" 265 0 basechar 0
LayerCount: 2
Fore
SplineSet
74 0 m 1,0,-1
 74 714 l 1,1,-1
 158 714 l 1,2,-1
 158 591 l 1,3,-1
 264 591 l 2,4,5
 377 591 377 591 429.5 536.5 c 128,-1,6
 482 482 482 482 482 382 c 0,7,8
 482 318 482 318 459.5 266.5 c 128,-1,9
 437 215 437 215 387 184.5 c 128,-1,10
 337 154 337 154 253 154 c 2,11,-1
 158 154 l 1,12,-1
 158 0 l 1,13,-1
 74 0 l 1,0,-1
245 231 m 2,14,15
 320 231 320 231 357 264.5 c 128,-1,16
 394 298 394 298 394 377 c 0,17,18
 394 446 394 446 361.5 480 c 128,-1,19
 329 514 329 514 260 514 c 2,20,-1
 158 514 l 1,21,-1
 158 231 l 1,22,-1
 245 231 l 2,14,15
EndSplineSet
Validated: 1048577
Substitution2: "'c2sc' Capitals to Small Capitals lookup 34 subtable" thorn.sc
Substitution2: "'aalt' Access All Alternates lookup 0 subtable" thorn.sc
EndChar

StartChar: germandbls
Encoding: 223 223 161
Width: 530
GlyphClass: 2
Flags: W
AnchorPoint: "Anchor-1" 265 765 basechar 0
AnchorPoint: "Anchor-0" 265 0 basechar 0
LayerCount: 2
Fore
SplineSet
332 -10 m 0,0,1
 301 -10 301 -10 272 -3 c 128,-1,2
 243 4 243 4 221 19 c 1,3,-1
 221 99 l 1,4,5
 242 85 242 85 269 74 c 128,-1,6
 296 63 296 63 326 63 c 0,7,8
 367 63 367 63 386.5 85 c 128,-1,9
 406 107 406 107 406 147 c 0,10,11
 406 185 406 185 388.5 207.5 c 128,-1,12
 371 230 371 230 333 264 c 0,13,14
 298 295 298 295 273.5 327 c 128,-1,15
 249 359 249 359 249 405 c 0,16,17
 249 444 249 444 265 468.5 c 128,-1,18
 281 493 281 493 301.5 513 c 128,-1,19
 322 533 322 533 338 555.5 c 128,-1,20
 354 578 354 578 354 613 c 0,21,22
 354 652 354 652 329 672.5 c 128,-1,23
 304 693 304 693 260 693 c 0,24,25
 212 693 212 693 186.5 664.5 c 128,-1,26
 161 636 161 636 161 574 c 2,27,-1
 161 0 l 1,28,-1
 78 0 l 1,29,-1
 78 587 l 2,30,31
 78 672 78 672 126.5 718.5 c 128,-1,32
 175 765 175 765 263 765 c 0,33,34
 344 765 344 765 392.5 726.5 c 128,-1,35
 441 688 441 688 441 619 c 0,36,37
 441 576 441 576 425 548.5 c 128,-1,38
 409 521 409 521 388.5 500.5 c 128,-1,39
 368 480 368 480 352 459 c 128,-1,40
 336 438 336 438 336 408 c 0,41,42
 336 386 336 386 349 368 c 128,-1,43
 362 350 362 350 395 318 c 0,44,45
 427 286 427 286 448 261.5 c 128,-1,46
 469 237 469 237 479.5 211 c 128,-1,47
 490 185 490 185 490 148 c 0,48,49
 490 71 490 71 448 30.5 c 128,-1,50
 406 -10 406 -10 332 -10 c 0,0,1
EndSplineSet
Validated: 1048577
Substitution2: "'smcp' Lowercase to Small Capitals lookup 35 subtable" germandbls.sc
Substitution2: "'aalt' Access All Alternates lookup 0 subtable" germandbls.sc
EndChar

StartChar: ae
Encoding: 230 230 168
Width: 530
GlyphClass: 2
Flags: W
AnchorPoint: "Anchor-1" 265 536 basechar 0
AnchorPoint: "Anchor-0" 265 0 basechar 0
LayerCount: 2
Fore
SplineSet
135 -10 m 0,0,1
 82 -10 82 -10 49.5 29.5 c 128,-1,2
 17 69 17 69 17 148 c 0,3,4
 17 230 17 230 54.5 273.5 c 128,-1,5
 92 317 92 317 160 320 c 2,6,-1
 220 323 l 1,7,-1
 220 357 l 2,8,9
 220 421 220 421 203 447 c 128,-1,10
 186 473 186 473 152 473 c 0,11,12
 130 473 130 473 107 463 c 128,-1,13
 84 453 84 453 67 436 c 1,14,-1
 38 499 l 1,15,16
 61 519 61 519 94 532.5 c 128,-1,17
 127 546 127 546 160 546 c 0,18,19
 200 546 200 546 229 527 c 128,-1,20
 258 508 258 508 274 464 c 1,21,22
 289 502 289 502 315.5 524 c 128,-1,23
 342 546 342 546 381 546 c 0,24,25
 444 546 444 546 479 483.5 c 128,-1,26
 514 421 514 421 514 306 c 2,27,-1
 514 252 l 1,28,-1
 300 252 l 1,29,30
 301 179 301 179 314.5 138 c 128,-1,31
 328 97 328 97 351.5 80 c 128,-1,32
 375 63 375 63 405 63 c 0,33,34
 430 63 430 63 452.5 72.5 c 128,-1,35
 475 82 475 82 500 104 c 1,36,-1
 500 26 l 1,37,38
 475 6 475 6 451 -2 c 128,-1,39
 427 -10 427 -10 398 -10 c 0,40,41
 354 -10 354 -10 317.5 14.5 c 128,-1,42
 281 39 281 39 261 102 c 1,43,44
 242 40 242 40 211 15 c 128,-1,45
 180 -10 180 -10 135 -10 c 0,0,1
439 322 m 1,46,47
 439 473 439 473 374 473 c 0,48,49
 307 473 307 473 302 322 c 1,50,-1
 439 322 l 1,46,47
148 63 m 0,51,52
 178 63 178 63 199 96.5 c 128,-1,53
 220 130 220 130 220 214 c 2,54,-1
 220 258 l 1,55,-1
 184 256 l 2,56,57
 141 253 141 253 116.5 227.5 c 128,-1,58
 92 202 92 202 92 148 c 0,59,60
 92 103 92 103 108.5 83 c 128,-1,61
 125 63 125 63 148 63 c 0,51,52
EndSplineSet
Validated: 1048577
Substitution2: "'smcp' Lowercase to Small Capitals lookup 35 subtable" ae.sc
Substitution2: "'aalt' Access All Alternates lookup 0 subtable" ae.sc
EndChar

StartChar: eth
Encoding: 240 240 178
Width: 530
GlyphClass: 2
Flags: W
AnchorPoint: "Anchor-3" 265 268 basechar 0
AnchorPoint: "Anchor-2" 510 760 basechar 0
AnchorPoint: "Anchor-1" 265 765 basechar 0
AnchorPoint: "Anchor-0" 265 0 basechar 0
LayerCount: 2
Fore
SplineSet
267 -10 m 0,0,1
 200 -10 200 -10 150 21 c 128,-1,2
 100 52 100 52 72.5 106.5 c 128,-1,3
 45 161 45 161 45 233 c 0,4,5
 45 346 45 346 102 410 c 128,-1,6
 159 474 159 474 255 474 c 0,7,8
 300 474 300 474 334.5 461 c 128,-1,9
 369 448 369 448 390 420 c 1,10,-1
 394 422 l 1,11,12
 379 478 379 478 349 526 c 128,-1,13
 319 574 319 574 278 614 c 1,14,-1
 169 548 l 1,15,-1
 134 603 l 1,16,-1
 227 659 l 1,17,18
 193 685 193 685 154 709 c 1,19,-1
 190 764 l 1,20,21
 246 736 246 736 293 698 c 1,22,-1
 403 764 l 1,23,-1
 438 710 l 1,24,-1
 342 652 l 1,25,26
 412 578 412 578 449 480 c 128,-1,27
 486 382 486 382 486 269 c 0,28,29
 486 131 486 131 428.5 60.5 c 128,-1,30
 371 -10 371 -10 267 -10 c 0,0,1
269 61 m 0,31,32
 337 61 337 61 368 108.5 c 128,-1,33
 399 156 399 156 399 247 c 0,34,35
 399 289 399 289 385 324.5 c 128,-1,36
 371 360 371 360 342.5 381.5 c 128,-1,37
 314 403 314 403 269 403 c 0,38,39
 197 403 197 403 164 358.5 c 128,-1,40
 131 314 131 314 131 230 c 0,41,42
 131 158 131 158 164 109.5 c 128,-1,43
 197 61 197 61 269 61 c 0,31,32
EndSplineSet
Validated: 1
Substitution2: "'smcp' Lowercase to Small Capitals lookup 35 subtable" eth.sc
Substitution2: "'aalt' Access All Alternates lookup 0 subtable" eth.sc
EndChar

StartChar: divide
Encoding: 247 247 185
Width: 530
Flags: W
LayerCount: 2
Fore
SplineSet
266 467 m 0,0,1
 242 467 242 467 228 482 c 128,-1,2
 214 497 214 497 214 529 c 0,3,4
 214 590 214 590 266 590 c 0,5,6
 290 590 290 590 303.5 575 c 128,-1,7
 317 560 317 560 317 529 c 0,8,9
 317 497 317 497 302.5 482 c 128,-1,10
 288 467 288 467 266 467 c 0,0,1
70 318 m 1,11,-1
 70 387 l 1,12,-1
 460 387 l 1,13,-1
 460 318 l 1,14,-1
 70 318 l 1,11,-1
266 115 m 0,15,16
 242 115 242 115 228 130 c 128,-1,17
 214 145 214 145 214 176 c 0,18,19
 214 238 214 238 266 238 c 0,20,21
 290 238 290 238 303.5 223 c 128,-1,22
 317 208 317 208 317 176 c 0,23,24
 317 145 317 145 302.5 130 c 128,-1,25
 288 115 288 115 266 115 c 0,15,16
EndSplineSet
Validated: 1
EndChar

StartChar: oslash
Encoding: 248 248 186
Width: 530
GlyphClass: 2
Flags: W
AnchorPoint: "Anchor-3" 265 268 basechar 0
AnchorPoint: "Anchor-2" 510 536 basechar 0
AnchorPoint: "Anchor-1" 265 536 basechar 0
AnchorPoint: "Anchor-0" 265 0 basechar 0
LayerCount: 2
Fore
SplineSet
117 -45 m 1,0,-1
 63 -11 l 1,1,-1
 107 60 l 1,2,3
 77 95 77 95 61 148 c 128,-1,4
 45 201 45 201 45 270 c 0,5,6
 45 404 45 404 104 475.5 c 128,-1,7
 163 547 163 547 263 547 c 0,8,9
 337 547 337 547 390 508 c 1,10,-1
 431 573 l 1,11,-1
 487 540 l 1,12,-1
 436 459 l 1,13,14
 460 425 460 425 473 376.5 c 128,-1,15
 486 328 486 328 486 267 c 0,16,17
 486 133 486 133 426 61.5 c 128,-1,18
 366 -10 366 -10 266 -10 c 0,19,20
 204 -10 204 -10 157 18 c 1,21,-1
 117 -45 l 1,0,-1
131 269 m 0,22,23
 131 186 131 186 155 135 c 1,24,-1
 348 442 l 1,25,26
 316 475 316 475 264 475 c 0,27,28
 199 475 199 475 165 422.5 c 128,-1,29
 131 370 131 370 131 269 c 0,22,23
265 62 m 0,30,31
 330 62 330 62 364 115 c 128,-1,32
 398 168 398 168 398 268 c 0,33,34
 398 332 398 332 384 377 c 1,35,-1
 197 81 l 1,36,37
 226 62 226 62 265 62 c 0,30,31
EndSplineSet
Validated: 1
Substitution2: "'smcp' Lowercase to Small Capitals lookup 35 subtable" oslash.sc
Substitution2: "'aalt' Access All Alternates lookup 0 subtable" oslash.sc
EndChar

StartChar: thorn
Encoding: 254 254 192
Width: 530
GlyphClass: 2
Flags: W
AnchorPoint: "Anchor-1" 285 760 basechar 0
AnchorPoint: "Anchor-0" 285 -240 basechar 0
LayerCount: 2
Fore
SplineSet
66 -240 m 1,0,-1
 66 760 l 1,1,-1
 150 760 l 1,2,-1
 150 548 l 2,3,4
 150 523 150 523 149.5 504 c 128,-1,5
 149 485 149 485 147 464 c 1,6,-1
 151 464 l 1,7,8
 172 499 172 499 207.5 523 c 128,-1,9
 243 547 243 547 296 547 c 0,10,11
 384 547 384 547 435 476.5 c 128,-1,12
 486 406 486 406 486 269 c 256,13,14
 486 132 486 132 433.5 61 c 128,-1,15
 381 -10 381 -10 295 -10 c 0,16,17
 243 -10 243 -10 208 13.5 c 128,-1,18
 173 37 173 37 150 68 c 1,19,-1
 145 68 l 1,20,21
 148 48 148 48 149 28.5 c 128,-1,22
 150 9 150 9 150 -11 c 2,23,-1
 150 -240 l 1,24,-1
 66 -240 l 1,0,-1
276 63 m 0,25,26
 337 63 337 63 367.5 116 c 128,-1,27
 398 169 398 169 398 270 c 0,28,29
 398 474 398 474 275 474 c 0,30,31
 208 474 208 474 179 425.5 c 128,-1,32
 150 377 150 377 150 289 c 2,33,-1
 150 269 l 2,34,35
 150 172 150 172 179 117.5 c 128,-1,36
 208 63 208 63 276 63 c 0,25,26
EndSplineSet
Validated: 1048577
Substitution2: "'smcp' Lowercase to Small Capitals lookup 35 subtable" thorn.sc
Substitution2: "'aalt' Access All Alternates lookup 0 subtable" thorn.sc
EndChar

StartChar: dcaron
Encoding: 271 271 209
Width: 530
GlyphClass: 2
Flags: W
AnchorPoint: "Anchor-3" 225 268 basechar 0
AnchorPoint: "Anchor-2" 482 760 basechar 0
AnchorPoint: "Anchor-1" 271 760 basechar 0
AnchorPoint: "Anchor-0" 237 0 basechar 0
LayerCount: 2
Fore
SplineSet
211 -10 m 0,0,1
 130 -10 130 -10 82.5 60 c 128,-1,2
 35 130 35 130 35 267 c 256,3,4
 35 404 35 404 83 475.5 c 128,-1,5
 131 547 131 547 215 547 c 0,6,7
 266 547 266 547 297 524 c 128,-1,8
 328 501 328 501 348 467 c 1,9,-1
 353 467 l 1,10,11
 350 487 350 487 348.5 507 c 128,-1,12
 347 527 347 527 347 548 c 2,13,-1
 347 760 l 1,14,-1
 431 760 l 1,15,-1
 431 0 l 1,16,-1
 365 0 l 1,17,-1
 351 72 l 1,18,-1
 347 72 l 1,19,20
 327 37 327 37 294 13.5 c 128,-1,21
 261 -10 261 -10 211 -10 c 0,0,1
465 609 m 1,22,23
 470 625 470 625 476 653.5 c 128,-1,24
 482 682 482 682 487 711.5 c 128,-1,25
 492 741 492 741 494 760 c 1,26,-1
 580 760 l 1,27,-1
 580 753 l 1,28,29
 576 733 576 733 565 705 c 128,-1,30
 554 677 554 677 539.5 648.5 c 128,-1,31
 525 620 525 620 512 600 c 1,32,-1
 465 600 l 1,33,-1
 465 609 l 1,22,23
234 63 m 0,34,35
 296 63 296 63 322 113 c 128,-1,36
 348 163 348 163 348 247 c 2,37,-1
 348 267 l 2,38,39
 348 360 348 360 324 417 c 128,-1,40
 300 474 300 474 237 474 c 0,41,42
 122 474 122 474 122 262 c 0,43,44
 122 162 122 162 148 112.5 c 128,-1,45
 174 63 174 63 234 63 c 0,34,35
EndSplineSet
Validated: 1
Substitution2: "'smcp' Lowercase to Small Capitals lookup 35 subtable" dcaron.sc
Substitution2: "'aalt' Access All Alternates lookup 0 subtable" dcaron.sc
EndChar

StartChar: dcroat
Encoding: 273 273 211
Width: 530
GlyphClass: 2
Flags: W
AnchorPoint: "Anchor-3" 265 268 basechar 0
AnchorPoint: "Anchor-2" 510 760 basechar 0
AnchorPoint: "Anchor-1" 265 760 basechar 0
AnchorPoint: "Anchor-0" 265 0 basechar 0
LayerCount: 2
Fore
SplineSet
237 -10 m 0,0,1
 149 -10 149 -10 97 59 c 128,-1,2
 45 128 45 128 45 264 c 256,3,4
 45 400 45 400 96.5 471 c 128,-1,5
 148 542 148 542 241 542 c 0,6,7
 292 542 292 542 326.5 519 c 128,-1,8
 361 496 361 496 381 462 c 1,9,-1
 386 462 l 1,10,11
 384 480 384 480 382 502 c 128,-1,12
 380 524 380 524 380 542 c 2,13,-1
 380 605 l 1,14,-1
 206 605 l 1,15,-1
 206 670 l 1,16,-1
 380 670 l 1,17,-1
 380 760 l 1,18,-1
 464 760 l 1,19,-1
 464 670 l 1,20,-1
 530 670 l 1,21,-1
 530 605 l 1,22,-1
 464 605 l 1,23,-1
 464 0 l 1,24,-1
 398 0 l 1,25,-1
 384 72 l 1,26,-1
 380 72 l 1,27,28
 360 38 360 38 325.5 14 c 128,-1,29
 291 -10 291 -10 237 -10 c 0,0,1
260 63 m 0,30,31
 326 63 326 63 353.5 111.5 c 128,-1,32
 381 160 381 160 381 243 c 2,33,-1
 381 263 l 2,34,35
 381 358 381 358 356 413.5 c 128,-1,36
 331 469 331 469 263 469 c 0,37,38
 132 469 132 469 132 256 c 0,39,40
 132 160 132 160 161.5 111.5 c 128,-1,41
 191 63 191 63 260 63 c 0,30,31
EndSplineSet
Validated: 1
Substitution2: "'smcp' Lowercase to Small Capitals lookup 35 subtable" dcroat.sc
Substitution2: "'aalt' Access All Alternates lookup 0 subtable" dcroat.sc
EndChar

StartChar: eogonek
Encoding: 281 281 219
Width: 530
GlyphClass: 2
Flags: W
AnchorPoint: "Anchor-2" 510 536 basechar 0
AnchorPoint: "Anchor-1" 265 536 basechar 0
AnchorPoint: "Anchor-0" 278 -223 basechar 0
LayerCount: 2
Fore
SplineSet
301 -10 m 0,0,1
 184 -10 184 -10 117 61 c 128,-1,2
 50 132 50 132 50 265 c 0,3,4
 50 397 50 397 110 472 c 128,-1,5
 170 547 170 547 273 547 c 0,6,7
 339 547 339 547 385 516 c 128,-1,8
 431 485 431 485 456 429.5 c 128,-1,9
 481 374 481 374 481 300 c 2,10,-1
 481 250 l 1,11,-1
 136 250 l 1,12,13
 139 153 139 153 182 108 c 128,-1,14
 225 63 225 63 304 63 c 0,15,16
 345 63 345 63 382 74.5 c 128,-1,17
 419 86 419 86 459 105 c 1,18,-1
 459 27 l 1,19,20
 423 -2 423 -2 402.5 -37.5 c 128,-1,21
 382 -73 382 -73 382 -107 c 0,22,23
 382 -164 382 -164 430 -164 c 0,24,25
 448 -164 448 -164 463 -158 c 1,26,-1
 463 -214 l 1,27,28
 441 -223 441 -223 413 -223 c 0,29,30
 362 -223 362 -223 337.5 -193.5 c 128,-1,31
 313 -164 313 -164 313 -118 c 0,32,33
 313 -84 313 -84 326 -56 c 128,-1,34
 339 -28 339 -28 360 -5 c 1,35,36
 332 -10 332 -10 301 -10 c 0,0,1
396 321 m 1,37,38
 395 389 395 389 363.5 431.5 c 128,-1,39
 332 474 332 474 272 474 c 0,40,41
 214 474 214 474 179.5 433.5 c 128,-1,42
 145 393 145 393 138 321 c 1,43,-1
 396 321 l 1,37,38
EndSplineSet
Validated: 1048577
Substitution2: "'smcp' Lowercase to Small Capitals lookup 35 subtable" eogonek.sc
Substitution2: "'locl' Localized Forms in Latin lookup 10 subtable" eogonek.loclNAV
Ligature2: "'ccmp' Glyph Composition/Decomposition lookup 6 subtable" e uni0328
AlternateSubs2: "'aalt' Access All Alternates lookup 1 subtable" eogonek.loclNAV eogonek.sc
EndChar

StartChar: uni0123
Encoding: 291 291 229
Width: 530
GlyphClass: 2
Flags: W
AnchorPoint: "Anchor-2" 510 536 basechar 0
AnchorPoint: "Anchor-1" 269 766 basechar 0
AnchorPoint: "Anchor-0" 265 -245 basechar 0
LayerCount: 2
Fore
SplineSet
201 614 m 1,0,1
 206 634 206 634 218 661.5 c 128,-1,2
 230 689 230 689 246 717 c 128,-1,3
 262 745 262 745 279 766 c 1,4,-1
 328 766 l 1,5,-1
 328 755 l 1,6,7
 320 737 320 737 311.5 710 c 128,-1,8
 303 683 303 683 296 654.5 c 128,-1,9
 289 626 289 626 287 606 c 1,10,-1
 201 606 l 1,11,-1
 201 614 l 1,0,1
244 -245 m 0,12,13
 152 -245 152 -245 78 -210 c 1,14,-1
 78 -130 l 1,15,16
 115 -150 115 -150 161 -161 c 128,-1,17
 207 -172 207 -172 244 -172 c 0,18,19
 317 -172 317 -172 349 -130.5 c 128,-1,20
 381 -89 381 -89 381 -19 c 2,21,-1
 381 5 l 2,22,23
 381 17 381 17 382 36 c 128,-1,24
 383 55 383 55 384 68 c 1,25,-1
 381 68 l 1,26,27
 357 27 357 27 321.5 9 c 128,-1,28
 286 -9 286 -9 241 -9 c 0,29,30
 149 -9 149 -9 97 63 c 128,-1,31
 45 135 45 135 45 266 c 0,32,33
 45 396 45 396 96.5 471.5 c 128,-1,34
 148 547 148 547 239 547 c 0,35,36
 332 547 332 547 381 467 c 1,37,-1
 386 467 l 1,38,-1
 396 536 l 1,39,-1
 464 536 l 1,40,-1
 464 -14 l 2,41,42
 464 -245 464 -245 244 -245 c 0,12,13
265 63 m 0,43,44
 324 63 324 63 354.5 107 c 128,-1,45
 385 151 385 151 385 246 c 2,46,-1
 385 267 l 2,47,48
 385 375 385 375 354 424.5 c 128,-1,49
 323 474 323 474 262 474 c 0,50,51
 196 474 196 474 164 420 c 128,-1,52
 132 366 132 366 132 267 c 0,53,54
 132 167 132 167 165 115 c 128,-1,55
 198 63 198 63 265 63 c 0,43,44
EndSplineSet
Validated: 1048577
Substitution2: "'smcp' Lowercase to Small Capitals lookup 35 subtable" uni0123.sc
Substitution2: "'aalt' Access All Alternates lookup 0 subtable" uni0123.sc
EndChar

StartChar: Hbar
Encoding: 294 294 232
Width: 530
GlyphClass: 2
Flags: W
AnchorPoint: "Anchor-3" 265 357 basechar 0
AnchorPoint: "Anchor-1" 265 714 basechar 0
AnchorPoint: "Anchor-0" 265 0 basechar 0
LayerCount: 2
Fore
SplineSet
53 0 m 1,0,-1
 53 526 l 1,1,-1
 0 526 l 1,2,-1
 0 595 l 1,3,-1
 53 595 l 1,4,-1
 53 714 l 1,5,-1
 138 714 l 1,6,-1
 138 595 l 1,7,-1
 392 595 l 1,8,-1
 392 714 l 1,9,-1
 478 714 l 1,10,-1
 478 595 l 1,11,-1
 530 595 l 1,12,-1
 530 526 l 1,13,-1
 478 526 l 1,14,-1
 478 0 l 1,15,-1
 392 0 l 1,16,-1
 392 331 l 1,17,-1
 138 331 l 1,18,-1
 138 0 l 1,19,-1
 53 0 l 1,0,-1
138 410 m 1,20,-1
 392 410 l 1,21,-1
 392 526 l 1,22,-1
 138 526 l 1,23,-1
 138 410 l 1,20,-1
EndSplineSet
Validated: 1048577
Substitution2: "'c2sc' Capitals to Small Capitals lookup 34 subtable" hbar.sc
Substitution2: "'aalt' Access All Alternates lookup 0 subtable" hbar.sc
EndChar

StartChar: hbar
Encoding: 295 295 233
Width: 530
GlyphClass: 2
Flags: W
AnchorPoint: "Anchor-3" 265 268 basechar 0
AnchorPoint: "Anchor-1" 108 760 basechar 0
AnchorPoint: "Anchor-0" 265 0 basechar 0
LayerCount: 2
Fore
SplineSet
66 0 m 1,0,-1
 66 605 l 1,1,-1
 0 605 l 1,2,-1
 0 670 l 1,3,-1
 66 670 l 1,4,-1
 66 760 l 1,5,-1
 150 760 l 1,6,-1
 150 670 l 1,7,-1
 324 670 l 1,8,-1
 324 605 l 1,9,-1
 150 605 l 1,10,-1
 150 536 l 2,11,12
 150 518 150 518 148.5 497 c 128,-1,13
 147 476 147 476 146 459 c 1,14,-1
 151 459 l 1,15,16
 173 500 173 500 209 523.5 c 128,-1,17
 245 547 245 547 298 547 c 0,18,19
 373 547 373 547 421 500 c 128,-1,20
 469 453 469 453 469 350 c 2,21,-1
 469 0 l 1,22,-1
 385 0 l 1,23,-1
 385 333 l 2,24,25
 385 474 385 474 278 474 c 0,26,27
 215 474 215 474 182.5 422.5 c 128,-1,28
 150 371 150 371 150 279 c 2,29,-1
 150 0 l 1,30,-1
 66 0 l 1,0,-1
EndSplineSet
Validated: 1048577
Substitution2: "'smcp' Lowercase to Small Capitals lookup 35 subtable" hbar.sc
Substitution2: "'aalt' Access All Alternates lookup 0 subtable" hbar.sc
EndChar

StartChar: IJ
Encoding: 306 306 243
Width: 530
GlyphClass: 2
Flags: W
AnchorPoint: "Anchor-1" 265 714 basechar 0
AnchorPoint: "Anchor-0" 265 0 basechar 0
LayerCount: 2
Fore
SplineSet
246 -10 m 0,0,1
 207 -10 207 -10 163.5 -2 c 128,-1,2
 120 6 120 6 99 19 c 1,3,-1
 99 101 l 1,4,5
 109 96 109 96 131.5 88.5 c 128,-1,6
 154 81 154 81 182 75.5 c 128,-1,7
 210 70 210 70 237 70 c 0,8,9
 290 70 290 70 322.5 104.5 c 128,-1,10
 355 139 355 139 355 222 c 2,11,-1
 355 714 l 1,12,-1
 441 714 l 1,13,-1
 441 210 l 2,14,15
 441 104 441 104 391 47 c 128,-1,16
 341 -10 341 -10 246 -10 c 0,0,1
97 186 m 1,17,-1
 97 714 l 1,18,-1
 182 714 l 1,19,-1
 182 186 l 1,20,-1
 97 186 l 1,17,-1
EndSplineSet
Validated: 1048577
Substitution2: "'c2sc' Capitals to Small Capitals lookup 34 subtable" ij.sc
Substitution2: "'aalt' Access All Alternates lookup 0 subtable" ij.sc
EndChar

StartChar: ij
Encoding: 307 307 244
Width: 530
GlyphClass: 2
Flags: W
AnchorPoint: "Anchor-1" 269 764 basechar 0
AnchorPoint: "Anchor-0" 278 -245 basechar 0
LayerCount: 2
Fore
SplineSet
144 633 m 0,0,1
 118 633 118 633 102 649.5 c 128,-1,2
 86 666 86 666 86 698 c 0,3,4
 86 731 86 731 102 747.5 c 128,-1,5
 118 764 118 764 144 764 c 256,6,7
 170 764 170 764 186.5 748 c 128,-1,8
 203 732 203 732 203 698 c 0,9,10
 203 665 203 665 186 649 c 128,-1,11
 169 633 169 633 144 633 c 0,0,1
385 633 m 0,12,13
 359 633 359 633 343 649.5 c 128,-1,14
 327 666 327 666 327 698 c 0,15,16
 327 731 327 731 343 747.5 c 128,-1,17
 359 764 359 764 385 764 c 256,18,19
 411 764 411 764 427.5 748 c 128,-1,20
 444 732 444 732 444 698 c 0,21,22
 444 665 444 665 427 649 c 128,-1,23
 410 633 410 633 385 633 c 0,12,13
237 -245 m 0,24,25
 207 -245 207 -245 172.5 -240 c 128,-1,26
 138 -235 138 -235 113 -228 c 1,27,-1
 113 -152 l 1,28,29
 138 -160 138 -160 172 -165.5 c 128,-1,30
 206 -171 206 -171 233 -171 c 0,31,32
 347 -171 347 -171 347 -59 c 2,33,-1
 347 536 l 1,34,-1
 431 536 l 1,35,-1
 431 -59 l 2,36,37
 431 -152 431 -152 380.5 -198.5 c 128,-1,38
 330 -245 330 -245 237 -245 c 0,24,25
101 0 m 1,39,-1
 101 536 l 1,40,-1
 185 536 l 1,41,-1
 185 0 l 1,42,-1
 101 0 l 1,39,-1
EndSplineSet
Validated: 1048577
Substitution2: "'smcp' Lowercase to Small Capitals lookup 35 subtable" ij.sc
Substitution2: "'aalt' Access All Alternates lookup 0 subtable" ij.sc
EndChar

StartChar: kgreenlandic
Encoding: 312 312 249
Width: 530
GlyphClass: 2
Flags: W
AnchorPoint: "Anchor-1" 265 536 basechar 0
AnchorPoint: "Anchor-0" 265 0 basechar 0
LayerCount: 2
Fore
SplineSet
77 0 m 1,0,-1
 77 536 l 1,1,-1
 161 536 l 1,2,-1
 161 405 l 2,3,4
 161 371 161 371 159.5 336.5 c 128,-1,5
 158 302 158 302 155 265 c 1,6,-1
 156 265 l 1,7,8
 171 286 171 286 184.5 303 c 128,-1,9
 198 320 198 320 215 339 c 2,10,-1
 388 536 l 1,11,-1
 492 536 l 1,12,-1
 284 304 l 1,13,-1
 505 0 l 1,14,-1
 404 0 l 1,15,-1
 226 245 l 1,16,-1
 161 191 l 1,17,-1
 161 0 l 1,18,-1
 77 0 l 1,0,-1
EndSplineSet
Validated: 1048577
EndChar

StartChar: Lcaron
Encoding: 317 317 254
Width: 530
GlyphClass: 2
Flags: W
AnchorPoint: "Anchor-3" 265 357 basechar 0
AnchorPoint: "Anchor-2" 388 714 basechar 0
AnchorPoint: "Anchor-1" 128 714 basechar 0
AnchorPoint: "Anchor-0" 265 0 basechar 0
LayerCount: 2
Fore
SplineSet
351 563 m 1,0,1
 356 579 356 579 362 607.5 c 128,-1,2
 368 636 368 636 373 665.5 c 128,-1,3
 378 695 378 695 380 714 c 1,4,-1
 466 714 l 1,5,-1
 466 707 l 1,6,7
 462 687 462 687 451 659 c 128,-1,8
 440 631 440 631 425.5 602.5 c 128,-1,9
 411 574 411 574 398 554 c 1,10,-1
 351 554 l 1,11,-1
 351 563 l 1,0,1
87 0 m 1,12,-1
 87 714 l 1,13,-1
 173 714 l 1,14,-1
 173 81 l 1,15,-1
 463 81 l 1,16,-1
 463 0 l 1,17,-1
 87 0 l 1,12,-1
EndSplineSet
Validated: 1
Substitution2: "'c2sc' Capitals to Small Capitals lookup 34 subtable" lcaron.sc
Substitution2: "'aalt' Access All Alternates lookup 0 subtable" lcaron.sc
EndChar

StartChar: lcaron
Encoding: 318 318 255
Width: 530
GlyphClass: 2
Flags: W
AnchorPoint: "Anchor-3" 273 375 basechar 0
AnchorPoint: "Anchor-2" 436 760 basechar 0
AnchorPoint: "Anchor-1" 265 760 basechar 0
AnchorPoint: "Anchor-0" 265 0 basechar 0
LayerCount: 2
Fore
SplineSet
382 609 m 1,0,1
 387 625 387 625 393 653.5 c 128,-1,2
 399 682 399 682 404 711.5 c 128,-1,3
 409 741 409 741 411 760 c 1,4,-1
 497 760 l 1,5,-1
 497 753 l 1,6,7
 493 733 493 733 482 705 c 128,-1,8
 471 677 471 677 456.5 648.5 c 128,-1,9
 442 620 442 620 429 600 c 1,10,-1
 382 600 l 1,11,-1
 382 609 l 1,0,1
77 0 m 1,12,-1
 77 59 l 1,13,-1
 230 71 l 1,14,-1
 230 689 l 1,15,-1
 80 700 l 1,16,-1
 80 760 l 1,17,-1
 314 760 l 1,18,-1
 314 71 l 1,19,-1
 460 59 l 1,20,-1
 460 0 l 1,21,-1
 77 0 l 1,12,-1
EndSplineSet
Validated: 1
Substitution2: "'smcp' Lowercase to Small Capitals lookup 35 subtable" lcaron.sc
Substitution2: "'aalt' Access All Alternates lookup 0 subtable" lcaron.sc
EndChar

StartChar: Lslash
Encoding: 321 321 258
Width: 530
GlyphClass: 2
Flags: W
AnchorPoint: "Anchor-3" 298 357 basechar 0
AnchorPoint: "Anchor-2" 421 714 basechar 0
AnchorPoint: "Anchor-1" 166 714 basechar 0
AnchorPoint: "Anchor-0" 311 0 basechar 0
LayerCount: 2
Fore
SplineSet
120 0 m 1,0,-1
 120 274 l 1,1,-1
 68 242 l 1,2,-1
 32 302 l 1,3,-1
 120 356 l 1,4,-1
 120 714 l 1,5,-1
 206 714 l 1,6,-1
 206 408 l 1,7,-1
 332 486 l 1,8,-1
 369 426 l 1,9,-1
 206 326 l 1,10,-1
 206 81 l 1,11,-1
 496 81 l 1,12,-1
 496 0 l 1,13,-1
 120 0 l 1,0,-1
EndSplineSet
Validated: 1
Substitution2: "'c2sc' Capitals to Small Capitals lookup 34 subtable" lslash.sc
Substitution2: "'aalt' Access All Alternates lookup 0 subtable" lslash.sc
EndChar

StartChar: lslash
Encoding: 322 322 259
Width: 530
GlyphClass: 2
Flags: W
AnchorPoint: "Anchor-3" 273 375 basechar 0
AnchorPoint: "Anchor-2" 436 760 basechar 0
AnchorPoint: "Anchor-1" 265 760 basechar 0
AnchorPoint: "Anchor-0" 265 0 basechar 0
LayerCount: 2
Fore
SplineSet
77 0 m 1,0,-1
 77 59 l 1,1,-1
 230 71 l 1,2,-1
 230 295 l 1,3,-1
 149 241 l 1,4,-1
 112 297 l 1,5,-1
 230 377 l 1,6,-1
 230 689 l 1,7,-1
 80 700 l 1,8,-1
 80 760 l 1,9,-1
 314 760 l 1,10,-1
 314 434 l 1,11,-1
 397 489 l 1,12,-1
 435 432 l 1,13,-1
 314 351 l 1,14,-1
 314 71 l 1,15,-1
 460 59 l 1,16,-1
 460 0 l 1,17,-1
 77 0 l 1,0,-1
EndSplineSet
Validated: 1
Substitution2: "'smcp' Lowercase to Small Capitals lookup 35 subtable" lslash.sc
Substitution2: "'aalt' Access All Alternates lookup 0 subtable" lslash.sc
EndChar

StartChar: napostrophe
Encoding: 329 329 266
Width: 530
GlyphClass: 2
Flags: W
AnchorPoint: "Anchor-1" 282 536 basechar 0
AnchorPoint: "Anchor-0" 278 0 basechar 0
LayerCount: 2
Fore
SplineSet
-60 468 m 1,0,1
 -45 528 -45 528 -32.5 595 c 128,-1,2
 -20 662 -20 662 -14 714 c 1,3,-1
 77 714 l 1,4,-1
 84 703 l 1,5,6
 70 643 70 643 49.5 583.5 c 128,-1,7
 29 524 29 524 5 468 c 1,8,-1
 -60 468 l 1,0,1
78 0 m 1,9,-1
 78 536 l 1,10,-1
 146 536 l 1,11,-1
 158 462 l 1,12,-1
 163 462 l 1,13,14
 184 505 184 505 222.5 526 c 128,-1,15
 261 547 261 547 311 547 c 0,16,17
 384 547 384 547 426.5 500 c 128,-1,18
 469 453 469 453 469 352 c 2,19,-1
 469 0 l 1,20,-1
 385 0 l 1,21,-1
 385 345 l 2,22,23
 385 409 385 409 358 441.5 c 128,-1,24
 331 474 331 474 283 474 c 0,25,26
 219 474 219 474 190.5 423 c 128,-1,27
 162 372 162 372 162 278 c 2,28,-1
 162 0 l 1,29,-1
 78 0 l 1,9,-1
EndSplineSet
Validated: 1048577
EndChar

StartChar: Eng
Encoding: 330 330 267
Width: 530
GlyphClass: 2
Flags: W
AnchorPoint: "Anchor-2" 530 714 basechar 0
AnchorPoint: "Anchor-1" 270 714 basechar 0
AnchorPoint: "Anchor-0" 270 -191 basechar 0
LayerCount: 2
Fore
SplineSet
53 0 m 1,0,-1
 53 714 l 1,1,-1
 170 714 l 1,2,-1
 404 96 l 1,3,-1
 408 96 l 1,4,5
 406 126 406 126 402 176.5 c 128,-1,6
 398 227 398 227 398 280 c 2,7,-1
 398 714 l 1,8,-1
 478 714 l 1,9,-1
 478 0 l 1,10,-1
 477 0 l 1,11,12
 476 -97 476 -97 431.5 -144 c 128,-1,13
 387 -191 387 -191 307 -191 c 0,14,15
 264 -191 264 -191 237 -179 c 1,16,-1
 237 -114 l 1,17,18
 268 -124 268 -124 300 -124 c 0,19,20
 343 -124 343 -124 374 -96 c 128,-1,21
 405 -68 405 -68 405 0 c 1,22,-1
 367 0 l 1,23,-1
 126 628 l 1,24,-1
 121 628 l 1,25,26
 125 578 125 578 128.5 529 c 128,-1,27
 132 480 132 480 132 425 c 2,28,-1
 132 0 l 1,29,-1
 53 0 l 1,0,-1
EndSplineSet
Validated: 1048577
Substitution2: "'c2sc' Capitals to Small Capitals lookup 34 subtable" eng.sc
AlternateSubs2: "'aalt' Access All Alternates lookup 1 subtable" Eng.alt1 Eng.alt2 Eng.alt3 eng.sc
EndChar

StartChar: eng
Encoding: 331 331 268
Width: 530
GlyphClass: 2
Flags: W
AnchorPoint: "Anchor-2" 510 536 basechar 0
AnchorPoint: "Anchor-1" 276 536 basechar 0
AnchorPoint: "Anchor-0" 273 -240 basechar 0
LayerCount: 2
Fore
SplineSet
66 0 m 1,0,-1
 66 536 l 1,1,-1
 135 536 l 1,2,-1
 147 462 l 1,3,-1
 152 462 l 1,4,5
 173 505 173 505 213 526 c 128,-1,6
 253 547 253 547 304 547 c 0,7,8
 381 547 381 547 425 500 c 128,-1,9
 469 453 469 453 469 352 c 2,10,-1
 469 -81 l 2,11,12
 469 -155 469 -155 438 -197.5 c 128,-1,13
 407 -240 407 -240 339 -240 c 0,14,15
 318 -240 318 -240 303 -237 c 128,-1,16
 288 -234 288 -234 275 -229 c 1,17,-1
 275 -158 l 1,18,19
 300 -167 300 -167 327 -167 c 0,20,21
 353 -167 353 -167 369 -148.5 c 128,-1,22
 385 -130 385 -130 385 -83 c 2,23,-1
 385 345 l 2,24,25
 385 409 385 409 360.5 441.5 c 128,-1,26
 336 474 336 474 284 474 c 0,27,28
 216 474 216 474 183 423 c 128,-1,29
 150 372 150 372 150 278 c 2,30,-1
 150 0 l 1,31,-1
 66 0 l 1,0,-1
EndSplineSet
Validated: 1048577
Substitution2: "'smcp' Lowercase to Small Capitals lookup 35 subtable" eng.sc
Substitution2: "'aalt' Access All Alternates lookup 0 subtable" eng.sc
EndChar

StartChar: OE
Encoding: 338 338 275
Width: 530
GlyphClass: 2
Flags: W
AnchorPoint: "Anchor-1" 265 714 basechar 0
AnchorPoint: "Anchor-0" 265 0 basechar 0
LayerCount: 2
Fore
SplineSet
219 -10 m 0,0,1
 151 -10 151 -10 109 36 c 128,-1,2
 67 82 67 82 48.5 165 c 128,-1,3
 30 248 30 248 30 359 c 0,4,5
 30 469 30 469 50 551 c 128,-1,6
 70 633 70 633 113.5 678.5 c 128,-1,7
 157 724 157 724 227 724 c 0,8,9
 256 724 256 724 291 714 c 1,10,-1
 504 714 l 1,11,-1
 504 634 l 1,12,-1
 357 634 l 1,13,-1
 357 412 l 1,14,-1
 487 412 l 1,15,-1
 487 333 l 1,16,-1
 357 333 l 1,17,-1
 357 80 l 1,18,-1
 504 80 l 1,19,-1
 504 0 l 1,20,-1
 280 0 l 1,21,22
 266 -4 266 -4 250.5 -7 c 128,-1,23
 235 -10 235 -10 219 -10 c 0,0,1
223 67 m 0,24,25
 237 67 237 67 249.5 70.5 c 128,-1,26
 262 74 262 74 272 81 c 1,27,-1
 272 634 l 1,28,29
 264 642 264 642 252 645.5 c 128,-1,30
 240 649 240 649 224 649 c 0,31,32
 165 649 165 649 140 570.5 c 128,-1,33
 115 492 115 492 115 358 c 256,34,35
 115 224 115 224 139 145.5 c 128,-1,36
 163 67 163 67 223 67 c 0,24,25
EndSplineSet
Validated: 1048577
Substitution2: "'c2sc' Capitals to Small Capitals lookup 34 subtable" oe.sc
Substitution2: "'aalt' Access All Alternates lookup 0 subtable" oe.sc
EndChar

StartChar: oe
Encoding: 339 339 276
Width: 530
GlyphClass: 2
Flags: W
AnchorPoint: "Anchor-1" 265 536 basechar 0
AnchorPoint: "Anchor-0" 265 0 basechar 0
LayerCount: 2
Fore
SplineSet
166 -10 m 0,0,1
 21 -10 21 -10 21 268 c 0,2,3
 21 417 21 417 59 481.5 c 128,-1,4
 97 546 97 546 165 546 c 0,5,6
 204 546 204 546 230.5 524 c 128,-1,7
 257 502 257 502 275 451 c 1,8,9
 312 546 312 546 385 546 c 0,10,11
 448 546 448 546 481 481 c 128,-1,12
 514 416 514 416 514 307 c 2,13,-1
 514 252 l 1,14,-1
 312 252 l 1,15,16
 313 154 313 154 338 108 c 128,-1,17
 363 62 363 62 408 62 c 0,18,19
 430 62 430 62 452 72 c 128,-1,20
 474 82 474 82 497 99 c 1,21,-1
 497 25 l 1,22,23
 452 -10 452 -10 399 -10 c 0,24,25
 357 -10 357 -10 325 13 c 128,-1,26
 293 36 293 36 276 86 c 1,27,28
 258 36 258 36 231.5 13 c 128,-1,29
 205 -10 205 -10 166 -10 c 0,0,1
440 321 m 1,30,31
 439 394 439 394 423.5 434.5 c 128,-1,32
 408 475 408 475 380 475 c 0,33,34
 350 475 350 475 332 430 c 128,-1,35
 314 385 314 385 313 321 c 1,36,-1
 440 321 l 1,30,31
167 62 m 0,37,38
 235 62 235 62 235 267 c 0,39,40
 235 373 235 373 217.5 423.5 c 128,-1,41
 200 474 200 474 165 474 c 0,42,43
 129 474 129 474 112.5 424 c 128,-1,44
 96 374 96 374 96 268 c 0,45,46
 96 168 96 168 112.5 115 c 128,-1,47
 129 62 129 62 167 62 c 0,37,38
EndSplineSet
Validated: 1048577
Substitution2: "'smcp' Lowercase to Small Capitals lookup 35 subtable" oe.sc
Substitution2: "'aalt' Access All Alternates lookup 0 subtable" oe.sc
EndChar

StartChar: tcaron
Encoding: 357 357 294
Width: 530
GlyphClass: 2
Flags: W
AnchorPoint: "Anchor-3" 236 283 basechar 0
AnchorPoint: "Anchor-2" 441 839 basechar 0
AnchorPoint: "Anchor-1" 265 763 basechar 0
AnchorPoint: "Anchor-0" 265 0 basechar 0
LayerCount: 2
Fore
SplineSet
368 613 m 1,0,1
 373 629 373 629 379 657 c 128,-1,2
 385 685 385 685 390 714.5 c 128,-1,3
 395 744 395 744 396 763 c 1,4,-1
 483 763 l 1,5,-1
 483 756 l 1,6,7
 478 737 478 737 467 708.5 c 128,-1,8
 456 680 456 680 442 652 c 128,-1,9
 428 624 428 624 414 603 c 1,10,-1
 368 603 l 1,11,-1
 368 613 l 1,0,1
360 -10 m 0,12,13
 311 -10 311 -10 272.5 4.5 c 128,-1,14
 234 19 234 19 212 53.5 c 128,-1,15
 190 88 190 88 190 149 c 2,16,-1
 190 463 l 1,17,-1
 52 463 l 1,18,-1
 52 517 l 1,19,-1
 192 539 l 1,20,-1
 217 679 l 1,21,-1
 276 679 l 1,22,-1
 276 536 l 1,23,-1
 462 536 l 1,24,-1
 462 463 l 1,25,-1
 275 463 l 1,26,-1
 275 164 l 2,27,28
 275 112 275 112 298.5 87.5 c 128,-1,29
 322 63 322 63 372 63 c 0,30,31
 414 63 414 63 464 77 c 1,32,-1
 464 5 l 1,33,34
 441 -2 441 -2 414 -6 c 128,-1,35
 387 -10 387 -10 360 -10 c 0,12,13
EndSplineSet
Validated: 1
Substitution2: "'smcp' Lowercase to Small Capitals lookup 35 subtable" tcaron.sc
Substitution2: "'aalt' Access All Alternates lookup 0 subtable" tcaron.sc
EndChar

StartChar: Tbar
Encoding: 358 358 295
Width: 530
GlyphClass: 2
Flags: W
AnchorPoint: "Anchor-3" 265 357 basechar 0
AnchorPoint: "Anchor-2" 510 714 basechar 0
AnchorPoint: "Anchor-1" 265 714 basechar 0
AnchorPoint: "Anchor-0" 265 0 basechar 0
LayerCount: 2
Fore
SplineSet
221 0 m 1,0,-1
 221 325 l 1,1,-1
 90 325 l 1,2,-1
 90 397 l 1,3,-1
 221 397 l 1,4,-1
 221 635 l 1,5,-1
 38 635 l 1,6,-1
 38 714 l 1,7,-1
 492 714 l 1,8,-1
 492 635 l 1,9,-1
 307 635 l 1,10,-1
 307 397 l 1,11,-1
 442 397 l 1,12,-1
 442 325 l 1,13,-1
 307 325 l 1,14,-1
 307 0 l 1,15,-1
 221 0 l 1,0,-1
EndSplineSet
Validated: 1
Substitution2: "'c2sc' Capitals to Small Capitals lookup 34 subtable" tbar.sc
Substitution2: "'aalt' Access All Alternates lookup 0 subtable" tbar.sc
EndChar

StartChar: tbar
Encoding: 359 359 296
Width: 530
GlyphClass: 2
Flags: W
AnchorPoint: "Anchor-3" 236 283 basechar 0
AnchorPoint: "Anchor-2" 441 839 basechar 0
AnchorPoint: "Anchor-1" 242 679 basechar 0
AnchorPoint: "Anchor-0" 300 0 basechar 0
LayerCount: 2
Fore
SplineSet
52 278 m 1,0,-1
 52 343 l 1,1,-1
 190 343 l 1,2,-1
 190 463 l 1,3,-1
 52 463 l 1,4,-1
 52 517 l 1,5,-1
 192 539 l 1,6,-1
 217 679 l 1,7,-1
 276 679 l 1,8,-1
 276 536 l 1,9,-1
 462 536 l 1,10,-1
 462 463 l 1,11,-1
 275 463 l 1,12,-1
 275 343 l 1,13,-1
 466 343 l 1,14,-1
 466 278 l 1,15,-1
 275 278 l 1,16,-1
 275 164 l 2,17,18
 275 112 275 112 298.5 87.5 c 128,-1,19
 322 63 322 63 372 63 c 0,20,21
 414 63 414 63 464 77 c 1,22,-1
 464 5 l 1,23,24
 441 -2 441 -2 414 -6 c 128,-1,25
 387 -10 387 -10 360 -10 c 0,26,27
 311 -10 311 -10 272.5 4.5 c 128,-1,28
 234 19 234 19 212 53.5 c 128,-1,29
 190 88 190 88 190 149 c 2,30,-1
 190 278 l 1,31,-1
 52 278 l 1,0,-1
EndSplineSet
Validated: 1
Substitution2: "'smcp' Lowercase to Small Capitals lookup 35 subtable" tbar.sc
Substitution2: "'aalt' Access All Alternates lookup 0 subtable" tbar.sc
EndChar

StartChar: Uogonek
Encoding: 370 370 307
Width: 530
GlyphClass: 2
Flags: W
AnchorPoint: "Anchor-2" 510 714 basechar 0
AnchorPoint: "Anchor-1" 265 714 basechar 0
AnchorPoint: "Anchor-0" 302 -223 basechar 0
LayerCount: 2
Fore
SplineSet
265 -10 m 2,0,1
 157 -10 157 -10 105 51 c 128,-1,2
 53 112 53 112 53 230 c 2,3,-1
 53 714 l 1,4,-1
 138 714 l 1,5,-1
 138 233 l 2,6,7
 138 149 138 149 169 108 c 128,-1,8
 200 67 200 67 266 67 c 0,9,10
 333 67 333 67 362.5 109 c 128,-1,11
 392 151 392 151 392 234 c 2,12,-1
 392 714 l 1,13,-1
 478 714 l 1,14,-1
 477 229 l 2,15,16
 478 149 478 149 453.5 94.5 c 128,-1,17
 429 40 429 40 378 14 c 1,18,19
 329 -17 329 -17 300 -48 c 128,-1,20
 271 -79 271 -79 271 -116 c 0,21,22
 271 -164 271 -164 319 -164 c 0,23,24
 329 -164 329 -164 337.5 -162.5 c 128,-1,25
 346 -161 346 -161 353 -158 c 1,26,-1
 353 -214 l 1,27,28
 342 -218 342 -218 329.5 -220.5 c 128,-1,29
 317 -223 317 -223 301 -223 c 0,30,31
 252 -223 252 -223 227.5 -198 c 128,-1,32
 203 -173 203 -173 203 -131 c 0,33,34
 203 -94 203 -94 222 -63.5 c 128,-1,35
 241 -33 241 -33 271 -10 c 1,36,-1
 265 -10 l 2,0,1
EndSplineSet
Validated: 1048609
Substitution2: "'c2sc' Capitals to Small Capitals lookup 34 subtable" uogonek.sc
Substitution2: "'locl' Localized Forms in Latin lookup 10 subtable" Uogonek.loclNAV
Ligature2: "'ccmp' Glyph Composition/Decomposition lookup 6 subtable" U uni0328
AlternateSubs2: "'aalt' Access All Alternates lookup 1 subtable" Uogonek.loclNAV uogonek.sc
EndChar

StartChar: longs
Encoding: 383 383 320
Width: 530
GlyphClass: 2
Flags: W
AnchorPoint: "Anchor-1" 358 765 basechar 0
AnchorPoint: "Anchor-0" 265 0 basechar 0
LayerCount: 2
Fore
SplineSet
198 575 m 2,0,1
 198 674 198 674 244 719.5 c 128,-1,2
 290 765 290 765 376 765 c 0,3,4
 407 765 407 765 432 760 c 128,-1,5
 457 755 457 755 477 747 c 1,6,-1
 455 680 l 1,7,8
 441 685 441 685 420.5 689 c 128,-1,9
 400 693 400 693 379 693 c 0,10,11
 331 693 331 693 307 664.5 c 128,-1,12
 283 636 283 636 283 562 c 2,13,-1
 283 0 l 1,14,-1
 198 0 l 1,15,-1
 198 575 l 2,0,1
EndSplineSet
Validated: 1048577
EndChar

StartChar: florin
Encoding: 402 402 321
Width: 530
GlyphClass: 2
Flags: W
AnchorPoint: "Anchor-2" 531 765 basechar 0
AnchorPoint: "Anchor-1" 362 764 basechar 0
AnchorPoint: "Anchor-0" 168 0 basechar 0
LayerCount: 2
Fore
SplineSet
166 -244 m 0,0,1
 102 -244 102 -244 65.5 -207.5 c 128,-1,2
 29 -171 29 -171 29 -111 c 0,3,4
 29 -98 29 -98 31.5 -85 c 128,-1,5
 34 -72 34 -72 37 -62 c 1,6,-1
 117 -81 l 1,7,8
 115 -89 115 -89 114 -97 c 128,-1,9
 113 -105 113 -105 113 -113 c 0,10,11
 113 -139 113 -139 126.5 -155.5 c 128,-1,12
 140 -172 140 -172 166 -172 c 0,13,14
 225 -172 225 -172 225 -88 c 2,15,-1
 225 463 l 1,16,-1
 78 463 l 1,17,-1
 78 523 l 1,18,-1
 225 538 l 1,19,-1
 225 589 l 2,20,21
 225 657 225 657 244.5 695 c 128,-1,22
 264 733 264 733 301 749 c 128,-1,23
 338 765 338 765 391 765 c 0,24,25
 425 765 425 765 454.5 760 c 128,-1,26
 484 755 484 755 507 747 c 1,27,-1
 487 679 l 1,28,29
 467 686 467 686 444 689.5 c 128,-1,30
 421 693 421 693 400 693 c 0,31,32
 356 693 356 693 332.5 671.5 c 128,-1,33
 309 650 309 650 309 586 c 2,34,-1
 309 536 l 1,35,-1
 484 536 l 1,36,-1
 484 463 l 1,37,-1
 309 463 l 1,38,-1
 309 -88 l 2,39,40
 309 -159 309 -159 273.5 -201.5 c 128,-1,41
 238 -244 238 -244 166 -244 c 0,0,1
EndSplineSet
Validated: 1048577
Substitution2: "'ss03' Style Set 3 lookup 38 subtable" florin.ss03
EndChar

StartChar: circumflex
Encoding: 710 710 330
Width: 530
Flags: W
LayerCount: 2
Fore
SplineSet
123 616 m 1,0,1
 150 651 150 651 179 692 c 128,-1,2
 208 733 208 733 224 766 c 1,3,-1
 305 766 l 1,4,5
 321 732 321 732 351.5 690 c 128,-1,6
 382 648 382 648 407 616 c 1,7,-1
 407 606 l 1,8,-1
 357 606 l 1,9,10
 335 624 335 624 311.5 649 c 128,-1,11
 288 674 288 674 264 701 c 1,12,13
 240 674 240 674 216.5 648.5 c 128,-1,14
 193 623 193 623 172 606 c 1,15,-1
 123 606 l 1,16,-1
 123 616 l 1,0,1
EndSplineSet
Validated: 1
EndChar

StartChar: caron
Encoding: 711 711 331
Width: 530
GlyphClass: 2
Flags: W
AnchorPoint: "Anchor-1" 264 763 basechar 0
LayerCount: 2
Fore
SplineSet
224 606 m 1,0,1
 207 639 207 639 178 680.5 c 128,-1,2
 149 722 149 722 123 755 c 1,3,-1
 123 766 l 1,4,-1
 172 766 l 1,5,6
 193 749 193 749 217 724 c 128,-1,7
 241 699 241 699 264 673 c 1,8,9
 290 702 290 702 311 722 c 128,-1,10
 332 742 332 742 357 766 c 1,11,-1
 407 766 l 1,12,-1
 407 755 l 1,13,14
 391 735 391 735 371.5 709 c 128,-1,15
 352 683 352 683 334 656 c 128,-1,16
 316 629 316 629 305 606 c 1,17,-1
 224 606 l 1,0,1
EndSplineSet
Validated: 1048577
EndChar

StartChar: breve
Encoding: 728 728 333
Width: 530
GlyphClass: 2
Flags: W
AnchorPoint: "Anchor-1" 266 765 basechar 0
LayerCount: 2
Fore
SplineSet
264 610 m 0,0,1
 204 610 204 610 169.5 644 c 128,-1,2
 135 678 135 678 133 741 c 1,3,-1
 188 741 l 1,4,5
 193 702 193 702 214 685.5 c 128,-1,6
 235 669 235 669 265 669 c 256,7,8
 295 669 295 669 316.5 685.5 c 128,-1,9
 338 702 338 702 343 741 c 1,10,-1
 397 741 l 1,11,12
 396 681 396 681 360.5 645.5 c 128,-1,13
 325 610 325 610 264 610 c 0,0,1
EndSplineSet
Validated: 1048577
EndChar

StartChar: dotaccent
Encoding: 729 729 334
Width: 530
Flags: W
LayerCount: 2
Fore
SplineSet
264 633 m 256,0,1
 238 633 238 633 222 649 c 128,-1,2
 206 665 206 665 206 697 c 0,3,4
 206 731 206 731 222.5 747.5 c 128,-1,5
 239 764 239 764 264 764 c 0,6,7
 290 764 290 764 306.5 747.5 c 128,-1,8
 323 731 323 731 323 697 c 0,9,10
 323 665 323 665 306.5 649 c 128,-1,11
 290 633 290 633 264 633 c 256,0,1
EndSplineSet
Validated: 1
EndChar

StartChar: ring
Encoding: 730 730 335
Width: 530
Flags: W
LayerCount: 2
Fore
SplineSet
265 608 m 0,0,1
 216 608 216 608 187.5 636 c 128,-1,2
 159 664 159 664 159 711 c 0,3,4
 159 757 159 757 187.5 784.5 c 128,-1,5
 216 812 216 812 265 812 c 0,6,7
 311 812 311 812 341.5 785 c 128,-1,8
 372 758 372 758 372 711 c 256,9,10
 372 664 372 664 342.5 636 c 128,-1,11
 313 608 313 608 265 608 c 0,0,1
265 658 m 0,12,13
 289 658 289 658 304 672 c 128,-1,14
 319 686 319 686 319 711 c 0,15,16
 319 734 319 734 304.5 748.5 c 128,-1,17
 290 763 290 763 265 763 c 0,18,19
 242 763 242 763 227 748.5 c 128,-1,20
 212 734 212 734 212 711 c 0,21,22
 212 686 212 686 227 672 c 128,-1,23
 242 658 242 658 265 658 c 0,12,13
EndSplineSet
Validated: 1
EndChar

StartChar: ogonek
Encoding: 731 731 336
Width: 530
Flags: W
LayerCount: 2
Fore
SplineSet
289 -223 m 0,0,1
 240 -223 240 -223 215.5 -199 c 128,-1,2
 191 -175 191 -175 191 -133 c 0,3,4
 191 -88 191 -88 216 -51 c 128,-1,5
 241 -14 241 -14 275 13 c 1,6,-1
 322 0 l 1,7,8
 288 -33 288 -33 273.5 -60.5 c 128,-1,9
 259 -88 259 -88 259 -115 c 0,10,11
 259 -164 259 -164 307 -164 c 0,12,13
 317 -164 317 -164 325.5 -162.5 c 128,-1,14
 334 -161 334 -161 341 -158 c 1,15,-1
 341 -214 l 1,16,17
 330 -218 330 -218 317.5 -220.5 c 128,-1,18
 305 -223 305 -223 289 -223 c 0,0,1
EndSplineSet
Validated: 1
EndChar

StartChar: tilde
Encoding: 732 732 337
Width: 530
Flags: W
LayerCount: 2
Fore
SplineSet
107 608 m 1,0,1
 112 659 112 659 133.5 695.5 c 128,-1,2
 155 732 155 732 199 732 c 0,3,4
 224 732 224 732 247 717.5 c 128,-1,5
 270 703 270 703 291 689 c 128,-1,6
 312 675 312 675 331 675 c 0,7,8
 349 675 349 675 357.5 690.5 c 128,-1,9
 366 706 366 706 372 733 c 1,10,-1
 423 733 l 1,11,12
 418 674 418 674 394 641.5 c 128,-1,13
 370 609 370 609 333 609 c 0,14,15
 307 609 307 609 283.5 623.5 c 128,-1,16
 260 638 260 638 239 652.5 c 128,-1,17
 218 667 218 667 201 667 c 0,18,19
 182 667 182 667 172.5 651.5 c 128,-1,20
 163 636 163 636 158 608 c 1,21,-1
 107 608 l 1,0,1
EndSplineSet
Validated: 1
EndChar

StartChar: hungarumlaut
Encoding: 733 733 338
Width: 530
Flags: W
LayerCount: 2
Fore
SplineSet
301 617 m 1,0,1
 315 638 315 638 331 666.5 c 128,-1,2
 347 695 347 695 361 722 c 128,-1,3
 375 749 375 749 382 766 c 1,4,-1
 470 766 l 1,5,-1
 470 757 l 1,6,7
 459 736 459 736 437 707.5 c 128,-1,8
 415 679 415 679 390 651 c 128,-1,9
 365 623 365 623 345 606 c 1,10,-1
 301 606 l 1,11,-1
 301 617 l 1,0,1
147 617 m 1,12,13
 162 639 162 639 177.5 667 c 128,-1,14
 193 695 193 695 207 721.5 c 128,-1,15
 221 748 221 748 229 766 c 1,16,-1
 316 766 l 1,17,-1
 316 757 l 1,18,19
 305 735 305 735 284 707.5 c 128,-1,20
 263 680 263 680 238 653 c 128,-1,21
 213 626 213 626 190 606 c 1,22,-1
 147 606 l 1,23,-1
 147 617 l 1,12,13
EndSplineSet
Validated: 1
EndChar

StartChar: tonos
Encoding: 900 900 339
Width: 530
GlyphClass: 2
Flags: W
AnchorPoint: "Anchor-1" 266 760 basechar 0
LayerCount: 2
Fore
SplineSet
243 616 m 2,0,1
 246 629 246 629 251 652 c 128,-1,2
 256 675 256 675 261 701 c 128,-1,3
 266 727 266 727 270 750.5 c 128,-1,4
 274 774 274 774 276 788 c 1,5,-1
 360 788 l 1,6,-1
 360 779 l 1,7,8
 349 744 349 744 330.5 694 c 128,-1,9
 312 644 312 644 292 606 c 1,10,-1
 243 606 l 1,11,-1
 243 616 l 2,0,1
EndSplineSet
Validated: 1048577
EndChar

StartChar: dieresistonos
Encoding: 901 901 340
Width: 530
GlyphClass: 2
Flags: W
AnchorPoint: "Anchor-1" 265 804 basechar 0
LayerCount: 2
Fore
SplineSet
234 666 m 1,0,1
 244 697 244 697 253 736.5 c 128,-1,2
 262 776 262 776 265 804 c 1,3,-1
 345 804 l 1,4,-1
 345 795 l 1,5,6
 335 766 335 766 315 726.5 c 128,-1,7
 295 687 295 687 275 656 c 1,8,-1
 234 656 l 1,9,-1
 234 666 l 1,0,1
364 606 m 256,10,11
 346 606 346 606 334 619 c 128,-1,12
 322 632 322 632 322 657 c 0,13,14
 322 683 322 683 334 695.5 c 128,-1,15
 346 708 346 708 364 708 c 256,16,17
 382 708 382 708 394.5 695.5 c 128,-1,18
 407 683 407 683 407 657 c 0,19,20
 407 632 407 632 394.5 619 c 128,-1,21
 382 606 382 606 364 606 c 256,10,11
166 606 m 0,22,23
 147 606 147 606 134.5 619 c 128,-1,24
 122 632 122 632 122 657 c 256,25,26
 122 682 122 682 134.5 695 c 128,-1,27
 147 708 147 708 166 708 c 0,28,29
 183 708 183 708 195.5 695 c 128,-1,30
 208 682 208 682 208 657 c 256,31,32
 208 632 208 632 195.5 619 c 128,-1,33
 183 606 183 606 166 606 c 0,22,23
EndSplineSet
Validated: 1048577
EndChar

StartChar: Epsilontonos
Encoding: 904 904 343
Width: 530
GlyphClass: 2
Flags: W
AnchorPoint: "Anchor-1" 301 714 basechar 0
AnchorPoint: "Anchor-0" 307 0 basechar 0
LayerCount: 2
Fore
SplineSet
-36 616 m 2,0,1
 -33 629 -33 629 -28 652 c 128,-1,2
 -23 675 -23 675 -18 701 c 128,-1,3
 -13 727 -13 727 -9 750.5 c 128,-1,4
 -5 774 -5 774 -3 788 c 1,5,-1
 81 788 l 1,6,-1
 81 779 l 1,7,8
 70 744 70 744 51.5 694 c 128,-1,9
 33 644 33 644 13 606 c 1,10,-1
 -36 606 l 1,11,-1
 -36 616 l 2,0,1
116 0 m 1,12,-1
 116 714 l 1,13,-1
 463 714 l 1,14,-1
 463 635 l 1,15,-1
 202 635 l 1,16,-1
 202 410 l 1,17,-1
 444 410 l 1,18,-1
 444 332 l 1,19,-1
 202 332 l 1,20,-1
 202 79 l 1,21,-1
 463 79 l 1,22,-1
 463 0 l 1,23,-1
 116 0 l 1,12,-1
EndSplineSet
Validated: 1048577
EndChar

StartChar: Etatonos
Encoding: 905 905 344
Width: 530
GlyphClass: 2
Flags: W
AnchorPoint: "Anchor-3" 293 376 basechar 0
AnchorPoint: "Anchor-1" 293 714 basechar 0
AnchorPoint: "Anchor-0" 293 0 basechar 0
LayerCount: 2
Fore
SplineSet
-32 616 m 1,0,1
 -28 629 -28 629 -23 652 c 128,-1,2
 -18 675 -18 675 -13 701 c 128,-1,3
 -8 727 -8 727 -4 750.5 c 128,-1,4
 0 774 0 774 1 788 c 1,5,-1
 86 788 l 1,6,-1
 86 779 l 1,7,8
 75 744 75 744 56 694 c 128,-1,9
 37 644 37 644 18 606 c 1,10,-1
 -32 606 l 1,11,-1
 -32 616 l 1,0,1
104 0 m 1,12,-1
 104 714 l 1,13,-1
 190 714 l 1,14,-1
 190 410 l 1,15,-1
 392 410 l 1,16,-1
 392 714 l 1,17,-1
 478 714 l 1,18,-1
 478 0 l 1,19,-1
 392 0 l 1,20,-1
 392 331 l 1,21,-1
 190 331 l 1,22,-1
 190 0 l 1,23,-1
 104 0 l 1,12,-1
EndSplineSet
Validated: 1048577
EndChar

StartChar: Upsilontonos
Encoding: 910 910 347
Width: 530
GlyphClass: 2
Flags: W
AnchorPoint: "Anchor-1" 318 714 basechar 0
AnchorPoint: "Anchor-0" 318 0 basechar 0
LayerCount: 2
Fore
SplineSet
-11 616 m 1,0,1
 -7 629 -7 629 -2 652 c 128,-1,2
 3 675 3 675 8 701 c 128,-1,3
 13 727 13 727 16.5 750.5 c 128,-1,4
 20 774 20 774 22 788 c 1,5,-1
 106 788 l 1,6,-1
 106 779 l 1,7,8
 96 744 96 744 77 694 c 128,-1,9
 58 644 58 644 39 606 c 1,10,-1
 -11 606 l 1,11,-1
 -11 616 l 1,0,1
276 0 m 1,12,-1
 276 275 l 1,13,-1
 114 714 l 1,14,-1
 205 714 l 1,15,-1
 318 363 l 1,16,-1
 427 714 l 1,17,-1
 519 714 l 1,18,-1
 359 275 l 1,19,-1
 359 0 l 1,20,-1
 276 0 l 1,12,-1
EndSplineSet
Validated: 1048577
EndChar

StartChar: Gamma
Encoding: 915 915 352
Width: 530
GlyphClass: 2
Flags: W
AnchorPoint: "Anchor-1" 291 714 basechar 0
AnchorPoint: "Anchor-0" 291 0 basechar 0
LayerCount: 2
Fore
SplineSet
87 0 m 1,0,-1
 87 714 l 1,1,-1
 463 714 l 1,2,-1
 463 637 l 1,3,-1
 173 637 l 1,4,-1
 173 0 l 1,5,-1
 87 0 l 1,0,-1
EndSplineSet
Validated: 1048577
EndChar

StartChar: uni0394
Encoding: 916 916 353
Width: 530
GlyphClass: 2
Flags: W
AnchorPoint: "Anchor-1" 265 714 basechar 0
AnchorPoint: "Anchor-0" 265 0 basechar 0
LayerCount: 2
Fore
SplineSet
20 0 m 1,0,-1
 20 60 l 1,1,-1
 215 714 l 1,2,-1
 313 714 l 1,3,-1
 510 56 l 1,4,-1
 510 0 l 1,5,-1
 20 0 l 1,0,-1
115 77 m 1,6,-1
 415 77 l 1,7,-1
 301 479 l 2,8,9
 290 515 290 515 280 554 c 128,-1,10
 270 593 270 593 263 627 c 1,11,12
 257 593 257 593 247 553.5 c 128,-1,13
 237 514 237 514 227 480 c 2,14,-1
 115 77 l 1,6,-1
EndSplineSet
Validated: 1048577
EndChar

StartChar: Theta
Encoding: 920 920 357
Width: 530
GlyphClass: 2
Flags: W
AnchorPoint: "Anchor-3" 265 357 basechar 0
AnchorPoint: "Anchor-2" 530 714 basechar 0
AnchorPoint: "Anchor-1" 265 714 basechar 0
AnchorPoint: "Anchor-0" 265 0 basechar 0
LayerCount: 2
Fore
SplineSet
265 -10 m 256,0,1
 179 -10 179 -10 127.5 39 c 128,-1,2
 76 88 76 88 53.5 171.5 c 128,-1,3
 31 255 31 255 31 358 c 0,4,5
 31 533 31 533 88 629.5 c 128,-1,6
 145 726 145 726 265 726 c 0,7,8
 349 726 349 726 400.5 677.5 c 128,-1,9
 452 629 452 629 475.5 546 c 128,-1,10
 499 463 499 463 499 358 c 256,11,12
 499 253 499 253 476 169.5 c 128,-1,13
 453 86 453 86 402 38 c 128,-1,14
 351 -10 351 -10 265 -10 c 256,0,1
266 67 m 256,15,16
 342 67 342 67 377 141.5 c 128,-1,17
 412 216 412 216 412 358 c 0,18,19
 412 499 412 499 376.5 574.5 c 128,-1,20
 341 650 341 650 266 650 c 0,21,22
 186 650 186 650 152 574 c 128,-1,23
 118 498 118 498 118 358 c 256,24,25
 118 218 118 218 154 142.5 c 128,-1,26
 190 67 190 67 266 67 c 256,15,16
175 326 m 1,27,-1
 175 401 l 1,28,-1
 356 401 l 1,29,-1
 356 326 l 1,30,-1
 175 326 l 1,27,-1
EndSplineSet
Validated: 1
EndChar

StartChar: Lambda
Encoding: 923 923 360
Width: 530
GlyphClass: 2
Flags: W
AnchorPoint: "Anchor-1" 265 714 basechar 0
AnchorPoint: "Anchor-0" 265 0 basechar 0
LayerCount: 2
Fore
SplineSet
20 0 m 1,0,-1
 216 714 l 1,1,-1
 310 714 l 1,2,-1
 510 0 l 1,3,-1
 420 0 l 1,4,-1
 293 490 l 2,5,6
 283 527 283 527 275.5 557 c 128,-1,7
 268 587 268 587 263 617 c 1,8,9
 259 587 259 587 251.5 557 c 128,-1,10
 244 527 244 527 235 491 c 2,11,-1
 111 0 l 1,12,-1
 20 0 l 1,0,-1
EndSplineSet
Validated: 1048577
EndChar

StartChar: Xi
Encoding: 926 926 363
Width: 530
GlyphClass: 2
Flags: W
AnchorPoint: "Anchor-1" 265 714 basechar 0
AnchorPoint: "Anchor-0" 265 0 basechar 0
LayerCount: 2
Fore
SplineSet
73 635 m 1,0,-1
 73 714 l 1,1,-1
 458 714 l 1,2,-1
 458 635 l 1,3,-1
 73 635 l 1,0,-1
103 334 m 1,4,-1
 103 412 l 1,5,-1
 428 412 l 1,6,-1
 428 334 l 1,7,-1
 103 334 l 1,4,-1
53 0 m 1,8,-1
 53 79 l 1,9,-1
 478 79 l 1,10,-1
 478 0 l 1,11,-1
 53 0 l 1,8,-1
EndSplineSet
Validated: 1048577
EndChar

StartChar: Pi
Encoding: 928 928 365
Width: 530
GlyphClass: 2
Flags: W
AnchorPoint: "Anchor-1" 265 714 basechar 0
AnchorPoint: "Anchor-0" 265 0 basechar 0
LayerCount: 2
Fore
SplineSet
53 0 m 1,0,-1
 53 714 l 1,1,-1
 478 714 l 1,2,-1
 478 0 l 1,3,-1
 392 0 l 1,4,-1
 392 637 l 1,5,-1
 138 637 l 1,6,-1
 138 0 l 1,7,-1
 53 0 l 1,0,-1
EndSplineSet
Validated: 1048577
EndChar

StartChar: Sigma
Encoding: 931 931 367
Width: 530
GlyphClass: 2
Flags: W
AnchorPoint: "Anchor-1" 265 714 basechar 0
AnchorPoint: "Anchor-0" 265 0 basechar 0
LayerCount: 2
Fore
SplineSet
74 0 m 1,0,-1
 74 71 l 1,1,-1
 259 372 l 1,2,-1
 81 644 l 1,3,-1
 81 714 l 1,4,-1
 442 714 l 1,5,-1
 442 638 l 1,6,-1
 253 638 l 2,7,8
 235 638 235 638 213.5 638.5 c 128,-1,9
 192 639 192 639 178 640 c 1,10,-1
 354 373 l 1,11,-1
 168 74 l 1,12,13
 189 75 189 75 211.5 76 c 128,-1,14
 234 77 234 77 254 77 c 2,15,-1
 463 77 l 1,16,-1
 463 0 l 1,17,-1
 74 0 l 1,0,-1
EndSplineSet
Validated: 1048577
EndChar

StartChar: Phi
Encoding: 934 934 370
Width: 530
GlyphClass: 2
Flags: W
AnchorPoint: "Anchor-1" 265 714 basechar 0
AnchorPoint: "Anchor-0" 265 0 basechar 0
LayerCount: 2
Fore
SplineSet
224 100 m 1,0,1
 161 100 161 100 117 134.5 c 128,-1,2
 73 169 73 169 49.5 230 c 128,-1,3
 26 291 26 291 26 372 c 0,4,5
 26 446 26 446 48.5 506 c 128,-1,6
 71 566 71 566 115.5 601 c 128,-1,7
 160 636 160 636 224 636 c 1,8,-1
 224 724 l 1,9,-1
 306 724 l 1,10,-1
 306 636 l 1,11,12
 372 636 372 636 416 602 c 128,-1,13
 460 568 460 568 482 508 c 128,-1,14
 504 448 504 448 504 370 c 256,15,16
 504 292 504 292 481.5 231 c 128,-1,17
 459 170 459 170 415 135 c 128,-1,18
 371 100 371 100 306 100 c 1,19,-1
 306 -10 l 1,20,-1
 224 -10 l 1,21,-1
 224 100 l 1,0,1
224 562 m 1,22,23
 167 562 167 562 139 512 c 128,-1,24
 111 462 111 462 111 372 c 0,25,26
 111 274 111 274 139.5 222 c 128,-1,27
 168 170 168 170 224 170 c 1,28,-1
 224 562 l 1,22,23
306 170 m 1,29,30
 362 170 362 170 391 222.5 c 128,-1,31
 420 275 420 275 420 372 c 0,32,33
 420 465 420 465 392 513.5 c 128,-1,34
 364 562 364 562 306 562 c 1,35,-1
 306 170 l 1,29,30
EndSplineSet
Validated: 1048577
EndChar

StartChar: Psi
Encoding: 936 936 372
Width: 530
GlyphClass: 2
Flags: W
AnchorPoint: "Anchor-1" 265 714 basechar 0
AnchorPoint: "Anchor-0" 265 0 basechar 0
LayerCount: 2
Fore
SplineSet
224 212 m 1,0,1
 149 213 149 213 105.5 243.5 c 128,-1,2
 62 274 62 274 44 330.5 c 128,-1,3
 26 387 26 387 26 467 c 2,4,-1
 26 714 l 1,5,-1
 109 714 l 1,6,-1
 109 479 l 2,7,8
 109 423 109 423 116.5 380 c 128,-1,9
 124 337 124 337 148.5 312.5 c 128,-1,10
 173 288 173 288 224 288 c 1,11,-1
 224 714 l 1,12,-1
 306 714 l 1,13,-1
 306 288 l 1,14,15
 371 289 371 289 396 332 c 128,-1,16
 421 375 421 375 421 479 c 2,17,-1
 421 714 l 1,18,-1
 504 714 l 1,19,-1
 504 470 l 2,20,21
 504 390 504 390 485.5 332.5 c 128,-1,22
 467 275 467 275 424 244 c 128,-1,23
 381 213 381 213 306 212 c 1,24,-1
 306 0 l 1,25,-1
 224 0 l 1,26,-1
 224 212 l 1,0,1
EndSplineSet
Validated: 1048577
EndChar

StartChar: uni03A9
Encoding: 937 937 373
Width: 530
GlyphClass: 2
Flags: W
AnchorPoint: "Anchor-1" 264 714 basechar 0
AnchorPoint: "Anchor-0" 265 0 basechar 0
LayerCount: 2
Fore
SplineSet
20 0 m 1,0,-1
 20 76 l 1,1,-1
 137 76 l 1,2,3
 89 124 89 124 60.5 206.5 c 128,-1,4
 32 289 32 289 32 403 c 0,5,6
 32 563 32 563 93 643.5 c 128,-1,7
 154 724 154 724 267 724 c 0,8,9
 379 724 379 724 438.5 642 c 128,-1,10
 498 560 498 560 498 404 c 0,11,12
 498 288 498 288 469 205 c 128,-1,13
 440 122 440 122 393 76 c 1,14,-1
 510 76 l 1,15,-1
 510 0 l 1,16,-1
 306 0 l 1,17,-1
 306 67 l 1,18,19
 364 124 364 124 387 204.5 c 128,-1,20
 410 285 410 285 410 392 c 0,21,22
 410 516 410 516 375.5 583 c 128,-1,23
 341 650 341 650 267 650 c 0,24,25
 120 650 120 650 120 392 c 0,26,27
 120 285 120 285 144.5 204 c 128,-1,28
 169 123 169 123 223 67 c 1,29,-1
 223 0 l 1,30,-1
 20 0 l 1,0,-1
EndSplineSet
Validated: 1048577
EndChar

StartChar: alpha
Encoding: 945 945 381
Width: 530
GlyphClass: 2
Flags: W
AnchorPoint: "Anchor-1" 265 536 basechar 0
AnchorPoint: "Anchor-0" 262 0 basechar 0
LayerCount: 2
Fore
SplineSet
221 -10 m 0,0,1
 138 -10 138 -10 91.5 60 c 128,-1,2
 45 130 45 130 45 266 c 0,3,4
 45 404 45 404 93 475.5 c 128,-1,5
 141 547 141 547 228 547 c 0,6,7
 320 547 320 547 365 461 c 1,8,-1
 370 461 l 1,9,10
 374 481 374 481 381 501.5 c 128,-1,11
 388 522 388 522 398 537 c 1,12,-1
 464 537 l 1,13,14
 454 504 454 504 448 451.5 c 128,-1,15
 442 399 442 399 442 342 c 2,16,-1
 442 126 l 2,17,18
 442 91 442 91 452 75.5 c 128,-1,19
 462 60 462 60 481 60 c 0,20,21
 494 60 494 60 509 65 c 1,22,-1
 509 0 l 1,23,24
 503 -4 503 -4 489 -7 c 128,-1,25
 475 -10 475 -10 459 -10 c 0,26,27
 422 -10 422 -10 398.5 9.5 c 128,-1,28
 375 29 375 29 366 74 c 1,29,-1
 360 74 l 1,30,31
 339 36 339 36 305 13 c 128,-1,32
 271 -10 271 -10 221 -10 c 0,0,1
242 61 m 256,33,34
 303 61 303 61 331.5 110.5 c 128,-1,35
 360 160 360 160 360 258 c 2,36,-1
 360 267 l 2,37,38
 360 369 360 369 333 421.5 c 128,-1,39
 306 474 306 474 244 474 c 0,40,41
 184 474 184 474 156.5 422 c 128,-1,42
 129 370 129 370 129 263 c 0,43,44
 129 161 129 161 155 111 c 128,-1,45
 181 61 181 61 242 61 c 256,33,34
EndSplineSet
Validated: 1048577
EndChar

StartChar: beta
Encoding: 946 946 382
Width: 530
GlyphClass: 2
Flags: W
AnchorPoint: "Anchor-2" 510 765 basechar 0
AnchorPoint: "Anchor-1" 267 765 basechar 0
AnchorPoint: "Anchor-0" 301 0 basechar 0
LayerCount: 2
Fore
SplineSet
66 553 m 2,0,1
 66 658 66 658 118.5 711.5 c 128,-1,2
 171 765 171 765 261 765 c 256,3,4
 351 765 351 765 401.5 715 c 128,-1,5
 452 665 452 665 452 571 c 0,6,7
 452 502 452 502 422.5 458 c 128,-1,8
 393 414 393 414 334 405 c 1,9,-1
 334 401 l 1,10,11
 404 392 404 392 443 345 c 128,-1,12
 482 298 482 298 482 207 c 0,13,14
 482 100 482 100 426.5 45 c 128,-1,15
 371 -10 371 -10 276 -10 c 0,16,17
 236 -10 236 -10 205 -0.5 c 128,-1,18
 174 9 174 9 149 25 c 1,19,-1
 149 -240 l 1,20,-1
 66 -240 l 1,21,-1
 66 553 l 2,0,1
267 63 m 0,22,23
 334 63 334 63 366 101 c 128,-1,24
 398 139 398 139 398 213 c 0,25,26
 398 286 398 286 364 324 c 128,-1,27
 330 362 330 362 267 362 c 2,28,-1
 237 362 l 1,29,-1
 237 434 l 1,30,-1
 260 434 l 2,31,32
 316 434 316 434 342.5 467.5 c 128,-1,33
 369 501 369 501 369 563 c 0,34,35
 369 632 369 632 339 662.5 c 128,-1,36
 309 693 309 693 259 693 c 256,37,38
 209 693 209 693 179 658.5 c 128,-1,39
 149 624 149 624 149 549 c 2,40,-1
 149 99 l 1,41,42
 170 83 170 83 200.5 73 c 128,-1,43
 231 63 231 63 267 63 c 0,22,23
EndSplineSet
Validated: 1048577
Substitution2: "'locl' Localized Forms in Latin lookup 19 subtable" uniA7B5
Substitution2: "'locl' Localized Forms in Latin lookup 18 subtable" uniA7B5
Substitution2: "'aalt' Access All Alternates lookup 0 subtable" uniA7B5
EndChar

StartChar: gamma
Encoding: 947 947 383
Width: 530
GlyphClass: 2
Flags: W
AnchorPoint: "Anchor-2" 510 536 basechar 0
AnchorPoint: "Anchor-1" 271 536 basechar 0
AnchorPoint: "Anchor-0" 269 -240 basechar 0
LayerCount: 2
Fore
SplineSet
189 -240 m 1,0,1
 189 -211 189 -211 194.5 -168.5 c 128,-1,2
 200 -126 200 -126 208 -82 c 128,-1,3
 216 -38 216 -38 226 -4 c 1,4,-1
 35 536 l 1,5,-1
 123 536 l 1,6,-1
 212 289 l 2,7,8
 231 234 231 234 246 183.5 c 128,-1,9
 261 133 261 133 267 93 c 1,10,-1
 271 93 l 1,11,12
 277 131 277 131 290.5 183 c 128,-1,13
 304 235 304 235 322 287 c 2,14,-1
 408 536 l 1,15,-1
 495 536 l 1,16,-1
 322 25 l 2,17,18
 308 -16 308 -16 298 -63 c 128,-1,19
 288 -110 288 -110 282.5 -156 c 128,-1,20
 277 -202 277 -202 277 -240 c 1,21,-1
 189 -240 l 1,0,1
EndSplineSet
Validated: 1048577
EndChar

StartChar: delta
Encoding: 948 948 384
Width: 530
GlyphClass: 2
Flags: W
AnchorPoint: "Anchor-1" 295 761 basechar 0
AnchorPoint: "Anchor-0" 264 0 basechar 0
LayerCount: 2
Fore
SplineSet
263 -10 m 0,0,1
 193 -10 193 -10 144 18.5 c 128,-1,2
 95 47 95 47 70 97.5 c 128,-1,3
 45 148 45 148 45 214 c 0,4,5
 45 302 45 302 96.5 365 c 128,-1,6
 148 428 148 428 234 455 c 1,7,8
 182 495 182 495 151 534.5 c 128,-1,9
 120 574 120 574 120 624 c 0,10,11
 120 691 120 691 168.5 726 c 128,-1,12
 217 761 217 761 291 761 c 0,13,14
 339 761 339 761 379.5 748 c 128,-1,15
 420 735 420 735 450 719 c 1,16,-1
 417 650 l 1,17,18
 387 669 387 669 355 679.5 c 128,-1,19
 323 690 323 690 291 690 c 0,20,21
 251 690 251 690 227 671.5 c 128,-1,22
 203 653 203 653 203 624 c 0,23,24
 203 586 203 586 236 555 c 128,-1,25
 269 524 269 524 321 486 c 0,26,27
 373 446 373 446 410 408.5 c 128,-1,28
 447 371 447 371 466.5 327 c 128,-1,29
 486 283 486 283 486 224 c 0,30,31
 486 119 486 119 427.5 54.5 c 128,-1,32
 369 -10 369 -10 263 -10 c 0,0,1
264 61 m 256,33,34
 330 61 330 61 365.5 104 c 128,-1,35
 401 147 401 147 401 225 c 0,36,37
 401 285 401 285 372.5 330 c 128,-1,38
 344 375 344 375 286 414 c 1,39,40
 218 394 218 394 174 343 c 128,-1,41
 130 292 130 292 130 217 c 0,42,43
 130 152 130 152 164 106.5 c 128,-1,44
 198 61 198 61 264 61 c 256,33,34
EndSplineSet
Validated: 1048577
EndChar

StartChar: epsilon
Encoding: 949 949 385
Width: 530
GlyphClass: 2
Flags: W
AnchorPoint: "Anchor-1" 265 536 basechar 0
AnchorPoint: "Anchor-0" 284 0 basechar 0
LayerCount: 2
Fore
SplineSet
299 -10 m 0,0,1
 187 -10 187 -10 133.5 34.5 c 128,-1,2
 80 79 80 79 80 146 c 0,3,4
 80 204 80 204 115 236.5 c 128,-1,5
 150 269 150 269 205 281 c 1,6,-1
 205 286 l 1,7,8
 155 299 155 299 128 330 c 128,-1,9
 101 361 101 361 101 406 c 0,10,11
 101 471 101 471 156 509 c 128,-1,12
 211 547 211 547 300 547 c 0,13,14
 345 547 345 547 381 538 c 128,-1,15
 417 529 417 529 453 511 c 1,16,-1
 420 446 l 1,17,18
 389 462 389 462 361 469 c 128,-1,19
 333 476 333 476 302 476 c 0,20,21
 243 476 243 476 212 455.5 c 128,-1,22
 181 435 181 435 181 398 c 0,23,24
 181 357 181 357 219.5 335.5 c 128,-1,25
 258 314 258 314 331 314 c 2,26,-1
 373 314 l 1,27,-1
 373 247 l 1,28,-1
 321 247 l 2,29,30
 241 247 241 247 203 222 c 128,-1,31
 165 197 165 197 165 154 c 0,32,33
 165 106 165 106 205 83.5 c 128,-1,34
 245 61 245 61 305 61 c 0,35,36
 350 61 350 61 385 72 c 128,-1,37
 420 83 420 83 449 99 c 1,38,-1
 449 24 l 1,39,40
 419 7 419 7 383.5 -1.5 c 128,-1,41
 348 -10 348 -10 299 -10 c 0,0,1
EndSplineSet
Validated: 1048577
EndChar

StartChar: zeta
Encoding: 950 950 386
Width: 530
GlyphClass: 2
Flags: W
AnchorPoint: "Anchor-1" 297 760 basechar 0
AnchorPoint: "Anchor-0" 295 -197 basechar 0
LayerCount: 2
Fore
SplineSet
297 -197 m 1,0,1
 321 -164 321 -164 338.5 -128 c 128,-1,2
 356 -92 356 -92 356 -67 c 0,3,4
 356 -41 356 -41 334.5 -24.5 c 128,-1,5
 313 -8 313 -8 262 11 c 0,6,7
 183 43 183 43 145.5 91.5 c 128,-1,8
 108 140 108 140 108 228 c 0,9,10
 108 318 108 318 137 394.5 c 128,-1,11
 166 471 166 471 221.5 543.5 c 128,-1,12
 277 616 277 616 355 695 c 1,13,14
 310 689 310 689 230 689 c 2,15,-1
 129 689 l 1,16,-1
 129 760 l 1,17,-1
 448 760 l 1,18,-1
 448 699 l 1,19,20
 317 574 317 574 255 463 c 128,-1,21
 193 352 193 352 193 236 c 0,22,23
 193 190 193 190 205.5 161.5 c 128,-1,24
 218 133 218 133 246 113 c 128,-1,25
 274 93 274 93 322 74 c 0,26,27
 352 64 352 64 379 49 c 128,-1,28
 406 34 406 34 422.5 10.5 c 128,-1,29
 439 -13 439 -13 439 -48 c 0,30,31
 439 -87 439 -87 421.5 -126 c 128,-1,32
 404 -165 404 -165 380 -197 c 1,33,-1
 297 -197 l 1,0,1
EndSplineSet
Validated: 1048577
EndChar

StartChar: eta
Encoding: 951 951 387
Width: 530
GlyphClass: 2
Flags: W
AnchorPoint: "Anchor-2" 510 536 basechar 0
AnchorPoint: "Anchor-1" 265 536 basechar 0
AnchorPoint: "Anchor-0" 265 -241 basechar 0
LayerCount: 2
Fore
SplineSet
66 0 m 1,0,-1
 66 536 l 1,1,-1
 135 536 l 1,2,-1
 147 462 l 1,3,-1
 152 462 l 1,4,5
 173 505 173 505 213 526 c 128,-1,6
 253 547 253 547 304 547 c 0,7,8
 381 547 381 547 425 500 c 128,-1,9
 469 453 469 453 469 352 c 2,10,-1
 469 -241 l 1,11,-1
 385 -241 l 1,12,-1
 385 345 l 2,13,14
 385 409 385 409 360.5 441.5 c 128,-1,15
 336 474 336 474 284 474 c 0,16,17
 216 474 216 474 183 423 c 128,-1,18
 150 372 150 372 150 278 c 2,19,-1
 150 0 l 1,20,-1
 66 0 l 1,0,-1
EndSplineSet
Validated: 1048577
EndChar

StartChar: theta
Encoding: 952 952 388
Width: 530
GlyphClass: 2
Flags: W
AnchorPoint: "Anchor-2" 510 769 basechar 0
AnchorPoint: "Anchor-1" 266 769 basechar 0
AnchorPoint: "Anchor-0" 264 0 basechar 0
LayerCount: 2
Fore
SplineSet
263 -10 m 0,0,1
 160 -10 160 -10 110 89 c 128,-1,2
 60 188 60 188 60 380 c 0,3,4
 60 571 60 571 110 670 c 128,-1,5
 160 769 160 769 264 769 c 256,6,7
 368 769 368 769 418.5 670.5 c 128,-1,8
 469 572 469 572 469 381 c 0,9,10
 469 189 469 189 419 89.5 c 128,-1,11
 369 -10 369 -10 263 -10 c 0,0,1
384 423 m 1,12,13
 380 560 380 560 351 629.5 c 128,-1,14
 322 699 322 699 264 699 c 0,15,16
 205 699 205 699 177 629.5 c 128,-1,17
 149 560 149 560 145 423 c 1,18,-1
 384 423 l 1,12,13
263 60 m 0,19,20
 378 60 378 60 384 353 c 1,21,-1
 144 353 l 1,22,23
 146 207 146 207 174.5 133.5 c 128,-1,24
 203 60 203 60 263 60 c 0,19,20
EndSplineSet
Validated: 1048577
EndChar

StartChar: iota
Encoding: 953 953 389
Width: 530
GlyphClass: 2
Flags: W
AnchorPoint: "Anchor-1" 262 536 basechar 0
AnchorPoint: "Anchor-0" 337 0 basechar 0
LayerCount: 2
Fore
SplineSet
349 -10 m 0,0,1
 286 -10 286 -10 253 22.5 c 128,-1,2
 220 55 220 55 220 132 c 2,3,-1
 220 536 l 1,4,-1
 303 536 l 1,5,-1
 303 138 l 2,6,7
 303 98 303 98 318 80.5 c 128,-1,8
 333 63 333 63 367 63 c 0,9,10
 385 63 385 63 405 66.5 c 128,-1,11
 425 70 425 70 435 74 c 1,12,-1
 435 6 l 1,13,14
 420 -1 420 -1 396.5 -5.5 c 128,-1,15
 373 -10 373 -10 349 -10 c 0,0,1
EndSplineSet
Validated: 1048577
EndChar

StartChar: lambda
Encoding: 955 955 391
Width: 530
GlyphClass: 2
Flags: W
AnchorPoint: "Anchor-1" 258 767 basechar 0
AnchorPoint: "Anchor-0" 256 0 basechar 0
LayerCount: 2
Fore
SplineSet
443 -10 m 0,0,1
 401 -10 401 -10 376 15 c 128,-1,2
 351 40 351 40 335 105 c 2,3,-1
 286 294 l 2,4,5
 278 323 278 323 270 355.5 c 128,-1,6
 262 388 262 388 258 414 c 1,7,-1
 254 414 l 1,8,9
 245 371 245 371 230 326 c 2,10,-1
 131 0 l 1,11,-1
 45 0 l 1,12,-1
 218 528 l 1,13,-1
 197 614 l 2,14,15
 186 655 186 655 171 675.5 c 128,-1,16
 156 696 156 696 124 696 c 0,17,18
 102 696 102 696 85 690 c 1,19,-1
 85 759 l 1,20,21
 96 762 96 762 109 764.5 c 128,-1,22
 122 767 122 767 138 767 c 0,23,24
 194 767 194 767 226 733 c 128,-1,25
 258 699 258 699 279 619 c 2,26,-1
 409 129 l 2,27,28
 418 95 418 95 429.5 79 c 128,-1,29
 441 63 441 63 461 63 c 0,30,31
 475 63 475 63 490 68 c 1,32,-1
 490 -1 l 1,33,34
 470 -10 470 -10 443 -10 c 0,0,1
EndSplineSet
Validated: 1048577
EndChar

StartChar: uni03BC
Encoding: 956 956 392
Width: 530
GlyphClass: 2
Flags: W
AnchorPoint: "Anchor-2" 510 536 basechar 0
AnchorPoint: "Anchor-1" 265 536 basechar 0
AnchorPoint: "Anchor-0" 265 -240 basechar 0
LayerCount: 2
Fore
SplineSet
227 -10 m 0,0,1
 180 -10 180 -10 145 6 c 1,2,-1
 145 -240 l 1,3,-1
 61 -240 l 1,4,-1
 61 536 l 1,5,-1
 145 536 l 1,6,-1
 145 191 l 2,7,8
 145 121 145 121 171 91.5 c 128,-1,9
 197 62 197 62 253 62 c 0,10,11
 319 62 319 62 349.5 113 c 128,-1,12
 380 164 380 164 380 258 c 2,13,-1
 380 536 l 1,14,-1
 464 536 l 1,15,-1
 464 0 l 1,16,-1
 394 0 l 1,17,-1
 381 72 l 1,18,-1
 376 72 l 1,19,20
 354 29 354 29 315.5 9.5 c 128,-1,21
 277 -10 277 -10 227 -10 c 0,0,1
EndSplineSet
Validated: 1048577
EndChar

StartChar: nu
Encoding: 957 957 393
Width: 530
GlyphClass: 2
Flags: W
AnchorPoint: "Anchor-1" 267 536 basechar 0
AnchorPoint: "Anchor-0" 271 0 basechar 0
LayerCount: 2
Fore
SplineSet
206 0 m 1,0,-1
 55 537 l 1,1,-1
 140 537 l 1,2,-1
 222 221 l 2,3,4
 232 183 232 183 243 145.5 c 128,-1,5
 254 108 254 108 258 84 c 1,6,-1
 262 84 l 1,7,8
 332 178 332 178 362 289.5 c 128,-1,9
 392 401 392 401 392 537 c 1,10,-1
 475 537 l 1,11,12
 475 432 475 432 456.5 340.5 c 128,-1,13
 438 249 438 249 396.5 165.5 c 128,-1,14
 355 82 355 82 287 0 c 1,15,-1
 206 0 l 1,0,-1
EndSplineSet
Validated: 1048577
EndChar

StartChar: xi
Encoding: 958 958 394
Width: 530
GlyphClass: 2
Flags: W
AnchorPoint: "Anchor-1" 308 760 basechar 0
AnchorPoint: "Anchor-0" 306 -197 basechar 0
LayerCount: 2
Fore
SplineSet
317 -197 m 1,0,1
 341 -164 341 -164 358.5 -128 c 128,-1,2
 376 -92 376 -92 376 -66 c 0,3,4
 376 -32 376 -32 344.5 -16.5 c 128,-1,5
 313 -1 313 -1 272 10 c 0,6,7
 248 17 248 17 220 28.5 c 128,-1,8
 192 40 192 40 166 61 c 128,-1,9
 140 82 140 82 123 117 c 128,-1,10
 106 152 106 152 106 205 c 0,11,12
 106 278 106 278 143 329.5 c 128,-1,13
 180 381 180 381 253 397 c 1,14,-1
 253 402 l 1,15,16
 192 412 192 412 161.5 449.5 c 128,-1,17
 131 487 131 487 131 543 c 0,18,19
 131 610 131 610 170 644 c 128,-1,20
 209 678 209 678 266 694 c 1,21,22
 249 692 249 692 227.5 690.5 c 128,-1,23
 206 689 206 689 183 689 c 2,24,-1
 128 689 l 1,25,-1
 128 760 l 1,26,-1
 443 760 l 1,27,-1
 443 692 l 1,28,-1
 417 692 l 2,29,30
 382 692 382 692 346 684 c 128,-1,31
 310 676 310 676 280 659 c 128,-1,32
 250 642 250 642 231.5 614 c 128,-1,33
 213 586 213 586 213 546 c 0,34,35
 213 496 213 496 249.5 465 c 128,-1,36
 286 434 286 434 372 434 c 2,37,-1
 426 434 l 1,38,-1
 426 364 l 1,39,-1
 374 364 l 2,40,41
 192 364 192 364 192 212 c 0,42,43
 192 151 192 151 225 122.5 c 128,-1,44
 258 94 258 94 328 74 c 0,45,46
 360 65 360 65 390 51 c 128,-1,47
 420 37 420 37 439 13 c 128,-1,48
 458 -11 458 -11 458 -50 c 0,49,50
 458 -88 458 -88 440.5 -126 c 128,-1,51
 423 -164 423 -164 400 -197 c 1,52,-1
 317 -197 l 1,0,1
EndSplineSet
Validated: 1048577
EndChar

StartChar: pi
Encoding: 960 960 396
Width: 530
GlyphClass: 2
Flags: W
AnchorPoint: "Anchor-1" 265 536 basechar 0
AnchorPoint: "Anchor-0" 265 0 basechar 0
LayerCount: 2
Fore
SplineSet
427 -8 m 0,0,1
 327 -8 327 -8 327 119 c 2,2,-1
 327 465 l 1,3,-1
 199 465 l 1,4,-1
 199 0 l 1,5,-1
 117 0 l 1,6,-1
 117 465 l 1,7,-1
 23 465 l 1,8,-1
 23 500 l 1,9,-1
 79 536 l 1,10,-1
 500 536 l 1,11,-1
 500 465 l 1,12,-1
 411 465 l 1,13,-1
 411 130 l 2,14,15
 411 94 411 94 421 79 c 128,-1,16
 431 64 431 64 451 64 c 0,17,18
 472 64 472 64 489 72 c 1,19,-1
 489 4 l 1,20,21
 468 -8 468 -8 427 -8 c 0,0,1
EndSplineSet
Validated: 1048577
EndChar

StartChar: rho
Encoding: 961 961 397
Width: 530
GlyphClass: 2
Flags: W
AnchorPoint: "Anchor-1" 279 536 basechar 0
AnchorPoint: "Anchor-0" 265 -240 basechar 0
LayerCount: 2
Fore
SplineSet
66 276 m 2,0,1
 66 407 66 407 119 477 c 128,-1,2
 172 547 172 547 279 547 c 0,3,4
 375 547 375 547 430.5 477.5 c 128,-1,5
 486 408 486 408 486 269 c 0,6,7
 486 137 486 137 434.5 63.5 c 128,-1,8
 383 -10 383 -10 282 -10 c 0,9,10
 240 -10 240 -10 206.5 1.5 c 128,-1,11
 173 13 173 13 149 34 c 1,12,-1
 144 34 l 1,13,14
 147 5 147 5 148 -29.5 c 128,-1,15
 149 -64 149 -64 149 -98 c 2,16,-1
 149 -240 l 1,17,-1
 66 -240 l 1,18,-1
 66 276 l 2,0,1
269 61 m 0,19,20
 338 61 338 61 369 113 c 128,-1,21
 400 165 400 165 400 269 c 0,22,23
 400 374 400 374 370.5 424.5 c 128,-1,24
 341 475 341 475 276 475 c 256,25,26
 211 475 211 475 180 427.5 c 128,-1,27
 149 380 149 380 149 282 c 2,28,-1
 149 105 l 1,29,30
 195 61 195 61 269 61 c 0,19,20
EndSplineSet
Validated: 1048577
EndChar

StartChar: uni03C2
Encoding: 962 962 398
Width: 530
GlyphClass: 2
Flags: W
AnchorPoint: "Anchor-1" 325 536 basechar 0
AnchorPoint: "Anchor-0" 313 -198 basechar 0
LayerCount: 2
Fore
SplineSet
289 -197 m 1,0,1
 312 -165 312 -165 331.5 -129 c 128,-1,2
 351 -93 351 -93 351 -64 c 0,3,4
 351 -33 351 -33 326 -17.5 c 128,-1,5
 301 -2 301 -2 260 12 c 0,6,7
 222 26 222 26 188 43 c 128,-1,8
 154 60 154 60 128.5 87.5 c 128,-1,9
 103 115 103 115 89 159 c 128,-1,10
 75 203 75 203 75 270 c 0,11,12
 75 409 75 409 141.5 478 c 128,-1,13
 208 547 208 547 323 547 c 0,14,15
 362 547 362 547 391 539 c 128,-1,16
 420 531 420 531 444 519 c 1,17,-1
 417 450 l 1,18,19
 392 461 392 461 370.5 466.5 c 128,-1,20
 349 472 349 472 322 472 c 0,21,22
 160 472 160 472 160 270 c 0,23,24
 160 206 160 206 175.5 172 c 128,-1,25
 191 138 191 138 225 118 c 128,-1,26
 259 98 259 98 316 78 c 0,27,28
 341 69 341 69 368 55 c 128,-1,29
 395 41 395 41 413.5 16 c 128,-1,30
 432 -9 432 -9 432 -49 c 256,31,32
 432 -89 432 -89 414.5 -127.5 c 128,-1,33
 397 -166 397 -166 375 -197 c 1,34,-1
 289 -197 l 1,0,1
EndSplineSet
Validated: 1048577
EndChar

StartChar: sigma
Encoding: 963 963 399
Width: 530
GlyphClass: 2
Flags: W
AnchorPoint: "Anchor-1" 265 536 basechar 0
AnchorPoint: "Anchor-0" 265 0 basechar 0
LayerCount: 2
Fore
SplineSet
263 -10 m 0,0,1
 160 -10 160 -10 102.5 59 c 128,-1,2
 45 128 45 128 45 257 c 0,3,4
 45 400 45 400 112.5 468.5 c 128,-1,5
 180 537 180 537 308 537 c 2,6,-1
 505 537 l 1,7,-1
 505 466 l 1,8,-1
 408 466 l 1,9,10
 442 424 442 424 460.5 368.5 c 128,-1,11
 479 313 479 313 479 244 c 0,12,13
 479 125 479 125 423 57.5 c 128,-1,14
 367 -10 367 -10 263 -10 c 0,0,1
264 61 m 256,15,16
 331 61 331 61 363 110 c 128,-1,17
 395 159 395 159 395 246 c 0,18,19
 395 309 395 309 379.5 363 c 128,-1,20
 364 417 364 417 333 466 c 1,21,-1
 299 466 l 2,22,23
 212 466 212 466 170.5 416.5 c 128,-1,24
 129 367 129 367 129 258 c 0,25,26
 129 162 129 162 163 111.5 c 128,-1,27
 197 61 197 61 264 61 c 256,15,16
EndSplineSet
Validated: 1048577
EndChar

StartChar: tau
Encoding: 964 964 400
Width: 530
GlyphClass: 2
Flags: W
AnchorPoint: "Anchor-1" 274 536 basechar 0
AnchorPoint: "Anchor-0" 328 0 basechar 0
LayerCount: 2
Fore
SplineSet
361 -11 m 0,0,1
 291 -11 291 -11 253 26 c 128,-1,2
 215 63 215 63 215 146 c 2,3,-1
 215 466 l 1,4,-1
 52 466 l 1,5,-1
 52 501 l 1,6,-1
 108 537 l 1,7,-1
 474 537 l 1,8,-1
 474 466 l 1,9,-1
 297 466 l 1,10,-1
 297 160 l 2,11,12
 297 108 297 108 318.5 84.5 c 128,-1,13
 340 61 340 61 381 61 c 0,14,15
 418 61 418 61 450 71 c 1,16,-1
 450 4 l 1,17,18
 438 -2 438 -2 412 -6.5 c 128,-1,19
 386 -11 386 -11 361 -11 c 0,0,1
EndSplineSet
Validated: 1048577
EndChar

StartChar: upsilon
Encoding: 965 965 401
Width: 530
GlyphClass: 2
Flags: W
AnchorPoint: "Anchor-1" 265 536 basechar 0
AnchorPoint: "Anchor-0" 267 0 basechar 0
LayerCount: 2
Fore
SplineSet
262 -9 m 0,0,1
 186 -9 186 -9 143.5 19.5 c 128,-1,2
 101 48 101 48 83.5 100 c 128,-1,3
 66 152 66 152 66 221 c 2,4,-1
 66 537 l 1,5,-1
 149 537 l 1,6,-1
 149 229 l 2,7,8
 149 154 149 154 173.5 108.5 c 128,-1,9
 198 63 198 63 268 63 c 0,10,11
 336 63 336 63 366 116 c 128,-1,12
 396 169 396 169 396 283 c 0,13,14
 396 342 396 342 389 405 c 128,-1,15
 382 468 382 468 366 537 c 1,16,-1
 449 537 l 1,17,18
 464 465 464 465 471.5 408.5 c 128,-1,19
 479 352 479 352 479 288 c 0,20,21
 479 136 479 136 427 63.5 c 128,-1,22
 375 -9 375 -9 262 -9 c 0,0,1
EndSplineSet
Validated: 1048577
EndChar

StartChar: phi
Encoding: 966 966 402
Width: 530
GlyphClass: 2
Flags: W
AnchorPoint: "Anchor-1" 261 536 basechar 0
AnchorPoint: "Anchor-0" 261 -240 basechar 0
LayerCount: 2
Fore
SplineSet
222 -8 m 1,0,1
 132 0 132 0 88.5 73 c 128,-1,2
 45 146 45 146 45 263 c 0,3,4
 45 347 45 347 68 413.5 c 128,-1,5
 91 480 91 480 141 542 c 1,6,-1
 203 501 l 1,7,8
 161 448 161 448 143.5 391.5 c 128,-1,9
 126 335 126 335 126 264 c 0,10,11
 126 182 126 182 147.5 127 c 128,-1,12
 169 72 169 72 222 63 c 1,13,-1
 222 368 l 2,14,15
 222 458 222 458 252 502.5 c 128,-1,16
 282 547 282 547 338 547 c 0,17,18
 391 547 391 547 423.5 511 c 128,-1,19
 456 475 456 475 471 416.5 c 128,-1,20
 486 358 486 358 486 290 c 0,21,22
 486 207 486 207 465.5 142.5 c 128,-1,23
 445 78 445 78 404.5 38.5 c 128,-1,24
 364 -1 364 -1 303 -8 c 1,25,-1
 303 -240 l 1,26,-1
 222 -240 l 1,27,-1
 222 -8 l 1,0,1
302 63 m 1,28,29
 349 72 349 72 376.5 129 c 128,-1,30
 404 186 404 186 404 299 c 0,31,32
 404 375 404 375 389.5 425.5 c 128,-1,33
 375 476 375 476 343 476 c 0,34,35
 318 476 318 476 310 446.5 c 128,-1,36
 302 417 302 417 302 367 c 2,37,-1
 302 63 l 1,28,29
EndSplineSet
Validated: 1048577
EndChar

StartChar: chi
Encoding: 967 967 403
Width: 530
GlyphClass: 2
Flags: W
AnchorPoint: "Anchor-2" 510 536 basechar 0
AnchorPoint: "Anchor-1" 269 536 basechar 0
AnchorPoint: "Anchor-0" 269 -244 basechar 0
LayerCount: 2
Fore
SplineSet
444 -244 m 0,0,1
 388 -244 388 -244 362.5 -208.5 c 128,-1,2
 337 -173 337 -173 318 -112 c 2,3,-1
 260 76 l 1,4,-1
 122 -240 l 1,5,-1
 35 -240 l 1,6,-1
 224 171 l 1,7,-1
 153 392 l 2,8,9
 140 431 140 431 126 451.5 c 128,-1,10
 112 472 112 472 89 472 c 0,11,12
 71 472 71 472 58 467 c 1,13,-1
 58 535 l 1,14,15
 68 538 68 538 80.5 540.5 c 128,-1,16
 93 543 93 543 108 543 c 0,17,18
 154 543 154 543 178.5 513.5 c 128,-1,19
 203 484 203 484 223 420 c 2,20,-1
 276 255 l 1,21,-1
 397 536 l 1,22,-1
 482 536 l 1,23,-1
 310 159 l 1,24,-1
 387 -82 l 2,25,26
 403 -132 403 -132 418 -152.5 c 128,-1,27
 433 -173 433 -173 461 -173 c 0,28,29
 478 -173 478 -173 495 -168 c 1,30,-1
 495 -236 l 1,31,32
 474 -244 474 -244 444 -244 c 0,0,1
EndSplineSet
Validated: 1048577
Substitution2: "'locl' Localized Forms in Latin lookup 19 subtable" uniAB53
Substitution2: "'locl' Localized Forms in Latin lookup 18 subtable" uniAB53
Substitution2: "'aalt' Access All Alternates lookup 0 subtable" uniAB53
EndChar

StartChar: psi
Encoding: 968 968 404
Width: 530
GlyphClass: 2
Flags: W
AnchorPoint: "Anchor-1" 268 760 basechar 0
AnchorPoint: "Anchor-0" 268 -240 basechar 0
LayerCount: 2
Fore
SplineSet
233 -9 m 1,0,1
 153 -4 153 -4 109.5 59 c 128,-1,2
 66 122 66 122 66 247 c 2,3,-1
 66 537 l 1,4,-1
 148 537 l 1,5,-1
 148 255 l 2,6,7
 148 165 148 165 168 119 c 128,-1,8
 188 73 188 73 233 68 c 1,9,-1
 233 760 l 1,10,-1
 312 760 l 1,11,-1
 312 68 l 1,12,13
 358 73 358 73 380.5 124 c 128,-1,14
 403 175 403 175 403 285 c 0,15,16
 403 410 403 410 372 537 c 1,17,-1
 453 537 l 1,18,19
 470 467 470 467 478 406 c 128,-1,20
 486 345 486 345 486 287 c 0,21,22
 486 145 486 145 441 70.5 c 128,-1,23
 396 -4 396 -4 312 -9 c 1,24,-1
 312 -240 l 1,25,-1
 233 -240 l 1,26,-1
 233 -9 l 1,0,1
EndSplineSet
Validated: 1048577
EndChar

StartChar: omega
Encoding: 969 969 405
Width: 530
GlyphClass: 2
Flags: W
AnchorPoint: "Anchor-1" 265 536 basechar 0
AnchorPoint: "Anchor-0" 265 0 basechar 0
LayerCount: 2
Fore
SplineSet
168 -10 m 0,0,1
 108 -10 108 -10 76.5 60 c 128,-1,2
 45 130 45 130 45 261 c 0,3,4
 45 333 45 333 56 399.5 c 128,-1,5
 67 466 67 466 91 537 c 1,6,-1
 173 537 l 1,7,8
 148 470 148 470 137.5 402 c 128,-1,9
 127 334 127 334 127 263 c 0,10,11
 127 162 127 162 139 114 c 128,-1,12
 151 66 151 66 179 66 c 0,13,14
 225 66 225 66 225 215 c 2,15,-1
 225 348 l 1,16,-1
 303 348 l 1,17,-1
 303 215 l 2,18,19
 303 139 303 139 314 102.5 c 128,-1,20
 325 66 325 66 350 66 c 0,21,22
 404 66 404 66 404 261 c 0,23,24
 404 331 404 331 393 401.5 c 128,-1,25
 382 472 382 472 358 537 c 1,26,-1
 440 537 l 1,27,28
 486 400 486 400 486 261 c 0,29,30
 486 130 486 130 452 60 c 128,-1,31
 418 -10 418 -10 358 -10 c 0,32,33
 323 -10 323 -10 299 14 c 128,-1,34
 275 38 275 38 265 81 c 1,35,-1
 263 81 l 1,36,37
 253 38 253 38 229.5 14 c 128,-1,38
 206 -10 206 -10 168 -10 c 0,0,1
EndSplineSet
Validated: 1048577
EndChar

StartChar: uni0402
Encoding: 1026 1026 412
Width: 530
GlyphClass: 2
Flags: W
AnchorPoint: "Anchor-1" 174 714 basechar 0
AnchorPoint: "Anchor-0" 265 0 basechar 0
LayerCount: 2
Fore
SplineSet
316 -10 m 0,0,1
 285 -10 285 -10 260 0 c 1,2,-1
 260 76 l 1,3,4
 283 66 283 66 304 66 c 0,5,6
 343 66 343 66 363.5 88 c 128,-1,7
 384 110 384 110 384 162 c 2,8,-1
 384 263 l 2,9,10
 384 315 384 315 357.5 339 c 128,-1,11
 331 363 331 363 271 363 c 2,12,-1
 193 363 l 1,13,-1
 193 0 l 1,14,-1
 107 0 l 1,15,-1
 107 638 l 1,16,-1
 0 638 l 1,17,-1
 0 714 l 1,18,-1
 343 714 l 1,19,-1
 343 638 l 1,20,-1
 193 638 l 1,21,-1
 193 440 l 1,22,-1
 277 440 l 2,23,24
 372 440 372 440 420.5 397 c 128,-1,25
 469 354 469 354 469 272 c 2,26,-1
 469 156 l 2,27,28
 469 78 469 78 429 34 c 128,-1,29
 389 -10 389 -10 316 -10 c 0,0,1
EndSplineSet
Validated: 1048577
EndChar

StartChar: uni0404
Encoding: 1028 1028 414
Width: 530
GlyphClass: 2
Flags: W
AnchorPoint: "Anchor-1" 324 714 basechar 0
AnchorPoint: "Anchor-0" 318 0 basechar 0
LayerCount: 2
Fore
SplineSet
322 -10 m 0,0,1
 228 -10 228 -10 163 34.5 c 128,-1,2
 98 79 98 79 64.5 160.5 c 128,-1,3
 31 242 31 242 31 353 c 0,4,5
 31 458 31 458 63 542 c 128,-1,6
 95 626 95 626 160 675.5 c 128,-1,7
 225 725 225 725 326 725 c 0,8,9
 369 725 369 725 413 715 c 128,-1,10
 457 705 457 705 493 684 c 1,11,-1
 463 613 l 1,12,13
 430 630 430 630 396 639 c 128,-1,14
 362 648 362 648 326 648 c 0,15,16
 257 648 257 648 214.5 615 c 128,-1,17
 172 582 172 582 150 528 c 128,-1,18
 128 474 128 474 121 409 c 1,19,-1
 412 409 l 1,20,-1
 412 333 l 1,21,-1
 120 333 l 1,22,23
 122 261 122 261 143.5 200.5 c 128,-1,24
 165 140 165 140 211.5 103.5 c 128,-1,25
 258 67 258 67 333 67 c 0,26,27
 374 67 374 67 410 77 c 128,-1,28
 446 87 446 87 472 98 c 1,29,-1
 472 21 l 1,30,31
 439 5 439 5 399 -2.5 c 128,-1,32
 359 -10 359 -10 322 -10 c 0,0,1
EndSplineSet
Validated: 1048577
EndChar

StartChar: uni0409
Encoding: 1033 1033 419
Width: 530
GlyphClass: 2
Flags: W
AnchorPoint: "Anchor-1" 226 714 basechar 0
AnchorPoint: "Anchor-0" 265 0 basechar 0
LayerCount: 2
Fore
SplineSet
54 -9 m 0,0,1
 26 -9 26 -9 7 1 c 1,2,-1
 7 75 l 1,3,4
 14 71 14 71 21.5 69 c 128,-1,5
 29 67 29 67 38 67 c 0,6,7
 64 67 64 67 74 93.5 c 128,-1,8
 84 120 84 120 88 165 c 0,9,10
 94 227 94 227 100 366 c 128,-1,11
 106 505 106 505 113 714 c 1,12,-1
 332 714 l 1,13,-1
 332 415 l 1,14,-1
 354 415 l 2,15,16
 443 415 443 415 485 363.5 c 128,-1,17
 527 312 527 312 527 214 c 0,18,19
 527 111 527 111 484 55.5 c 128,-1,20
 441 0 441 0 358 0 c 2,21,-1
 249 0 l 1,22,-1
 249 635 l 1,23,-1
 190 635 l 1,24,25
 186 493 186 493 182 395.5 c 128,-1,26
 178 298 178 298 174 235 c 128,-1,27
 170 172 170 172 165 133 c 0,28,29
 155 62 155 62 129 26.5 c 128,-1,30
 103 -9 103 -9 54 -9 c 0,0,1
358 74 m 2,31,32
 443 74 443 74 443 211 c 0,33,34
 443 277 443 277 422 309 c 128,-1,35
 401 341 401 341 355 341 c 2,36,-1
 332 341 l 1,37,-1
 332 74 l 1,38,-1
 358 74 l 2,31,32
EndSplineSet
Validated: 1048577
EndChar

StartChar: uni040A
Encoding: 1034 1034 420
Width: 530
GlyphClass: 2
Flags: W
AnchorPoint: "Anchor-1" 181 714 basechar 0
AnchorPoint: "Anchor-0" 265 0 basechar 0
LayerCount: 2
Fore
SplineSet
36 0 m 1,0,-1
 36 714 l 1,1,-1
 121 714 l 1,2,-1
 121 416 l 1,3,-1
 242 416 l 1,4,-1
 242 714 l 1,5,-1
 327 714 l 1,6,-1
 327 415 l 1,7,-1
 352 415 l 2,8,9
 441 415 441 415 482.5 363.5 c 128,-1,10
 524 312 524 312 524 214 c 0,11,12
 524 112 524 112 481.5 56 c 128,-1,13
 439 0 439 0 356 0 c 2,14,-1
 242 0 l 1,15,-1
 242 341 l 1,16,-1
 121 341 l 1,17,-1
 121 0 l 1,18,-1
 36 0 l 1,0,-1
354 74 m 2,19,20
 437 74 437 74 437 211 c 0,21,22
 437 277 437 277 417 309 c 128,-1,23
 397 341 397 341 351 341 c 2,24,-1
 327 341 l 1,25,-1
 327 74 l 1,26,-1
 354 74 l 2,19,20
EndSplineSet
Validated: 1048577
EndChar

StartChar: uni040B
Encoding: 1035 1035 421
Width: 530
GlyphClass: 2
Flags: W
AnchorPoint: "Anchor-1" 186 714 basechar 0
AnchorPoint: "Anchor-0" 291 0 basechar 0
LayerCount: 2
Fore
SplineSet
106 0 m 1,0,-1
 106 637 l 1,1,-1
 0 637 l 1,2,-1
 0 714 l 1,3,-1
 347 714 l 1,4,-1
 347 637 l 1,5,-1
 192 637 l 1,6,-1
 192 440 l 1,7,-1
 278 440 l 2,8,9
 469 440 469 440 469 264 c 2,10,-1
 469 0 l 1,11,-1
 383 0 l 1,12,-1
 383 263 l 2,13,14
 383 315 383 315 357 339 c 128,-1,15
 331 363 331 363 270 363 c 2,16,-1
 192 363 l 1,17,-1
 192 0 l 1,18,-1
 106 0 l 1,0,-1
EndSplineSet
Validated: 1048577
EndChar

StartChar: uni040F
Encoding: 1039 1039 424
Width: 530
GlyphClass: 2
Flags: W
AnchorPoint: "Anchor-1" 265 714 basechar 0
AnchorPoint: "Anchor-0" 265 -192 basechar 0
LayerCount: 2
Fore
SplineSet
235 -192 m 1,0,-1
 235 0 l 1,1,-1
 53 0 l 1,2,-1
 53 714 l 1,3,-1
 137 714 l 1,4,-1
 137 76 l 1,5,-1
 393 76 l 1,6,-1
 393 714 l 1,7,-1
 478 714 l 1,8,-1
 478 0 l 1,9,-1
 316 0 l 1,10,-1
 316 -192 l 1,11,-1
 235 -192 l 1,0,-1
EndSplineSet
Validated: 1048577
EndChar

StartChar: uni0411
Encoding: 1041 1041 426
Width: 530
GlyphClass: 2
Flags: W
AnchorPoint: "Anchor-1" 258 714 basechar 0
AnchorPoint: "Anchor-0" 258 0 basechar 0
LayerCount: 2
Fore
SplineSet
74 0 m 1,0,-1
 74 714 l 1,1,-1
 444 714 l 1,2,-1
 444 638 l 1,3,-1
 155 638 l 1,4,-1
 155 415 l 1,5,-1
 258 415 l 2,6,7
 376 415 376 415 429 363.5 c 128,-1,8
 482 312 482 312 482 211 c 0,9,10
 482 111 482 111 425.5 55.5 c 128,-1,11
 369 0 369 0 264 0 c 2,12,-1
 74 0 l 1,0,-1
261 75 m 2,13,14
 396 75 396 75 396 210 c 0,15,16
 396 278 396 278 363 309.5 c 128,-1,17
 330 341 330 341 258 341 c 2,18,-1
 159 341 l 1,19,-1
 159 75 l 1,20,-1
 261 75 l 2,13,14
EndSplineSet
Validated: 1048577
EndChar

StartChar: uni0414
Encoding: 1044 1044 429
Width: 530
GlyphClass: 2
Flags: W
AnchorPoint: "Anchor-1" 311 714 basechar 0
AnchorPoint: "Anchor-0" 265 -192 basechar 0
LayerCount: 2
Fore
SplineSet
13 -192 m 1,0,-1
 13 77 l 1,1,-1
 59 77 l 1,2,3
 115 230 115 230 145.5 385.5 c 128,-1,4
 176 541 176 541 179 714 c 1,5,-1
 438 714 l 1,6,-1
 438 77 l 1,7,-1
 507 77 l 1,8,-1
 507 -192 l 1,9,-1
 425 -192 l 1,10,-1
 425 0 l 1,11,-1
 95 0 l 1,12,-1
 95 -192 l 1,13,-1
 13 -192 l 1,0,-1
148 77 m 1,14,-1
 354 77 l 1,15,-1
 354 638 l 1,16,-1
 258 638 l 1,17,18
 251 489 251 489 222.5 345 c 128,-1,19
 194 201 194 201 148 77 c 1,14,-1
EndSplineSet
Validated: 1048577
EndChar

StartChar: uni0416
Encoding: 1046 1046 431
Width: 530
GlyphClass: 2
Flags: W
AnchorPoint: "Anchor-1" 265 714 basechar 0
AnchorPoint: "Anchor-0" 265 0 basechar 0
LayerCount: 2
Fore
SplineSet
4 0 m 1,0,-1
 147 368 l 1,1,-1
 10 714 l 1,2,-1
 95 714 l 1,3,-1
 226 368 l 1,4,-1
 226 714 l 1,5,-1
 304 714 l 1,6,-1
 304 368 l 1,7,-1
 434 714 l 1,8,-1
 518 714 l 1,9,-1
 383 368 l 1,10,-1
 524 0 l 1,11,-1
 437 0 l 1,12,-1
 304 362 l 1,13,-1
 304 0 l 1,14,-1
 226 0 l 1,15,-1
 226 362 l 1,16,-1
 92 0 l 1,17,-1
 4 0 l 1,0,-1
EndSplineSet
Validated: 1048577
EndChar

StartChar: uni0417
Encoding: 1047 1047 432
Width: 530
GlyphClass: 2
Flags: W
AnchorPoint: "Anchor-1" 265 714 basechar 0
AnchorPoint: "Anchor-0" 265 0 basechar 0
LayerCount: 2
Fore
SplineSet
227 -10 m 0,0,1
 170 -10 170 -10 130 0 c 128,-1,2
 90 10 90 10 58 26 c 1,3,-1
 58 109 l 1,4,5
 87 92 87 92 130 79 c 128,-1,6
 173 66 173 66 224 66 c 0,7,8
 305 66 305 66 344 100 c 128,-1,9
 383 134 383 134 383 200 c 0,10,11
 383 270 383 270 339.5 301.5 c 128,-1,12
 296 333 296 333 206 333 c 2,13,-1
 140 333 l 1,14,-1
 140 408 l 1,15,-1
 205 408 l 2,16,17
 370 408 370 408 370 539 c 0,18,19
 370 648 370 648 248 648 c 0,20,21
 196 648 196 648 161 630 c 128,-1,22
 126 612 126 612 103 594 c 1,23,-1
 62 655 l 1,24,25
 96 683 96 683 144 703.5 c 128,-1,26
 192 724 192 724 260 724 c 0,27,28
 357 724 357 724 407 676 c 128,-1,29
 457 628 457 628 457 549 c 0,30,31
 457 479 457 479 420.5 434.5 c 128,-1,32
 384 390 384 390 316 376 c 1,33,-1
 316 372 l 1,34,35
 392 363 392 363 431 317.5 c 128,-1,36
 470 272 470 272 470 198 c 0,37,38
 470 106 470 106 408.5 48 c 128,-1,39
 347 -10 347 -10 227 -10 c 0,0,1
EndSplineSet
Validated: 1048577
EndChar

StartChar: uni0418
Encoding: 1048 1048 433
Width: 530
GlyphClass: 2
Flags: W
AnchorPoint: "Anchor-1" 265 714 basechar 0
AnchorPoint: "Anchor-0" 280 0 basechar 0
LayerCount: 2
Fore
SplineSet
53 0 m 1,0,-1
 53 714 l 1,1,-1
 135 714 l 1,2,-1
 135 292 l 2,3,4
 135 261 135 261 133.5 223 c 128,-1,5
 132 185 132 185 130 138 c 1,6,-1
 134 138 l 1,7,-1
 374 714 l 1,8,-1
 478 714 l 1,9,-1
 478 0 l 1,10,-1
 395 0 l 1,11,-1
 395 430 l 2,12,13
 395 502 395 502 402 582 c 1,14,-1
 398 582 l 1,15,-1
 155 0 l 1,16,-1
 53 0 l 1,0,-1
EndSplineSet
Validated: 1048577
EndChar

StartChar: uni041A
Encoding: 1050 1050 435
Width: 530
GlyphClass: 2
Flags: W
AnchorPoint: "Anchor-1" 265 714 basechar 0
AnchorPoint: "Anchor-0" 269 0 basechar 0
LayerCount: 2
Fore
SplineSet
53 0 m 1,0,-1
 53 714 l 1,1,-1
 137 714 l 1,2,-1
 137 371 l 1,3,-1
 391 714 l 1,4,-1
 486 714 l 1,5,-1
 227 370 l 1,6,-1
 498 0 l 1,7,-1
 399 0 l 1,8,-1
 137 366 l 1,9,-1
 137 0 l 1,10,-1
 53 0 l 1,0,-1
EndSplineSet
Validated: 1048577
EndChar

StartChar: uni041B
Encoding: 1051 1051 436
Width: 530
GlyphClass: 2
Flags: W
AnchorPoint: "Anchor-1" 338 714 basechar 0
AnchorPoint: "Anchor-0" 275 0 basechar 0
LayerCount: 2
Fore
SplineSet
70 -9 m 0,0,1
 38 -9 38 -9 19 2 c 1,2,-1
 19 76 l 1,3,4
 35 67 35 67 56 67 c 0,5,6
 88 67 88 67 103 101.5 c 128,-1,7
 118 136 118 136 128 218 c 0,8,9
 133 252 133 252 139 305.5 c 128,-1,10
 145 359 145 359 151.5 426 c 128,-1,11
 158 493 158 493 165.5 566.5 c 128,-1,12
 173 640 173 640 179 714 c 1,13,-1
 478 714 l 1,14,-1
 478 0 l 1,15,-1
 392 0 l 1,16,-1
 392 635 l 1,17,-1
 253 635 l 1,18,19
 248 579 248 579 242.5 515.5 c 128,-1,20
 237 452 237 452 230.5 390 c 128,-1,21
 224 328 224 328 218 275 c 128,-1,22
 212 222 212 222 206 186 c 0,23,24
 196 118 196 118 180.5 75 c 128,-1,25
 165 32 165 32 139 11.5 c 128,-1,26
 113 -9 113 -9 70 -9 c 0,0,1
EndSplineSet
Validated: 1048577
EndChar

StartChar: uni041F
Encoding: 1055 1055 440
Width: 530
GlyphClass: 2
Flags: W
AnchorPoint: "Anchor-1" 265 714 basechar 0
AnchorPoint: "Anchor-0" 265 0 basechar 0
LayerCount: 2
Fore
SplineSet
53 0 m 1,0,-1
 53 714 l 1,1,-1
 478 714 l 1,2,-1
 478 0 l 1,3,-1
 393 0 l 1,4,-1
 393 638 l 1,5,-1
 137 638 l 1,6,-1
 137 0 l 1,7,-1
 53 0 l 1,0,-1
EndSplineSet
Validated: 1048577
EndChar

StartChar: uni0423
Encoding: 1059 1059 444
Width: 530
GlyphClass: 2
Flags: W
AnchorPoint: "Anchor-1" 265 714 basechar 0
AnchorPoint: "Anchor-0" 165 0 basechar 0
LayerCount: 2
Fore
SplineSet
121 -10 m 0,0,1
 99 -10 99 -10 79.5 -7 c 128,-1,2
 60 -4 60 -4 42 2 c 1,3,-1
 42 80 l 1,4,5
 78 67 78 67 113 67 c 0,6,7
 139 67 139 67 157.5 78.5 c 128,-1,8
 176 90 176 90 191.5 119.5 c 128,-1,9
 207 149 207 149 225 203 c 1,10,-1
 25 714 l 1,11,-1
 114 714 l 1,12,-1
 239 388 l 2,13,14
 246 371 246 371 253.5 349 c 128,-1,15
 261 327 261 327 269 300 c 1,16,-1
 274 300 l 1,17,18
 279 324 279 324 286.5 344 c 128,-1,19
 294 364 294 364 301 384 c 2,20,-1
 416 714 l 1,21,-1
 506 714 l 1,22,-1
 319 202 l 2,23,24
 291 125 291 125 264.5 78.5 c 128,-1,25
 238 32 238 32 204.5 11 c 128,-1,26
 171 -10 171 -10 121 -10 c 0,0,1
EndSplineSet
Validated: 1048577
EndChar

StartChar: uni0424
Encoding: 1060 1060 445
Width: 530
GlyphClass: 2
Flags: W
AnchorPoint: "Anchor-1" 265 714 basechar 0
AnchorPoint: "Anchor-0" 265 0 basechar 0
LayerCount: 2
Fore
SplineSet
223 100 m 1,0,1
 150 101 150 101 105.5 139 c 128,-1,2
 61 177 61 177 41 239 c 128,-1,3
 21 301 21 301 21 372 c 0,4,5
 21 444 21 444 42 504 c 128,-1,6
 63 564 63 564 107.5 600 c 128,-1,7
 152 636 152 636 223 636 c 1,8,-1
 223 724 l 1,9,-1
 309 724 l 1,10,-1
 309 636 l 1,11,12
 381 635 381 635 425 600 c 128,-1,13
 469 565 469 565 489 505.5 c 128,-1,14
 509 446 509 446 509 372 c 0,15,16
 509 300 509 300 489 238.5 c 128,-1,17
 469 177 469 177 425 139.5 c 128,-1,18
 381 102 381 102 309 100 c 1,19,-1
 309 -10 l 1,20,-1
 223 -10 l 1,21,-1
 223 100 l 1,0,1
223 562 m 1,22,23
 162 561 162 561 135.5 510.5 c 128,-1,24
 109 460 109 460 109 372 c 0,25,26
 109 278 109 278 137 227 c 128,-1,27
 165 176 165 176 223 174 c 1,28,-1
 223 562 l 1,22,23
309 174 m 1,29,30
 367 176 367 176 394 228.5 c 128,-1,31
 421 281 421 281 421 372 c 0,32,33
 421 462 421 462 395 511.5 c 128,-1,34
 369 561 369 561 309 562 c 1,35,-1
 309 174 l 1,29,30
EndSplineSet
Validated: 1048577
EndChar

StartChar: uni0426
Encoding: 1062 1062 447
Width: 530
GlyphClass: 2
Flags: W
AnchorPoint: "Anchor-1" 265 714 basechar 0
AnchorPoint: "Anchor-0" 265 -196 basechar 0
LayerCount: 2
Fore
SplineSet
53 0 m 1,0,-1
 53 714 l 1,1,-1
 137 714 l 1,2,-1
 137 76 l 1,3,-1
 393 76 l 1,4,-1
 393 714 l 1,5,-1
 478 714 l 1,6,-1
 478 77 l 1,7,-1
 530 77 l 1,8,-1
 530 -192 l 1,9,-1
 452 -192 l 1,10,-1
 452 0 l 1,11,-1
 53 0 l 1,0,-1
EndSplineSet
Validated: 1048577
EndChar

StartChar: uni0427
Encoding: 1063 1063 448
Width: 530
GlyphClass: 2
Flags: W
AnchorPoint: "Anchor-1" 265 714 basechar 0
AnchorPoint: "Anchor-0" 265 0 basechar 0
LayerCount: 2
Fore
SplineSet
392 292 m 1,0,1
 349 271 349 271 307.5 259.5 c 128,-1,2
 266 248 266 248 227 248 c 0,3,4
 142 248 142 248 97.5 294.5 c 128,-1,5
 53 341 53 341 53 431 c 2,6,-1
 53 714 l 1,7,-1
 137 714 l 1,8,-1
 137 445 l 2,9,10
 137 383 137 383 164 354 c 128,-1,11
 191 325 191 325 250 325 c 0,12,13
 285 325 285 325 319 334 c 128,-1,14
 353 343 353 343 392 363 c 1,15,-1
 392 714 l 1,16,-1
 478 714 l 1,17,-1
 478 0 l 1,18,-1
 392 0 l 1,19,-1
 392 292 l 1,0,1
EndSplineSet
Validated: 1048577
EndChar

StartChar: uni0428
Encoding: 1064 1064 449
Width: 530
GlyphClass: 2
Flags: W
AnchorPoint: "Anchor-1" 265 714 basechar 0
AnchorPoint: "Anchor-0" 265 0 basechar 0
LayerCount: 2
Fore
SplineSet
36 0 m 1,0,-1
 36 714 l 1,1,-1
 118 714 l 1,2,-1
 118 77 l 1,3,-1
 224 77 l 1,4,-1
 224 714 l 1,5,-1
 306 714 l 1,6,-1
 306 77 l 1,7,-1
 412 77 l 1,8,-1
 412 714 l 1,9,-1
 494 714 l 1,10,-1
 494 0 l 1,11,-1
 36 0 l 1,0,-1
EndSplineSet
Validated: 1048577
EndChar

StartChar: uni0429
Encoding: 1065 1065 450
Width: 530
GlyphClass: 2
Flags: W
AnchorPoint: "Anchor-1" 265 714 basechar 0
AnchorPoint: "Anchor-0" 265 -192 basechar 0
LayerCount: 2
Fore
SplineSet
36 0 m 1,0,-1
 36 714 l 1,1,-1
 118 714 l 1,2,-1
 118 77 l 1,3,-1
 224 77 l 1,4,-1
 224 714 l 1,5,-1
 306 714 l 1,6,-1
 306 77 l 1,7,-1
 412 77 l 1,8,-1
 412 714 l 1,9,-1
 494 714 l 1,10,-1
 494 77 l 1,11,-1
 530 77 l 1,12,-1
 530 -192 l 1,13,-1
 452 -192 l 1,14,-1
 452 0 l 1,15,-1
 36 0 l 1,0,-1
EndSplineSet
Validated: 1048577
EndChar

StartChar: uni042A
Encoding: 1066 1066 451
Width: 530
GlyphClass: 2
Flags: W
AnchorPoint: "Anchor-1" 265 714 basechar 0
AnchorPoint: "Anchor-0" 265 0 basechar 0
LayerCount: 2
Fore
SplineSet
94 0 m 1,0,-1
 94 637 l 1,1,-1
 0 637 l 1,2,-1
 0 714 l 1,3,-1
 179 714 l 1,4,-1
 179 415 l 1,5,-1
 279 415 l 2,6,7
 393 415 393 415 447.5 363.5 c 128,-1,8
 502 312 502 312 502 211 c 0,9,10
 502 112 502 112 445 56 c 128,-1,11
 388 0 388 0 283 0 c 2,12,-1
 94 0 l 1,0,-1
281 75 m 2,13,14
 416 75 416 75 416 210 c 0,15,16
 416 278 416 278 382 309.5 c 128,-1,17
 348 341 348 341 278 341 c 2,18,-1
 179 341 l 1,19,-1
 179 75 l 1,20,-1
 281 75 l 2,13,14
EndSplineSet
Validated: 1048577
EndChar

StartChar: uni042B
Encoding: 1067 1067 452
Width: 530
GlyphClass: 2
Flags: W
AnchorPoint: "Anchor-1" 265 714 basechar 0
AnchorPoint: "Anchor-0" 265 0 basechar 0
LayerCount: 2
Fore
SplineSet
36 0 m 1,0,-1
 36 714 l 1,1,-1
 121 714 l 1,2,-1
 121 415 l 1,3,-1
 169 415 l 2,4,5
 262 415 262 415 306.5 363.5 c 128,-1,6
 351 312 351 312 351 211 c 0,7,8
 351 112 351 112 305 56 c 128,-1,9
 259 0 259 0 173 0 c 2,10,-1
 36 0 l 1,0,-1
409 0 m 1,11,-1
 409 714 l 1,12,-1
 494 714 l 1,13,-1
 494 0 l 1,14,-1
 409 0 l 1,11,-1
171 74 m 2,15,16
 265 74 265 74 265 210 c 0,17,18
 265 278 265 278 241 309.5 c 128,-1,19
 217 341 217 341 168 341 c 2,20,-1
 121 341 l 1,21,-1
 121 74 l 1,22,-1
 171 74 l 2,15,16
EndSplineSet
Validated: 1048577
EndChar

